NotoSerifBengali-CondensedExtraLight.ufo
<glyph name="exclam" format="2">
  <advance width="248.4030303030303"/>
  <unicode hex="0021"/>
  <outline>
    <contour>
      <point x="113.37272727272727" y="175.06060606060606" type="line"/>
      <point x="141.05151515151513" y="175.06060606060606" type="line"/>
      <point x="149.05757575757576" y="714.0" type="line"/>
      <point x="104.8939393939394" y="714.0" type="line"/>
    </contour>
    <contour>
      <point x="126.23030303030302" y="-5.424242424242424" type="curve" smooth="yes"/>
      <point x="143.77878787878788" y="-5.424242424242424"/>
      <point x="159.91818181818184" y="5.463636363636363"/>
      <point x="159.91818181818184" y="38.94545454545455" type="curve" smooth="yes"/>
      <point x="159.91818181818184" y="72.67878787878787"/>
      <point x="143.77878787878788" y="83.33030303030301"/>
      <point x="126.23030303030302" y="83.33030303030301" type="curve" smooth="yes"/>
      <point x="106.90303030303029" y="83.33030303030301"/>
      <point x="91.43939393939394" y="72.67878787878787"/>
      <point x="91.43939393939394" y="38.94545454545455" type="curve" smooth="yes"/>
      <point x="91.43939393939394" y="5.463636363636363"/>
      <point x="106.90303030303029" y="-5.424242424242424"/>
    </contour>
  </outline>
</glyph>
<glyph name="quotedbl" format="2">
  <advance width="272.0030303030303"/>
  <unicode hex="0022"/>
  <outline>
    <contour>
      <point x="192.16666666666666" y="502.76060606060605" type="line"/>
      <point x="216.04848484848486" y="502.76060606060605" type="line"/>
      <point x="230.82121212121214" y="714.0" type="line"/>
      <point x="176.85757575757575" y="714.0" type="line"/>
    </contour>
    <contour>
      <point x="56.36363636363636" y="502.76060606060605" type="line"/>
      <point x="80.30909090909093" y="502.76060606060605" type="line"/>
      <point x="95.08181818181819" y="714.0" type="line"/>
      <point x="41.18181818181818" y="714.0" type="line"/>
    </contour>
  </outline>
</glyph>
<glyph name="numbersign" format="2">
  <advance width="467.8727272727273"/>
  <unicode hex="0023"/>
  <outline>
    <contour>
      <point x="55.66666666666667" y="0.0" type="line"/>
      <point x="89.52121212121213" y="0.0" type="line"/>
      <point x="130.03333333333333" y="216.47575757575757" type="line"/>
      <point x="277.169696969697" y="216.47575757575757" type="line"/>
      <point x="236.5939393939394" y="0.0" type="line"/>
      <point x="270.4484848484849" y="0.0" type="line"/>
      <point x="311.0242424242424" y="216.47575757575757" type="line"/>
      <point x="424.9151515151516" y="216.47575757575757" type="line"/>
      <point x="424.9151515151516" y="247.24545454545458" type="line"/>
      <point x="317.1484848484848" y="247.24545454545458" type="line"/>
      <point x="359.0242424242424" y="472.6060606060606" type="line"/>
      <point x="456.97878787878784" y="472.6060606060606" type="line"/>
      <point x="456.97878787878784" y="503.7363636363636" type="line"/>
      <point x="365.1484848484848" y="503.7363636363636" type="line"/>
      <point x="404.7242424242424" y="714.0" type="line"/>
      <point x="370.72121212121215" y="714.0" type="line"/>
      <point x="331.2939393939394" y="503.7363636363636" type="line"/>
      <point x="184.15757575757576" y="503.7363636363636" type="line"/>
      <point x="223.66969696969696" y="714.0" type="line"/>
      <point x="189.66666666666669" y="714.0" type="line"/>
      <point x="150.3030303030303" y="503.7363636363636" type="line"/>
      <point x="41.09090909090909" y="503.7363636363636" type="line"/>
      <point x="41.09090909090909" y="472.6060606060606" type="line"/>
      <point x="144.0939393939394" y="472.6060606060606" type="line"/>
      <point x="102.23939393939393" y="247.24545454545458" type="line"/>
      <point x="9.027272727272731" y="247.24545454545458" type="line"/>
      <point x="9.027272727272731" y="216.47575757575757" type="line"/>
      <point x="96.17878787878787" y="216.47575757575757" type="line"/>
    </contour>
    <contour>
      <point x="136.22121212121212" y="247.24545454545458" type="line"/>
      <point x="178.0969696969697" y="472.6060606060606" type="line"/>
      <point x="325.23333333333335" y="472.6060606060606" type="line"/>
      <point x="283.3575757575758" y="247.24545454545458" type="line"/>
    </contour>
  </outline>
</glyph>
<glyph name="percent" format="2">
  <advance width="742.0909090909091"/>
  <unicode hex="0025"/>
  <outline>
    <contour>
      <point x="192.74848484848485" y="0.0" type="line"/>
      <point x="228.96969696969697" y="0.0" type="line"/>
      <point x="545.4272727272727" y="714.0" type="line"/>
      <point x="509.35454545454553" y="714.0" type="line"/>
    </contour>
    <contour>
      <point x="171.35151515151514" y="280.0" type="curve" smooth="yes"/>
      <point x="259.4878787878788" y="280.0"/>
      <point x="298.46666666666664" y="363.95757575757574"/>
      <point x="298.46666666666664" y="503.0" type="curve"/>
      <point x="298.46666666666664" y="644.0909090909091"/>
      <point x="258.3212121212121" y="724.0"/>
      <point x="172.35151515151514" y="724.0" type="curve" smooth="yes"/>
      <point x="83.86363636363637" y="724.0"/>
      <point x="45.487878787878785" y="642.5151515151515"/>
      <point x="45.487878787878785" y="503.0" type="curve" smooth="yes"/>
      <point x="45.487878787878785" y="359.7818181818182"/>
      <point x="84.11515151515152" y="280.0"/>
    </contour>
    <contour>
      <point x="170.87878787878788" y="307.5242424242424" type="curve" smooth="yes"/>
      <point x="106.15454545454547" y="307.5242424242424"/>
      <point x="83.07575757575756" y="377.7393939393939"/>
      <point x="83.07575757575756" y="503.0" type="curve"/>
      <point x="83.07575757575756" y="622.9666666666667"/>
      <point x="104.9090909090909" y="696.2636363636365"/>
      <point x="171.26363636363638" y="696.2636363636365" type="curve" smooth="yes"/>
      <point x="237.94242424242427" y="696.2636363636365"/>
      <point x="260.6666666666667" y="627.8212121212122"/>
      <point x="260.6666666666667" y="503.0" type="curve" smooth="yes"/>
      <point x="260.6666666666667" y="380.8757575757576"/>
      <point x="239.59696969696972" y="307.5242424242424"/>
    </contour>
    <contour>
      <point x="569.9757575757576" y="-10.0" type="curve" smooth="yes"/>
      <point x="658.1121212121212" y="-10.0"/>
      <point x="697.0909090909091" y="73.95757575757577"/>
      <point x="697.0909090909091" y="213.0" type="curve" smooth="yes"/>
      <point x="697.0909090909091" y="354.09090909090907"/>
      <point x="656.9454545454545" y="434.0"/>
      <point x="570.9757575757576" y="434.0" type="curve" smooth="yes"/>
      <point x="482.57272727272726" y="434.0"/>
      <point x="444.1121212121212" y="352.5151515151515"/>
      <point x="444.1121212121212" y="213.0" type="curve" smooth="yes"/>
      <point x="444.1121212121212" y="69.78181818181818"/>
      <point x="482.8878787878788" y="-10.0"/>
    </contour>
    <contour>
      <point x="569.5030303030303" y="17.524242424242424" type="curve" smooth="yes"/>
      <point x="504.77878787878785" y="17.524242424242424"/>
      <point x="481.7" y="87.73939393939393"/>
      <point x="481.7" y="213.0" type="curve" smooth="yes"/>
      <point x="481.7" y="332.9666666666667"/>
      <point x="503.53333333333336" y="406.2636363636364"/>
      <point x="569.8030303030303" y="406.2636363636364" type="curve" smooth="yes"/>
      <point x="636.5666666666667" y="406.2636363636364"/>
      <point x="659.2272727272727" y="337.8212121212121"/>
      <point x="659.2272727272727" y="213.0" type="curve" smooth="yes"/>
      <point x="659.2272727272727" y="90.87575757575758"/>
      <point x="638.2212121212121" y="17.524242424242424"/>
    </contour>
  </outline>
</glyph>
<glyph name="quotesingle" format="2">
  <advance width="136.26363636363638"/>
  <unicode hex="0027"/>
  <outline>
    <contour>
      <point x="56.36363636363636" y="517.1" type="line"/>
      <point x="80.30909090909093" y="517.1" type="line"/>
      <point x="95.08181818181819" y="714.0" type="line"/>
      <point x="41.18181818181818" y="714.0" type="line"/>
    </contour>
  </outline>
</glyph>
<glyph name="parenleft" format="2">
  <advance width="260.0545454545454"/>
  <unicode hex="0028"/>
  <outline>
    <contour>
      <point x="219.2181818181818" y="-117.24545454545455" type="curve"/>
      <point x="219.2181818181818" y="-86.86060606060606" type="line"/>
      <point x="121.18787878787879" y="-34.25757575757575"/>
      <point x="84.05454545454546" y="123.33333333333334"/>
      <point x="84.05454545454546" y="315.42424242424244" type="curve" smooth="yes"/>
      <point x="84.05454545454546" y="507.5151515151515"/>
      <point x="120.47878787878787" y="666.6999999999999"/>
      <point x="219.2181818181818" y="717.1969696969697" type="curve"/>
      <point x="219.2181818181818" y="747.5212121212121" type="line"/>
      <point x="103.65151515151516" y="696.9030303030304"/>
      <point x="41.77878787878788" y="569.1393939393939"/>
      <point x="41.77878787878788" y="315.42424242424244" type="curve" smooth="yes"/>
      <point x="41.77878787878788" y="60.07878787878788"/>
      <point x="103.65151515151516" y="-65.85757575757575"/>
    </contour>
  </outline>
</glyph>
<glyph name="parenright" format="2">
  <advance width="275.8454545454546"/>
  <unicode hex="0029"/>
  <outline>
    <contour>
      <point x="56.224242424242426" y="-117.24545454545455" type="line"/>
      <point x="171.79090909090914" y="-65.85757575757575"/>
      <point x="233.66363636363639" y="60.07878787878788"/>
      <point x="233.66363636363639" y="315.42424242424244" type="curve" smooth="yes"/>
      <point x="233.66363636363639" y="569.1393939393939"/>
      <point x="171.79090909090914" y="696.9030303030304"/>
      <point x="56.224242424242426" y="747.5212121212121" type="curve"/>
      <point x="56.224242424242426" y="717.1969696969697" type="line"/>
      <point x="154.96363636363634" y="666.6999999999999"/>
      <point x="191.3" y="507.5151515151515"/>
      <point x="191.3" y="315.42424242424244" type="curve" smooth="yes"/>
      <point x="191.3" y="123.33333333333334"/>
      <point x="154.25454545454542" y="-34.25757575757575"/>
      <point x="56.224242424242426" y="-86.86060606060606" type="curve"/>
    </contour>
  </outline>
</glyph>
<glyph name="asterisk" format="2">
  <advance width="375.58181818181816"/>
  <unicode hex="002A"/>
  <outline>
    <contour>
      <point x="161.71212121212125" y="379.6121212121212" type="line"/>
      <point x="211.33636363636364" y="379.6121212121212" type="line"/>
      <point x="195.72424242424242" y="548.8454545454546" type="line"/>
      <point x="314.56060606060606" y="461.1515151515151" type="line"/>
      <point x="333.8090909090909" y="509.96666666666664" type="line"/>
      <point x="200.44545454545457" y="569.8060606060607" type="line"/>
      <point x="333.8090909090909" y="629.709090909091" type="line"/>
      <point x="314.56060606060606" y="679.169696969697" type="line"/>
      <point x="195.72424242424242" y="590.9151515151515" type="line"/>
      <point x="210.8" y="760.0" type="line"/>
      <point x="161.71212121212125" y="760.0" type="line"/>
      <point x="176.34848484848484" y="591.5545454545454" type="line"/>
      <point x="57.96060606060606" y="681.2333333333333" type="line"/>
      <point x="37.624242424242425" y="630.709090909091" type="line"/>
      <point x="170.75151515151515" y="569.8060606060607" type="line"/>
      <point x="37.624242424242425" y="508.96666666666664" type="line"/>
      <point x="57.96060606060606" y="459.1515151515151" type="line"/>
      <point x="176.04848484848483" y="548.2939393939395" type="line"/>
    </contour>
  </outline>
</glyph>
<glyph name="plus" format="2">
  <advance width="465.2"/>
  <unicode hex="002B"/>
  <outline>
    <contour>
      <point x="214.76969696969698" y="143.0" type="line"/>
      <point x="250.32121212121217" y="143.0" type="line"/>
      <point x="250.32121212121217" y="340.6454545454546" type="line"/>
      <point x="411.73939393939395" y="340.6454545454546" type="line"/>
      <point x="411.73939393939395" y="374.73333333333335" type="line"/>
      <point x="250.32121212121217" y="374.73333333333335" type="line"/>
      <point x="250.32121212121217" y="572.0" type="line"/>
      <point x="214.76969696969698" y="572.0" type="line"/>
      <point x="214.76969696969698" y="374.73333333333335" type="line"/>
      <point x="53.39696969696969" y="374.73333333333335" type="line"/>
      <point x="53.39696969696969" y="340.6454545454546" type="line"/>
      <point x="214.76969696969698" y="340.6454545454546" type="line"/>
    </contour>
  </outline>
</glyph>
<glyph name="comma" format="2">
  <advance width="198.5878787878788"/>
  <unicode hex="002C"/>
  <outline>
    <contour>
      <point x="39.81818181818183" y="-154.0" type="line"/>
      <point x="118.80303030303033" y="-124.15757575757577"/>
      <point x="148.86969696969697" y="-58.409090909090914"/>
      <point x="148.86969696969697" y="6.278787878787881" type="curve" smooth="yes"/>
      <point x="148.86969696969697" y="61.63030303030303"/>
      <point x="124.40606060606062" y="82.77878787878787"/>
      <point x="97.82727272727273" y="82.77878787878787" type="curve" smooth="yes"/>
      <point x="77.66060606060607" y="82.77878787878787"/>
      <point x="63.82727272727273" y="69.33333333333333"/>
      <point x="63.82727272727273" y="49.61515151515152" type="curve" smooth="yes"/>
      <point x="63.82727272727273" y="14.963636363636365"/>
      <point x="111.2939393939394" y="9.727272727272727"/>
      <point x="111.2939393939394" y="-26.754545454545458" type="curve" smooth="yes"/>
      <point x="111.2939393939394" y="-61.0"/>
      <point x="90.50303030303033" y="-108.16969696969696"/>
      <point x="39.81818181818183" y="-126.27272727272728" type="curve"/>
    </contour>
  </outline>
</glyph>
<glyph name="hyphen" format="2">
  <advance width="259.6848484848485"/>
  <unicode hex="002D"/>
  <outline>
    <contour>
      <point x="21.436363636363637" y="254.18484848484852" type="line"/>
      <point x="238.1848484848485" y="254.18484848484852" type="line"/>
      <point x="238.1848484848485" y="291.60303030303027" type="line"/>
      <point x="21.436363636363637" y="291.60303030303027" type="line"/>
    </contour>
  </outline>
</glyph>
<glyph name="period" format="2">
  <advance width="192.84242424242422"/>
  <unicode hex="002E"/>
  <outline>
    <contour>
      <point x="105.33636363636363" y="-5.975757575757576" type="curve" smooth="yes"/>
      <point x="122.88484848484849" y="-5.975757575757576"/>
      <point x="138.4090909090909" y="4.912121212121212"/>
      <point x="138.4090909090909" y="38.3939393939394" type="curve" smooth="yes"/>
      <point x="138.4090909090909" y="72.12727272727273"/>
      <point x="122.88484848484849" y="82.77878787878787"/>
      <point x="105.33636363636363" y="82.77878787878787" type="curve" smooth="yes"/>
      <point x="86.0090909090909" y="82.77878787878787"/>
      <point x="70.39696969696969" y="72.12727272727273"/>
      <point x="70.39696969696969" y="38.3939393939394" type="curve" smooth="yes"/>
      <point x="70.39696969696969" y="4.912121212121212"/>
      <point x="86.0090909090909" y="-5.975757575757576"/>
    </contour>
  </outline>
</glyph>
<glyph name="slash" format="2">
  <advance width="241.03636363636363"/>
  <unicode hex="002F"/>
  <outline>
    <contour>
      <point x="0.0" y="-121.0" type="line"/>
      <point x="33.836363636363636" y="-120.85151515151514" type="line"/>
      <point x="241.03636363636363" y="760.0" type="line"/>
      <point x="207.5606060606061" y="760.0" type="line"/>
    </contour>
  </outline>
</glyph>
<glyph name="zero" format="2">
  <advance width="467.72424242424245"/>
  <unicode hex="0030"/>
  <outline>
    <contour>
      <point x="233.73636363636362" y="-10.0" type="curve" smooth="yes"/>
      <point x="356.93636363636364" y="-10.0"/>
      <point x="421.6" y="111.66060606060606"/>
      <point x="421.6" y="358.0" type="curve" smooth="yes"/>
      <point x="421.6" y="599.7272727272726"/>
      <point x="360.45454545454544" y="724.0"/>
      <point x="234.73636363636362" y="724.0" type="curve" smooth="yes"/>
      <point x="100.10303030303031" y="724.0"/>
      <point x="45.42424242424243" y="592.3757575757576"/>
      <point x="45.42424242424243" y="359.0" type="curve" smooth="yes"/>
      <point x="45.42424242424243" y="114.13939393939393"/>
      <point x="104.88181818181818" y="-10.0"/>
    </contour>
    <contour>
      <point x="233.49999999999997" y="20.55757575757576" type="curve" smooth="yes"/>
      <point x="129.5151515151515" y="20.55757575757576"/>
      <point x="87.61515151515152" y="139.85757575757577"/>
      <point x="87.61515151515152" y="358.0" type="curve" smooth="yes"/>
      <point x="87.61515151515152" y="572.1242424242425"/>
      <point x="127.15151515151516" y="693.4424242424242"/>
      <point x="234.49999999999997" y="693.4424242424242" type="curve" smooth="yes"/>
      <point x="339.139393939394" y="693.4424242424242"/>
      <point x="379.70606060606065" y="573.778787878788"/>
      <point x="379.70606060606065" y="358.0" type="curve" smooth="yes"/>
      <point x="379.70606060606065" y="141.74848484848485"/>
      <point x="337.72121212121215" y="20.55757575757576"/>
    </contour>
  </outline>
</glyph>
<glyph name="one" format="2">
  <advance width="467.72424242424245"/>
  <unicode hex="0031"/>
  <outline>
    <contour>
      <point x="95.05151515151516" y="0.0" type="line"/>
      <point x="396.7666666666667" y="0.0" type="line"/>
      <point x="396.7666666666667" y="24.990909090909092" type="line"/>
      <point x="329.3515151515152" y="24.990909090909092" type="line" smooth="yes"/>
      <point x="282.2575757575758" y="24.990909090909092"/>
      <point x="270.06363636363636" y="34.69090909090909"/>
      <point x="270.06363636363636" y="107.46969696969697" type="curve" smooth="yes"/>
      <point x="270.06363636363636" y="718.0" type="line"/>
      <point x="243.16969696969696" y="718.0" type="line"/>
      <point x="198.95454545454544" y="669.9303030303031" type="line" smooth="yes"/>
      <point x="148.75151515151515" y="614.4606060606061"/>
      <point x="109.08181818181819" y="594.4121212121212"/>
      <point x="66.72424242424242" y="585.5939393939394" type="curve"/>
      <point x="66.72424242424242" y="570.839393939394"/>
      <point x="79.64545454545456" y="561.1818181818182"/>
      <point x="97.34545454545456" y="561.1818181818182" type="curve" smooth="yes"/>
      <point x="139.86969696969695" y="561.1818181818182"/>
      <point x="178.71212121212122" y="599.7939393939394"/>
      <point x="228.95454545454547" y="663.6515151515152" type="curve"/>
      <point x="228.95454545454547" y="107.46969696969697" type="line" smooth="yes"/>
      <point x="228.95454545454547" y="34.24545454545454"/>
      <point x="216.76060606060605" y="24.990909090909092"/>
      <point x="169.66666666666669" y="24.990909090909092" type="curve" smooth="yes"/>
      <point x="95.05151515151516" y="24.990909090909092" type="line"/>
    </contour>
  </outline>
</glyph>
<glyph name="two" format="2">
  <advance width="467.72424242424245"/>
  <unicode hex="0032"/>
  <outline>
    <contour>
      <point x="48.21818181818182" y="0.0" type="line"/>
      <point x="397.6424242424243" y="0.0" type="line"/>
      <point x="400.69090909090914" y="138.51818181818183" type="line"/>
      <point x="376.469696969697" y="138.51818181818183" type="line"/>
      <point x="374.59696969696967" y="107.68484848484847" type="line" smooth="yes"/>
      <point x="371.42727272727274" y="56.86060606060606"/>
      <point x="363.66666666666663" y="37.875757575757575"/>
      <point x="311.7939393939394" y="37.875757575757575" type="curve" smooth="yes"/>
      <point x="88.94545454545455" y="37.875757575757575" type="line"/>
      <point x="251.3909090909091" y="270.3818181818182" type="line" smooth="yes"/>
      <point x="329.330303030303" y="377.8939393939394"/>
      <point x="376.8878787878788" y="450.3575757575758"/>
      <point x="376.8878787878788" y="553.3242424242424" type="curve" smooth="yes"/>
      <point x="376.8878787878788" y="649.1242424242424"/>
      <point x="323.56363636363636" y="724.0"/>
      <point x="217.8757575757576" y="724.0" type="curve" smooth="yes"/>
      <point x="112.25151515151516" y="724.0"/>
      <point x="65.07575757575758" y="653.4575757575757"/>
      <point x="65.07575757575758" y="600.1969696969697" type="curve" smooth="yes"/>
      <point x="65.07575757575758" y="568.4121212121213"/>
      <point x="80.07878787878789" y="555.9181818181819"/>
      <point x="99.80606060606061" y="555.9181818181819" type="curve"/>
      <point x="99.80606060606061" y="634.2363636363636"/>
      <point x="134.66060606060609" y="693.8454545454547"/>
      <point x="217.8757575757576" y="693.8454545454547" type="curve" smooth="yes"/>
      <point x="302.6757575757576" y="693.8454545454547"/>
      <point x="334.8878787878788" y="629.3727272727274"/>
      <point x="334.8878787878788" y="548.1212121212122" type="curve" smooth="yes"/>
      <point x="334.8878787878788" y="458.93939393939394"/>
      <point x="299.20000000000005" y="391.5242424242424"/>
      <point x="213.11818181818182" y="269.75757575757575" type="curve" smooth="yes"/>
      <point x="48.21818181818182" y="31.92727272727273" type="line"/>
    </contour>
  </outline>
</glyph>
<glyph name="three" format="2">
  <advance width="467.72424242424245"/>
  <unicode hex="0033"/>
  <outline>
    <contour>
      <point x="214.43939393939394" y="-9.212121212121213" type="curve" smooth="yes"/>
      <point x="314.73030303030305" y="-9.212121212121213"/>
      <point x="401.45454545454544" y="57.57575757575758"/>
      <point x="401.45454545454544" y="191.3090909090909" type="curve" smooth="yes"/>
      <point x="401.45454545454544" y="323.5909090909091"/>
      <point x="322.4909090909091" y="369.9727272727273"/>
      <point x="244.56666666666666" y="376.61515151515147" type="curve"/>
      <point x="321.3333333333333" y="393.1090909090909"/>
      <point x="380.5060606060606" y="463.1575757575758"/>
      <point x="380.5060606060606" y="559.7757575757576" type="curve" smooth="yes"/>
      <point x="380.5060606060606" y="661.9909090909091"/>
      <point x="319.90909090909093" y="724.0"/>
      <point x="226.57878787878786" y="724.0" type="curve" smooth="yes"/>
      <point x="129.38484848484848" y="724.0"/>
      <point x="74.8909090909091" y="664.5060606060606"/>
      <point x="74.8909090909091" y="595.1121212121212" type="curve" smooth="yes"/>
      <point x="74.8909090909091" y="563.8242424242424"/>
      <point x="89.93030303030302" y="551.8818181818182"/>
      <point x="107.45151515151515" y="551.8818181818182" type="curve"/>
      <point x="107.68787878787879" y="635.4515151515151"/>
      <point x="141.46363636363637" y="693.8454545454547"/>
      <point x="225.30303030303034" y="693.8454545454547" type="curve" smooth="yes"/>
      <point x="299.360606060606" y="693.8454545454547"/>
      <point x="338.52727272727276" y="644.2212121212121"/>
      <point x="338.52727272727276" y="557.1696969696969" type="curve" smooth="yes"/>
      <point x="338.52727272727276" y="450.9909090909091"/>
      <point x="272.4848484848485" y="388.6969696969697"/>
      <point x="185.73939393939395" y="388.6969696969697" type="curve"/>
      <point x="161.91818181818184" y="388.6969696969697" type="line"/>
      <point x="161.91818181818184" y="358.7757575757576" type="line"/>
      <point x="186.06363636363636" y="358.7757575757576" type="line" smooth="yes"/>
      <point x="303.2454545454545" y="358.7757575757576"/>
      <point x="359.4121212121212" y="299.06666666666666"/>
      <point x="359.4121212121212" y="192.3090909090909" type="curve" smooth="yes"/>
      <point x="359.4121212121212" y="83.42424242424242"/>
      <point x="300.25151515151515" y="21.642424242424244"/>
      <point x="213.8818181818182" y="21.642424242424244" type="curve" smooth="yes"/>
      <point x="128.49090909090907" y="21.642424242424244"/>
      <point x="85.94545454545454" y="67.1"/>
      <point x="85.94545454545454" y="142.15151515151516" type="curve"/>
      <point x="67.01212121212122" y="142.15151515151516"/>
      <point x="55.11818181818181" y="125.79393939393938"/>
      <point x="55.11818181818181" y="99.73030303030303" type="curve" smooth="yes"/>
      <point x="55.11818181818181" y="43.269696969696966"/>
      <point x="107.85757575757576" y="-9.212121212121213"/>
    </contour>
  </outline>
</glyph>
<glyph name="four" format="2">
  <advance width="467.72424242424245"/>
  <unicode hex="0034"/>
  <outline>
    <contour>
      <point x="207.26060606060605" y="0.0" type="line"/>
      <point x="421.3757575757576" y="0.0" type="line"/>
      <point x="421.3757575757576" y="24.51818181818182" type="line"/>
      <point x="402.6757575757576" y="24.51818181818182" type="line" smooth="yes"/>
      <point x="352.71818181818185" y="24.51818181818182"/>
      <point x="340.22727272727275" y="33.990909090909085"/>
      <point x="340.22727272727275" y="105.26363636363637" type="curve" smooth="yes"/>
      <point x="340.22727272727275" y="205.60303030303027" type="line"/>
      <point x="455.60606060606057" y="205.60303030303027" type="line"/>
      <point x="455.60606060606057" y="237.03030303030303" type="line"/>
      <point x="340.22727272727275" y="237.03030303030303" type="line"/>
      <point x="340.22727272727275" y="714.0" type="line"/>
      <point x="299.3515151515151" y="714.0" type="line"/>
      <point x="17.35151515151515" y="227.94848484848487" type="line"/>
      <point x="17.35151515151515" y="205.60303030303027" type="line"/>
      <point x="300.3727272727273" y="205.60303030303027" type="line"/>
      <point x="300.3727272727273" y="105.26363636363637" type="line" smooth="yes"/>
      <point x="300.3727272727273" y="33.990909090909085"/>
      <point x="288.030303030303" y="24.51818181818182"/>
      <point x="238.47575757575757" y="24.51818181818182" type="curve" smooth="yes"/>
      <point x="207.26060606060605" y="24.51818181818182" type="line"/>
    </contour>
    <contour>
      <point x="55.915151515151514" y="237.03030303030303" type="line"/>
      <point x="212.26363636363635" y="506.18787878787873" type="line" smooth="yes"/>
      <point x="238.03939393939393" y="549.8454545454546"/>
      <point x="293.04242424242426" y="648.7"/>
      <point x="303.1363636363637" y="672.1878787878787" type="curve"/>
      <point x="300.8848484848485" y="609.0848484848484"/>
      <point x="300.3727272727273" y="502.8424242424242"/>
      <point x="300.3727272727273" y="444.8424242424242" type="curve" smooth="yes"/>
      <point x="300.3727272727273" y="237.03030303030303" type="line"/>
    </contour>
  </outline>
</glyph>
<glyph name="five" format="2">
  <advance width="467.72424242424245"/>
  <unicode hex="0035"/>
  <outline>
    <contour>
      <point x="210.34848484848487" y="-10.0" type="curve" smooth="yes"/>
      <point x="324.7818181818182" y="-10.0"/>
      <point x="399.27878787878785" y="71.88787878787879"/>
      <point x="399.27878787878785" y="216.66060606060606" type="curve" smooth="yes"/>
      <point x="399.27878787878785" y="353.8090909090909"/>
      <point x="319.86363636363643" y="424.27272727272725"/>
      <point x="215.4393939393939" y="424.27272727272725" type="curve" smooth="yes"/>
      <point x="171.65454545454546" y="424.27272727272725"/>
      <point x="139.53636363636366" y="413.93333333333334"/>
      <point x="114.80909090909091" y="402.69696969696975" type="curve"/>
      <point x="135.48181818181817" y="675.4151515151516" type="line"/>
      <point x="293.6818181818182" y="675.4151515151516" type="line" smooth="yes"/>
      <point x="338.3727272727273" y="675.4151515151516"/>
      <point x="344.6333333333334" y="669.0242424242424"/>
      <point x="347.8" y="620.3939393939394" type="curve" smooth="yes"/>
      <point x="349.5848484848485" y="594.9606060606061" type="line"/>
      <point x="373.8060606060606" y="594.9606060606061" type="line"/>
      <point x="370.67878787878794" y="714.0" type="line"/>
      <point x="109.15151515151516" y="714.0" type="line"/>
      <point x="82.77878787878788" y="366.46666666666664" type="line"/>
      <point x="97.84242424242424" y="361.3848484848485" type="line"/>
      <point x="123.19393939393942" y="378.59999999999997"/>
      <point x="160.26363636363635" y="393.5030303030303"/>
      <point x="211.36060606060605" y="393.5030303030303" type="curve" smooth="yes"/>
      <point x="300.26060606060605" y="393.5030303030303"/>
      <point x="357.08787878787876" y="332.9272727272727"/>
      <point x="357.08787878787876" y="216.42424242424244" type="curve" smooth="yes"/>
      <point x="357.08787878787876" y="82.30909090909091"/>
      <point x="298.4818181818182" y="21.024242424242427"/>
      <point x="208.9030303030303" y="21.024242424242427" type="curve" smooth="yes"/>
      <point x="128.22121212121212" y="21.024242424242427"/>
      <point x="84.5060606060606" y="67.61212121212121"/>
      <point x="84.5060606060606" y="131.83333333333334" type="curve"/>
      <point x="66.14545454545456" y="131.83333333333334"/>
      <point x="54.50606060606061" y="119.0"/>
      <point x="54.50606060606061" y="90.26363636363637" type="curve" smooth="yes"/>
      <point x="54.50606060606061" y="51.154545454545456"/>
      <point x="99.65757575757574" y="-10.0"/>
    </contour>
  </outline>
</glyph>
<glyph name="six" format="2">
  <advance width="467.72424242424245"/>
  <unicode hex="0036"/>
  <outline>
    <contour>
      <point x="247.54242424242426" y="-10.0" type="curve" smooth="yes"/>
      <point x="341.7848484848485" y="-10.0"/>
      <point x="413.5242424242424" y="62.00000000000001"/>
      <point x="413.5242424242424" y="219.7030303030303" type="curve" smooth="yes"/>
      <point x="413.5242424242424" y="354.72424242424245"/>
      <point x="352.3424242424243" y="429.43939393939394"/>
      <point x="251.11515151515152" y="429.43939393939394" type="curve" smooth="yes"/>
      <point x="180.43030303030304" y="429.43939393939394"/>
      <point x="131.4090909090909" y="390.04848484848486"/>
      <point x="103.52727272727273" y="360.2030303030303" type="curve"/>
      <point x="103.86666666666667" y="598.1636363636363"/>
      <point x="162.46969696969697" y="694.2696969696971"/>
      <point x="264.99999999999994" y="694.2696969696971" type="curve" smooth="yes"/>
      <point x="334.07272727272726" y="694.2696969696971"/>
      <point x="362.660606060606" y="655.3727272727273"/>
      <point x="362.660606060606" y="581.9787878787879" type="curve"/>
      <point x="381.0515151515151" y="581.9787878787879"/>
      <point x="393.59090909090907" y="592.2666666666667"/>
      <point x="393.59090909090907" y="623.4909090909091" type="curve" smooth="yes"/>
      <point x="393.59090909090907" y="677.7272727272727"/>
      <point x="353.1484848484849" y="724.0"/>
      <point x="266.23333333333335" y="724.0" type="curve" smooth="yes"/>
      <point x="139.41818181818184" y="724.0"/>
      <point x="61.69696969696969" y="620.2242424242423"/>
      <point x="61.69696969696969" y="340.24848484848485" type="curve" smooth="yes"/>
      <point x="61.69696969696969" y="95.97575757575757"/>
      <point x="133.38181818181818" y="-10.0"/>
    </contour>
    <contour>
      <point x="249.29090909090908" y="20.62121212121212" type="curve" smooth="yes"/>
      <point x="155.40909090909093" y="20.62121212121212"/>
      <point x="105.78787878787878" y="117.9151515151515"/>
      <point x="103.31515151515151" y="320.8848484848485" type="curve"/>
      <point x="129.9939393939394" y="353.40303030303033"/>
      <point x="176.61818181818182" y="399.369696969697"/>
      <point x="247.16969696969696" y="399.369696969697" type="curve" smooth="yes"/>
      <point x="331.44242424242424" y="399.369696969697"/>
      <point x="372.0545454545455" y="337.0878787878788"/>
      <point x="372.0545454545455" y="218.36969696969695" type="curve" smooth="yes"/>
      <point x="372.0545454545455" y="86.20909090909092"/>
      <point x="326.9060606060606" y="20.62121212121212"/>
    </contour>
  </outline>
</glyph>
<glyph name="seven" format="2">
  <advance width="467.72424242424245"/>
  <unicode hex="0037"/>
  <outline>
    <contour>
      <point x="154.8090909090909" y="0.0" type="line"/>
      <point x="192.42424242424244" y="0.0" type="line"/>
      <point x="417.3575757575758" y="690.8121212121212" type="line"/>
      <point x="417.3575757575758" y="714.0" type="line"/>
      <point x="54.393939393939384" y="714.0" type="line"/>
      <point x="49.709090909090904" y="562.5969696969697" type="line"/>
      <point x="74.37575757575759" y="562.5969696969697" type="line"/>
      <point x="77.82424242424243" y="620.739393939394" type="line" smooth="yes"/>
      <point x="80.82424242424243" y="667.6393939393939"/>
      <point x="91.37878787878788" y="675.4151515151516"/>
      <point x="125.7878787878788" y="675.4151515151516" type="curve" smooth="yes"/>
      <point x="378.95757575757574" y="675.4151515151516" type="line"/>
    </contour>
  </outline>
</glyph>
<glyph name="eight" format="2">
  <advance width="467.72424242424245"/>
  <unicode hex="0038"/>
  <outline>
    <contour>
      <point x="234.10606060606062" y="-10.0" type="curve" smooth="yes"/>
      <point x="341.04545454545456" y="-10.0"/>
      <point x="416.32727272727277" y="55.13333333333333"/>
      <point x="416.32727272727277" y="172.20909090909092" type="curve" smooth="yes"/>
      <point x="416.32727272727277" y="277.24545454545455"/>
      <point x="366.6727272727273" y="325.8454545454545"/>
      <point x="273.7757575757576" y="375.3151515151515" type="curve"/>
      <point x="351.2272727272728" y="412.12121212121207"/>
      <point x="396.04848484848486" y="464.06060606060606"/>
      <point x="396.04848484848486" y="557.4606060606061" type="curve" smooth="yes"/>
      <point x="396.04848484848486" y="651.5787878787879"/>
      <point x="338.969696969697" y="724.0"/>
      <point x="236.39090909090913" y="724.0" type="curve" smooth="yes"/>
      <point x="131.70000000000002" y="724.0"/>
      <point x="72.06969696969698" y="650.6272727272726"/>
      <point x="72.06969696969698" y="552.8515151515152" type="curve" smooth="yes"/>
      <point x="72.06969696969698" y="465.5878787878788"/>
      <point x="124.13636363636363" y="412.06363636363636"/>
      <point x="200.36060606060607" y="373.77272727272725" type="curve"/>
      <point x="108.91515151515152" y="334.8696969696969"/>
      <point x="52.24545454545454" y="272.9515151515152"/>
      <point x="52.24545454545454" y="171.33333333333334" type="curve" smooth="yes"/>
      <point x="52.24545454545454" y="62.218181818181826"/>
      <point x="116.87272727272727" y="-10.0"/>
    </contour>
    <contour>
      <point x="234.95757575757574" y="19.9" type="curve" smooth="yes"/>
      <point x="141.17878787878786" y="19.9"/>
      <point x="92.65454545454546" y="78.31818181818183"/>
      <point x="92.65454545454546" y="170.97272727272727" type="curve" smooth="yes"/>
      <point x="92.65454545454546" y="252.74848484848485"/>
      <point x="132.93030303030304" y="318.7848484848485"/>
      <point x="230.96969696969697" y="357.5030303030303" type="curve"/>
      <point x="341.6939393939394" y="303.48181818181826"/>
      <point x="375.8545454545455" y="251.02424242424243"/>
      <point x="375.8545454545455" y="168.07272727272726" type="curve" smooth="yes"/>
      <point x="375.8545454545455" y="71.73636363636363"/>
      <point x="318.1666666666667" y="19.9"/>
    </contour>
    <contour>
      <point x="243.04242424242426" y="390.8393939393939" type="curve"/>
      <point x="157.15151515151516" y="432.469696969697"/>
      <point x="112.5848484848485" y="472.9030303030303"/>
      <point x="112.5848484848485" y="558.7060606060606" type="curve" smooth="yes"/>
      <point x="112.5848484848485" y="639.4454545454546"/>
      <point x="159.12121212121212" y="694.0363636363637"/>
      <point x="235.94848484848487" y="694.0363636363637" type="curve" smooth="yes"/>
      <point x="322.7575757575758" y="694.0363636363637"/>
      <point x="356.8909090909091" y="625.8454545454546"/>
      <point x="356.8909090909091" y="557.290909090909" type="curve" smooth="yes"/>
      <point x="356.8909090909091" y="474.45757575757574"/>
      <point x="329.6242424242424" y="431.3060606060606"/>
    </contour>
  </outline>
</glyph>
<glyph name="nine" format="2">
  <advance width="467.72424242424245"/>
  <unicode hex="0039"/>
  <outline>
    <contour>
      <point x="192.9969696969697" y="-12.103030303030303" type="curve"/>
      <point x="339.2909090909091" y="-12.103030303030303"/>
      <point x="405.6242424242424" y="112.43939393939392"/>
      <point x="405.6242424242424" y="388.0" type="curve" smooth="yes"/>
      <point x="405.6242424242424" y="627.2272727272727"/>
      <point x="327.8151515151515" y="724.0"/>
      <point x="218.49090909090913" y="724.0" type="curve" smooth="yes"/>
      <point x="111.36666666666669" y="724.0"/>
      <point x="53.64848484848484" y="632.8545454545455"/>
      <point x="53.64848484848484" y="485.9818181818182" type="curve" smooth="yes"/>
      <point x="53.64848484848484" y="356.0757575757576"/>
      <point x="117.3030303030303" y="284.2424242424242"/>
      <point x="221.3181818181818" y="284.2424242424242" type="curve" smooth="yes"/>
      <point x="296.8909090909091" y="284.2424242424242"/>
      <point x="344.5424242424242" y="330.21515151515155"/>
      <point x="363.94242424242424" y="354.8606060606061" type="curve"/>
      <point x="359.44545454545454" y="126.09393939393942"/>
      <point x="308.5242424242424" y="19.112121212121213"/>
      <point x="196.54242424242423" y="19.112121212121213" type="curve" smooth="yes"/>
      <point x="139.63333333333335" y="19.112121212121213"/>
      <point x="109.26969696969697" y="51.306060606060605"/>
      <point x="93.99090909090908" y="88.82424242424243" type="curve"/>
      <point x="85.33939393939394" y="85.1030303030303"/>
      <point x="80.53636363636363" y="75.62121212121211"/>
      <point x="80.53636363636363" y="59.68181818181818" type="curve" smooth="yes"/>
      <point x="80.53636363636363" y="25.542424242424243"/>
      <point x="117.26363636363637" y="-12.103030303030303"/>
    </contour>
    <contour>
      <point x="225.03939393939396" y="314.969696969697" type="curve" smooth="yes"/>
      <point x="139.39393939393938" y="315.41515151515154"/>
      <point x="95.33030303030304" y="374.7939393939394"/>
      <point x="95.33030303030304" y="489.41818181818184" type="curve" smooth="yes"/>
      <point x="95.33030303030304" y="613.0181818181818"/>
      <point x="131.63333333333333" y="693.3787878787879"/>
      <point x="219.0848484848485" y="693.3787878787879" type="curve" smooth="yes"/>
      <point x="310.4818181818182" y="693.3787878787879"/>
      <point x="363.66666666666663" y="597.569696969697"/>
      <point x="364.3030303030303" y="396.55151515151516" type="curve"/>
      <point x="335.09696969696967" y="354.8242424242424"/>
      <point x="295.26060606060605" y="315.41515151515154"/>
    </contour>
  </outline>
</glyph>
<glyph name="colon" format="2">
  <advance width="193.24545454545455"/>
  <unicode hex="003A"/>
  <outline>
    <contour>
      <point x="105.18787878787877" y="426.1909090909091" type="curve" smooth="yes"/>
      <point x="122.73636363636363" y="426.1909090909091"/>
      <point x="138.8121212121212" y="436.3787878787879"/>
      <point x="138.8121212121212" y="470.3484848484848" type="curve" smooth="yes"/>
      <point x="138.8121212121212" y="504.1454545454546"/>
      <point x="122.73636363636363" y="514.0333333333334"/>
      <point x="105.18787878787877" y="514.0333333333334" type="curve" smooth="yes"/>
      <point x="85.86060606060606" y="514.0333333333334"/>
      <point x="70.39696969696969" y="504.1454545454546"/>
      <point x="70.39696969696969" y="470.3484848484848" type="curve" smooth="yes"/>
      <point x="70.39696969696969" y="436.3787878787879"/>
      <point x="85.86060606060606" y="426.1909090909091"/>
    </contour>
    <contour>
      <point x="105.18787878787877" y="-5.424242424242424" type="curve" smooth="yes"/>
      <point x="122.73636363636363" y="-5.424242424242424"/>
      <point x="138.8121212121212" y="4.912121212121212"/>
      <point x="138.8121212121212" y="38.94545454545455" type="curve" smooth="yes"/>
      <point x="138.8121212121212" y="72.67878787878787"/>
      <point x="122.73636363636363" y="82.77878787878787"/>
      <point x="105.18787878787877" y="82.77878787878787" type="curve" smooth="yes"/>
      <point x="85.86060606060606" y="82.77878787878787"/>
      <point x="70.39696969696969" y="72.67878787878787"/>
      <point x="70.39696969696969" y="38.94545454545455" type="curve" smooth="yes"/>
      <point x="70.39696969696969" y="4.912121212121212"/>
      <point x="85.86060606060606" y="-5.424242424242424"/>
    </contour>
  </outline>
</glyph>
<glyph name="semicolon" format="2">
  <advance width="212.23333333333332"/>
  <unicode hex="003B"/>
  <outline>
    <contour>
      <point x="39.81818181818183" y="-154.0" type="line"/>
      <point x="118.95151515151517" y="-124.15757575757577"/>
      <point x="149.01818181818183" y="-58.409090909090914"/>
      <point x="149.01818181818183" y="6.278787878787881" type="curve" smooth="yes"/>
      <point x="149.01818181818183" y="61.63030303030303"/>
      <point x="124.31818181818181" y="82.77878787878787"/>
      <point x="97.76363636363638" y="82.77878787878787" type="curve" smooth="yes"/>
      <point x="77.80909090909093" y="82.77878787878787"/>
      <point x="63.97575757575756" y="69.33333333333333"/>
      <point x="63.97575757575756" y="49.61515151515152" type="curve" smooth="yes"/>
      <point x="63.97575757575756" y="14.963636363636365"/>
      <point x="111.5909090909091" y="9.727272727272727"/>
      <point x="111.5909090909091" y="-26.754545454545458" type="curve"/>
      <point x="111.5909090909091" y="-61.14848484848485"/>
      <point x="90.73636363636365" y="-108.16969696969696"/>
      <point x="39.81818181818183" y="-126.27272727272728" type="curve"/>
    </contour>
    <contour>
      <point x="105.44242424242427" y="426.1909090909091" type="curve" smooth="yes"/>
      <point x="123.69090909090907" y="426.1909090909091"/>
      <point x="139.13030303030303" y="436.3787878787879"/>
      <point x="139.13030303030303" y="470.3484848484848" type="curve" smooth="yes"/>
      <point x="139.13030303030303" y="504.1454545454546"/>
      <point x="123.69090909090907" y="514.0333333333334"/>
      <point x="105.44242424242427" y="514.0333333333334" type="curve" smooth="yes"/>
      <point x="86.11515151515151" y="514.0333333333334"/>
      <point x="70.71515151515152" y="504.1454545454546"/>
      <point x="70.71515151515152" y="470.3484848484848" type="curve" smooth="yes"/>
      <point x="70.71515151515152" y="436.3787878787879"/>
      <point x="86.11515151515151" y="426.1909090909091"/>
    </contour>
  </outline>
</glyph>
<glyph name="less" format="2">
  <advance width="465.2"/>
  <unicode hex="003C"/>
  <outline>
    <contour>
      <point x="411.73939393939395" y="115.96363636363637" type="line"/>
      <point x="411.73939393939395" y="156.95454545454547" type="line"/>
      <point x="94.46969696969697" y="357.0" type="line"/>
      <point x="411.73939393939395" y="559.1939393939394" type="line"/>
      <point x="411.73939393939395" y="600.0363636363636" type="line"/>
      <point x="53.46060606060606" y="371.8484848484849" type="line"/>
      <point x="53.46060606060606" y="343.1515151515151" type="line"/>
    </contour>
  </outline>
</glyph>
<glyph name="equal" format="2">
  <advance width="463.54545454545456"/>
  <unicode hex="003D"/>
  <outline>
    <contour>
      <point x="53.93333333333334" y="440.9666666666667" type="line"/>
      <point x="409.139393939394" y="440.9666666666667" type="line"/>
      <point x="409.139393939394" y="475.2030303030303" type="line"/>
      <point x="53.93333333333334" y="475.2030303030303" type="line"/>
    </contour>
    <contour>
      <point x="53.93333333333334" y="239.28484848484848" type="line"/>
      <point x="409.139393939394" y="239.28484848484848" type="line"/>
      <point x="409.139393939394" y="273.58484848484846" type="line"/>
      <point x="53.93333333333334" y="273.58484848484846" type="line"/>
    </contour>
  </outline>
</glyph>
<glyph name="greater" format="2">
  <advance width="465.2"/>
  <unicode hex="003E"/>
  <outline>
    <contour>
      <point x="53.46060606060606" y="115.96363636363637" type="line"/>
      <point x="411.73939393939395" y="343.1515151515151" type="line"/>
      <point x="411.73939393939395" y="371.8484848484849" type="line"/>
      <point x="53.46060606060606" y="600.0363636363636" type="line"/>
      <point x="53.46060606060606" y="559.1939393939394" type="line"/>
      <point x="369.6363636363636" y="357.0" type="line"/>
      <point x="53.46060606060606" y="156.95454545454547" type="line"/>
    </contour>
  </outline>
</glyph>
<glyph name="question" format="2">
  <advance width="383.75454545454545"/>
  <unicode hex="003F"/>
  <outline>
    <contour>
      <point x="161.4909090909091" y="175.4" type="line"/>
      <point x="189.09090909090912" y="175.4" type="line"/>
      <point x="192.38787878787878" y="322.42727272727274" type="line"/>
      <point x="289.42424242424244" y="370.75757575757575"/>
      <point x="339.06060606060606" y="438.0939393939394"/>
      <point x="339.06060606060606" y="550.4484848484848" type="curve" smooth="yes"/>
      <point x="339.06060606060606" y="659.6515151515152"/>
      <point x="276.7090909090909" y="724.0"/>
      <point x="181.64848484848486" y="724.0" type="curve" smooth="yes"/>
      <point x="78.08787878787878" y="724.0"/>
      <point x="36.37878787878788" y="660.8909090909091"/>
      <point x="36.37878787878788" y="611.7636363636364" type="curve" smooth="yes"/>
      <point x="36.37878787878788" y="579.1636363636364"/>
      <point x="51.01818181818182" y="565.2242424242426"/>
      <point x="69.57878787878788" y="565.2242424242426" type="curve"/>
      <point x="69.57878787878788" y="635.0454545454546"/>
      <point x="97.23333333333333" y="694.0575757575758"/>
      <point x="182.48181818181817" y="694.0575757575758" type="curve" smooth="yes"/>
      <point x="256.9939393939394" y="694.0575757575758"/>
      <point x="297.1454545454546" y="636.9606060606061"/>
      <point x="297.1454545454546" y="550.5757575757576" type="curve" smooth="yes"/>
      <point x="297.1454545454546" y="454.72424242424245"/>
      <point x="255.89696969696968" y="388.23636363636365"/>
      <point x="157.7909090909091" y="339.3545454545455" type="curve"/>
    </contour>
    <contour>
      <point x="175.43636363636364" y="-5.424242424242424" type="curve" smooth="yes"/>
      <point x="195.06363636363636" y="-5.424242424242424"/>
      <point x="211.26666666666665" y="4.9757575757575765"/>
      <point x="211.26666666666665" y="39.07272727272727" type="curve" smooth="yes"/>
      <point x="211.26666666666665" y="72.9969696969697"/>
      <point x="195.06363636363636" y="83.0969696969697"/>
      <point x="175.43636363636364" y="83.0969696969697" type="curve" smooth="yes"/>
      <point x="157.23333333333335" y="83.0969696969697"/>
      <point x="141.70606060606062" y="72.9969696969697"/>
      <point x="141.70606060606062" y="39.07272727272727" type="curve" smooth="yes"/>
      <point x="141.70606060606062" y="4.9757575757575765"/>
      <point x="157.23333333333335" y="-5.424242424242424"/>
    </contour>
  </outline>
</glyph>
<glyph name="bracketleft" format="2">
  <advance width="253.85454545454547"/>
  <unicode hex="005B"/>
  <outline>
    <contour>
      <point x="71.9939393939394" y="-128.0" type="line"/>
      <point x="221.5" y="-128.0" type="line"/>
      <point x="221.5" y="-103.6090909090909" type="line"/>
      <point x="171.86060606060607" y="-103.6090909090909" type="line" smooth="yes"/>
      <point x="124.40606060606062" y="-103.6090909090909"/>
      <point x="113.12424242424242" y="-93.03333333333333"/>
      <point x="113.12424242424242" y="-18.939393939393938" type="curve" smooth="yes"/>
      <point x="113.12424242424242" y="650.8757575757577" type="line" smooth="yes"/>
      <point x="113.12424242424242" y="725.0333333333332"/>
      <point x="124.40606060606062" y="735.6090909090908"/>
      <point x="171.86060606060607" y="735.6090909090908" type="curve" smooth="yes"/>
      <point x="221.5" y="735.6090909090908" type="line"/>
      <point x="221.5" y="760.0" type="line"/>
      <point x="71.9939393939394" y="760.0" type="line"/>
    </contour>
  </outline>
</glyph>
<glyph name="backslash" format="2">
  <advance width="241.03636363636363"/>
  <unicode hex="005C"/>
  <outline>
    <contour>
      <point x="207.34848484848487" y="-121.0" type="line"/>
      <point x="241.03636363636363" y="-121.0" type="line"/>
      <point x="33.624242424242425" y="760.0" type="line"/>
      <point x="0.0" y="760.0" type="line"/>
    </contour>
  </outline>
</glyph>
<glyph name="bracketright" format="2">
  <advance width="278.9454545454546"/>
  <unicode hex="005D"/>
  <outline>
    <contour>
      <point x="56.490909090909085" y="-128.0" type="line"/>
      <point x="205.78484848484848" y="-128.0" type="line"/>
      <point x="205.78484848484848" y="760.0" type="line"/>
      <point x="56.490909090909085" y="760.0" type="line"/>
      <point x="56.490909090909085" y="735.6090909090908" type="line"/>
      <point x="105.91818181818181" y="735.6090909090908" type="line" smooth="yes"/>
      <point x="153.58484848484846" y="735.6090909090908"/>
      <point x="164.71818181818185" y="725.0333333333332"/>
      <point x="164.71818181818185" y="650.8757575757577" type="curve" smooth="yes"/>
      <point x="164.71818181818185" y="-18.939393939393938" type="line" smooth="yes"/>
      <point x="164.71818181818185" y="-93.03333333333333"/>
      <point x="153.58484848484846" y="-103.6090909090909"/>
      <point x="105.91818181818181" y="-103.6090909090909" type="curve" smooth="yes"/>
      <point x="56.490909090909085" y="-103.6090909090909" type="line"/>
    </contour>
  </outline>
</glyph>
<glyph name="asciicircum" format="2">
  <advance width="464.5"/>
  <unicode hex="005E"/>
  <outline>
    <contour>
      <point x="43.233333333333334" y="270.3878787878788" type="line"/>
      <point x="80.44848484848484" y="270.3878787878788" type="line"/>
      <point x="231.1" y="659.8666666666667" type="line"/>
      <point x="383.60303030303027" y="270.3878787878788" type="line"/>
      <point x="420.90303030303033" y="270.3878787878788" type="line"/>
      <point x="243.86363636363635" y="714.0" type="line"/>
      <point x="218.3121212121212" y="714.0" type="line"/>
    </contour>
  </outline>
</glyph>
<glyph name="underscore" format="2">
  <advance width="382.82727272727277"/>
  <unicode hex="005F"/>
  <outline>
    <contour>
      <point x="-4.851515151515152" y="-115.02121212121212" type="line"/>
      <point x="387.67878787878783" y="-115.02121212121212" type="line"/>
      <point x="387.67878787878783" y="-83.0" type="line"/>
      <point x="-4.851515151515152" y="-83.0" type="line"/>
    </contour>
  </outline>
</glyph>
<glyph name="braceleft" format="2">
  <advance width="328.00000000000006"/>
  <unicode hex="007B"/>
  <outline>
    <contour>
      <point x="243.669696969697" y="-131.15151515151516" type="curve" smooth="yes"/>
      <point x="274.9" y="-131.15151515151516" type="line"/>
      <point x="274.9" y="-102.6090909090909" type="line"/>
      <point x="253.36363636363637" y="-102.6090909090909" type="line" smooth="yes"/>
      <point x="201.73030303030302" y="-102.6090909090909"/>
      <point x="179.70000000000002" y="-65.13636363636364"/>
      <point x="179.70000000000002" y="12.618181818181817" type="curve" smooth="yes"/>
      <point x="179.70000000000002" y="181.44242424242424" type="line" smooth="yes"/>
      <point x="179.70000000000002" y="259.55151515151516"/>
      <point x="147.94545454545454" y="304.369696969697"/>
      <point x="93.26969696969698" y="314.3212121212121" type="curve"/>
      <point x="93.26969696969698" y="316.10909090909087" type="line"/>
      <point x="147.58181818181816" y="325.6757575757576"/>
      <point x="179.70000000000002" y="371.769696969697"/>
      <point x="179.70000000000002" y="449.1939393939394" type="curve" smooth="yes"/>
      <point x="179.70000000000002" y="615.0575757575757" type="line" smooth="yes"/>
      <point x="179.70000000000002" y="694.4333333333333"/>
      <point x="201.73030303030302" y="731.4575757575757"/>
      <point x="254.6090909090909" y="731.4575757575757" type="curve" smooth="yes"/>
      <point x="274.9" y="731.4575757575757" type="line"/>
      <point x="274.9" y="760.0" type="line"/>
      <point x="242.5666666666667" y="760.0" type="line" smooth="yes"/>
      <point x="174.7060606060606" y="760.0"/>
      <point x="138.79999999999998" y="706.8181818181819"/>
      <point x="138.79999999999998" y="620.2151515151514" type="curve" smooth="yes"/>
      <point x="138.79999999999998" y="452.2969696969697" type="line" smooth="yes"/>
      <point x="138.79999999999998" y="356.6575757575757"/>
      <point x="95.43636363636364" y="332.55454545454546"/>
      <point x="37.51212121212121" y="327.7969696969697" type="curve"/>
      <point x="37.51212121212121" y="301.8848484848485" type="line"/>
      <point x="95.43636363636364" y="296.67878787878783"/>
      <point x="138.79999999999998" y="274.1272727272727"/>
      <point x="138.79999999999998" y="177.8909090909091" type="curve" smooth="yes"/>
      <point x="138.79999999999998" y="9.633333333333333" type="line" smooth="yes"/>
      <point x="138.79999999999998" y="-76.32424242424241"/>
      <point x="174.15454545454543" y="-131.15151515151516"/>
    </contour>
  </outline>
</glyph>
<glyph name="bar" format="2">
  <advance width="466.55757575757576"/>
  <unicode hex="007C"/>
  <outline>
    <contour>
      <point x="216.7" y="-240.0" type="line"/>
      <point x="250.02424242424243" y="-240.0" type="line"/>
      <point x="250.02424242424243" y="760.0" type="line"/>
      <point x="216.7" y="760.0" type="line"/>
    </contour>
  </outline>
</glyph>
<glyph name="braceright" format="2">
  <advance width="320.31515151515157"/>
  <unicode hex="007D"/>
  <outline>
    <contour>
      <point x="71.57272727272726" y="-131.15151515151516" type="line"/>
      <point x="103.01515151515152" y="-131.15151515151516" type="line" smooth="yes"/>
      <point x="172.2939393939394" y="-131.15151515151516"/>
      <point x="207.43636363636367" y="-76.32424242424241"/>
      <point x="207.43636363636367" y="9.633333333333333" type="curve" smooth="yes"/>
      <point x="207.43636363636367" y="177.8909090909091" type="line" smooth="yes"/>
      <point x="207.43636363636367" y="274.1272727272727"/>
      <point x="251.39696969696968" y="296.67878787878783"/>
      <point x="309.0242424242424" y="301.8848484848485" type="curve"/>
      <point x="309.0242424242424" y="327.7969696969697" type="line"/>
      <point x="251.39696969696968" y="332.55454545454546"/>
      <point x="207.43636363636367" y="356.6575757575757"/>
      <point x="207.43636363636367" y="452.2969696969697" type="curve" smooth="yes"/>
      <point x="207.43636363636367" y="620.2151515151514" type="line" smooth="yes"/>
      <point x="207.43636363636367" y="706.8181818181819"/>
      <point x="171.74242424242425" y="760.0"/>
      <point x="104.11818181818182" y="760.0" type="curve" smooth="yes"/>
      <point x="71.57272727272726" y="760.0" type="line"/>
      <point x="71.57272727272726" y="731.4575757575757" type="line"/>
      <point x="92.07575757575758" y="731.4575757575757" type="line" smooth="yes"/>
      <point x="145.10303030303027" y="731.4575757575757"/>
      <point x="166.83636363636364" y="694.4333333333333"/>
      <point x="166.83636363636364" y="615.0575757575757" type="curve" smooth="yes"/>
      <point x="166.83636363636364" y="449.1939393939394" type="line" smooth="yes"/>
      <point x="166.83636363636364" y="371.769696969697"/>
      <point x="199.10303030303032" y="325.6757575757576"/>
      <point x="253.3272727272727" y="316.10909090909087" type="curve"/>
      <point x="253.3272727272727" y="314.3212121212121" type="line"/>
      <point x="198.37878787878788" y="304.369696969697"/>
      <point x="166.83636363636364" y="259.55151515151516"/>
      <point x="166.83636363636364" y="181.44242424242424" type="curve" smooth="yes"/>
      <point x="166.83636363636364" y="12.618181818181817" type="line" smooth="yes"/>
      <point x="166.83636363636364" y="-65.13636363636364"/>
      <point x="145.10303030303027" y="-102.6090909090909"/>
      <point x="93.32121212121211" y="-102.6090909090909" type="curve" smooth="yes"/>
      <point x="71.57272727272726" y="-102.6090909090909" type="line"/>
    </contour>
  </outline>
</glyph>
<glyph name="asciitilde" format="2">
  <advance width="465.2"/>
  <unicode hex="007E"/>
  <outline>
    <contour>
      <point x="49.00303030303031" y="275.5151515151515" type="curve"/>
      <point x="82.96969696969698" y="275.5151515151515" type="line"/>
      <point x="94.05151515151516" y="355.3636363636363"/>
      <point x="105.65151515151516" y="404.3939393939394"/>
      <point x="145.82727272727274" y="404.3939393939394" type="curve" smooth="yes"/>
      <point x="173.73636363636362" y="404.3939393939394"/>
      <point x="191.81515151515154" y="382.01818181818186"/>
      <point x="223.77878787878788" y="341.3333333333333" type="curve" smooth="yes"/>
      <point x="259.11212121212117" y="296.4484848484849"/>
      <point x="284.6090909090909" y="276.06666666666666"/>
      <point x="319.8818181818181" y="276.06666666666666" type="curve" smooth="yes"/>
      <point x="392.43939393939394" y="276.06666666666666"/>
      <point x="407.9303030303031" y="370.6272727272727"/>
      <point x="416.3424242424243" y="437.08181818181816" type="curve"/>
      <point x="381.92727272727274" y="437.08181818181816" type="line"/>
      <point x="371.1030303030304" y="362.3424242424243"/>
      <point x="360.0" y="309.3060606060606"/>
      <point x="319.50000000000006" y="309.3060606060606" type="curve" smooth="yes"/>
      <point x="295.069696969697" y="309.3060606060606"/>
      <point x="276.2878787878788" y="327.5909090909091"/>
      <point x="243.58484848484846" y="369.26969696969695" type="curve" smooth="yes"/>
      <point x="208.9272727272727" y="412.6272727272728"/>
      <point x="184.03333333333333" y="437.6333333333333"/>
      <point x="145.38181818181818" y="437.6333333333333" type="curve" smooth="yes"/>
      <point x="71.52121212121212" y="437.6333333333333"/>
      <point x="58.36060606060607" y="344.90303030303033"/>
    </contour>
  </outline>
</glyph>
<glyph name="multiply" format="2">
  <advance width="465.13636363636357"/>
  <unicode hex="00D7"/>
  <outline>
    <contour>
      <point x="82.23939393939395" y="148.43030303030304" type="line"/>
      <point x="236.4060606060606" y="334.03030303030306" type="line"/>
      <point x="390.57272727272726" y="148.43030303030304" type="line"/>
      <point x="416.91515151515154" y="170.5909090909091" type="line"/>
      <point x="258.95151515151514" y="360.5212121212121" type="line"/>
      <point x="416.91515151515154" y="551.6424242424242" type="line"/>
      <point x="391.360606060606" y="573.4878787878788" type="line"/>
      <point x="236.4060606060606" y="387.6484848484848" type="line"/>
      <point x="81.83636363636364" y="573.3363636363636" type="line"/>
      <point x="56.13333333333333" y="551.5545454545455" type="line"/>
      <point x="214.24545454545455" y="360.5848484848485" type="line"/>
      <point x="56.36969696969696" y="170.74242424242422" type="line"/>
    </contour>
  </outline>
</glyph>
<glyph name="divide" format="2">
  <advance width="465.2"/>
  <unicode hex="00F7"/>
  <outline>
    <contour>
      <point x="53.46060606060606" y="340.6454545454546" type="line"/>
      <point x="411.73939393939395" y="340.6454545454546" type="line"/>
      <point x="411.73939393939395" y="374.73333333333335" type="line"/>
      <point x="53.46060606060606" y="374.73333333333335" type="line"/>
    </contour>
    <contour>
      <point x="233.1" y="131.14545454545456" type="curve" smooth="yes"/>
      <point x="253.0212121212121" y="131.14545454545456"/>
      <point x="268.3515151515152" y="141.12727272727273"/>
      <point x="268.3515151515152" y="172.38181818181818" type="curve" smooth="yes"/>
      <point x="268.3515151515152" y="205.42424242424244"/>
      <point x="253.0212121212121" y="214.95757575757574"/>
      <point x="233.1" y="214.95757575757574" type="curve" smooth="yes"/>
      <point x="212.1787878787879" y="214.95757575757574"/>
      <point x="198.25151515151518" y="205.42424242424244"/>
      <point x="198.25151515151518" y="172.38181818181818" type="curve" smooth="yes"/>
      <point x="198.25151515151518" y="141.12727272727273"/>
      <point x="212.1787878787879" y="131.14545454545456"/>
    </contour>
    <contour>
      <point x="233.1" y="502.31212121212116" type="curve" smooth="yes"/>
      <point x="253.0212121212121" y="502.31212121212116"/>
      <point x="268.3515151515152" y="512.230303030303"/>
      <point x="268.3515151515152" y="543.721212121212" type="curve" smooth="yes"/>
      <point x="268.3515151515152" y="576.5272727272727"/>
      <point x="253.0212121212121" y="586.0606060606061"/>
      <point x="233.1" y="586.0606060606061" type="curve" smooth="yes"/>
      <point x="212.1787878787879" y="586.0606060606061"/>
      <point x="198.25151515151518" y="576.5272727272727"/>
      <point x="198.25151515151518" y="543.721212121212" type="curve" smooth="yes"/>
      <point x="198.25151515151518" y="512.230303030303"/>
      <point x="212.1787878787879" y="502.31212121212116"/>
    </contour>
  </outline>
</glyph>
<glyph name="udatta-deva" format="2">
  <unicode hex="0951"/>
  <anchor x="-299.0" y="-238.73333333333335" name="_vedic"/>
  <outline>
    <contour>
      <point x="-313.4575757575758" y="706.0" type="line"/>
      <point x="-284.330303030303" y="706.0" type="line"/>
      <point x="-284.330303030303" y="911.7878787878788" type="line"/>
      <point x="-313.4575757575758" y="911.7878787878788" type="line"/>
    </contour>
  </outline>
</glyph>
<glyph name="anudatta-deva" format="2">
  <unicode hex="0952"/>
  <anchor x="-299.0" y="347.8484848484849" name="_vedic"/>
  <outline>
    <contour>
      <point x="-467.70000000000005" y="-130.6060606060606" type="line"/>
      <point x="-129.85151515151517" y="-130.6060606060606" type="line"/>
      <point x="-129.85151515151517" y="-103.81818181818181" type="line"/>
      <point x="-467.70000000000005" y="-103.81818181818181" type="line"/>
    </contour>
  </outline>
</glyph>
<glyph name="danda-deva" format="2">
  <advance width="377.3333333333333"/>
  <unicode hex="0964"/>
  <outline>
    <contour>
      <point x="292.3333333333333" y="-12.757575757575758" type="line"/>
      <point x="295.3333333333333" y="-11.757575757575758" type="line"/>
      <point x="295.3333333333333" y="592.8787878787879" type="line"/>
      <point x="268.75757575757575" y="614.1212121212121" type="line"/>
      <point x="265.75757575757575" y="614.1212121212121" type="line"/>
      <point x="265.75757575757575" y="3.4242424242424243" type="line"/>
    </contour>
  </outline>
</glyph>
<glyph name="dbldanda-deva" format="2">
  <advance width="502.24545454545466"/>
  <unicode hex="0965"/>
  <outline>
    <contour>
      <point x="417.2454545454546" y="-12.757575757575758" type="line"/>
      <point x="420.2454545454546" y="-11.757575757575758" type="line"/>
      <point x="420.2454545454546" y="592.8787878787879" type="line"/>
      <point x="393.669696969697" y="614.1212121212121" type="line"/>
      <point x="390.669696969697" y="614.1212121212121" type="line"/>
      <point x="390.669696969697" y="3.4242424242424243" type="line"/>
    </contour>
    <contour>
      <point x="292.3333333333333" y="-12.757575757575758" type="line"/>
      <point x="295.3333333333333" y="-11.757575757575758" type="line"/>
      <point x="295.3333333333333" y="592.8787878787879" type="line"/>
      <point x="268.75757575757575" y="614.1212121212121" type="line"/>
      <point x="265.75757575757575" y="614.1212121212121" type="line"/>
      <point x="265.75757575757575" y="3.4242424242424243" type="line"/>
    </contour>
  </outline>
</glyph>
<glyph name="anji-beng" format="2">
  <advance width="419.3515151515151"/>
  <unicode hex="0980"/>
  <anchor x="226.53636363636366" y="595.2121212121212" name="top"/>
  <outline>
    <contour>
      <point x="339.8212121212121" y="17.333333333333332" type="curve" smooth="yes"/>
      <point x="363.6666666666667" y="17.333333333333332"/>
      <point x="379.8151515151515" y="34.81515151515151"/>
      <point x="379.8151515151515" y="59.78484848484849" type="curve" smooth="yes"/>
      <point x="379.8151515151515" y="86.54545454545453"/>
      <point x="363.8575757575758" y="103.70606060606062"/>
      <point x="341.1575757575758" y="103.70606060606062" type="curve" smooth="yes"/>
      <point x="318.70909090909095" y="103.70606060606062"/>
      <point x="310.3484848484849" y="90.00909090909092"/>
      <point x="308.22121212121215" y="72.25151515151516" type="curve"/>
      <point x="320.939393939394" y="70.67575757575759" type="line"/>
      <point x="320.939393939394" y="501.3757575757576" type="line" smooth="yes"/>
      <point x="320.939393939394" y="572.2878787878788"/>
      <point x="287.8606060606061" y="625.1515151515151"/>
      <point x="216.45757575757577" y="625.1515151515151" type="curve" smooth="yes"/>
      <point x="128.46969696969697" y="625.1515151515151"/>
      <point x="56.63030303030303" y="544.3272727272728"/>
      <point x="56.63030303030303" y="434.5818181818182" type="curve" smooth="yes"/>
      <point x="56.63030303030303" y="340.5787878787879"/>
      <point x="105.99999999999999" y="279.1060606060606"/>
      <point x="172.88181818181818" y="279.1060606060606" type="curve" smooth="yes"/>
      <point x="212.73939393939395" y="279.1060606060606"/>
      <point x="233.4060606060606" y="302.6939393939394"/>
      <point x="233.4060606060606" y="339.45454545454544" type="curve" smooth="yes"/>
      <point x="233.4060606060606" y="372.1030303030303"/>
      <point x="214.5969696969697" y="393.71515151515155"/>
      <point x="185.63636363636365" y="393.71515151515155" type="curve" smooth="yes"/>
      <point x="158.5727272727273" y="393.71515151515155"/>
      <point x="139.63333333333333" y="372.59090909090907"/>
      <point x="139.63333333333333" y="342.5787878787879" type="curve" smooth="yes"/>
      <point x="139.63333333333333" y="324.4878787878788"/>
      <point x="146.1939393939394" y="310.59090909090907"/>
      <point x="152.8030303030303" y="303.360606060606" type="curve"/>
      <point x="173.5060606060606" y="318.07575757575756" type="line"/>
      <point x="166.71818181818182" y="314.8636363636364"/>
      <point x="160.48181818181817" y="313.8636363636364"/>
      <point x="154.4818181818182" y="313.8636363636364" type="curve" smooth="yes"/>
      <point x="119.57272727272728" y="313.8636363636364"/>
      <point x="87.20606060606059" y="356.44545454545454"/>
      <point x="87.20606060606059" y="422.3575757575758" type="curve" smooth="yes"/>
      <point x="87.20606060606059" y="524.439393939394"/>
      <point x="156.54242424242423" y="593.1757575757575"/>
      <point x="225.66060606060606" y="593.1757575757575" type="curve" smooth="yes"/>
      <point x="270.1333333333333" y="593.1757575757575"/>
      <point x="292.3606060606061" y="560.6999999999999"/>
      <point x="292.3606060606061" y="499.32121212121217" type="curve" smooth="yes"/>
      <point x="292.3606060606061" y="75.17878787878789" type="line" smooth="yes"/>
      <point x="292.3606060606061" y="39.57575757575758"/>
      <point x="311.8848484848485" y="17.333333333333332"/>
    </contour>
  </outline>
</glyph>
<glyph name="anusvara-beng" format="2">
  <advance width="322.0151515151515"/>
  <unicode hex="0982"/>
  <anchor x="-155.63939393939393" y="0.0" name="vedic"/>
  <outline>
    <contour>
      <point x="157.4090909090909" y="376.8181818181818" type="curve" smooth="yes"/>
      <point x="217.4515151515152" y="376.8181818181818"/>
      <point x="260.41212121212124" y="430.17878787878783"/>
      <point x="260.41212121212124" y="508.660606060606" type="curve" smooth="yes"/>
      <point x="260.41212121212124" y="576.2181818181817"/>
      <point x="227.33333333333331" y="626.939393939394"/>
      <point x="165.3242424242424" y="626.939393939394" type="curve" smooth="yes"/>
      <point x="104.22424242424243" y="626.939393939394"/>
      <point x="62.02727272727273" y="572.7272727272727"/>
      <point x="62.02727272727273" y="498.3030303030303" type="curve" smooth="yes"/>
      <point x="62.02727272727273" y="430.4090909090909"/>
      <point x="96.15757575757576" y="376.8181818181818"/>
    </contour>
    <contour>
      <point x="150.1727272727273" y="406.1212121212121" type="curve" smooth="yes"/>
      <point x="115.1909090909091" y="406.1212121212121"/>
      <point x="91.33030303030303" y="438.6666666666667"/>
      <point x="91.33030303030303" y="486.42727272727274" type="curve" smooth="yes"/>
      <point x="91.33030303030303" y="543.3909090909091"/>
      <point x="124.61212121212122" y="596.5757575757576"/>
      <point x="173.20000000000002" y="596.5757575757576" type="curve" smooth="yes"/>
      <point x="208.2" y="596.5757575757576"/>
      <point x="232.4878787878788" y="566.3727272727273"/>
      <point x="232.4878787878788" y="519.7333333333332" type="curve" smooth="yes"/>
      <point x="232.4878787878788" y="461.0030303030303"/>
      <point x="198.4242424242424" y="406.1212121212121"/>
    </contour>
    <contour>
      <point x="268.4666666666667" y="-26.96969696969697" type="curve"/>
      <point x="286.46666666666664" y="-15.90909090909091" type="line"/>
      <point x="241.2848484848485" y="104.63939393939393"/>
      <point x="167.4545454545455" y="210.63939393939393"/>
      <point x="89.75757575757576" y="286.46363636363634" type="curve"/>
      <point x="64.67272727272727" y="248.75757575757575" type="line"/>
      <point x="144.37272727272725" y="186.33333333333334"/>
      <point x="217.3848484848485" y="79.15757575757577"/>
    </contour>
  </outline>
</glyph>
<glyph name="visarga-beng" format="2">
  <advance width="322.91212121212124"/>
  <unicode hex="0983"/>
  <anchor x="-155.63939393939393" y="0.0" name="vedic"/>
  <outline>
    <contour>
      <point x="157.4090909090909" y="376.10909090909087" type="curve" smooth="yes"/>
      <point x="217.6878787878788" y="376.10909090909087"/>
      <point x="260.8848484848485" y="429.469696969697"/>
      <point x="260.8848484848485" y="507.95151515151514" type="curve" smooth="yes"/>
      <point x="260.8848484848485" y="575.2727272727273"/>
      <point x="227.33333333333331" y="625.9939393939394"/>
      <point x="165.56060606060606" y="625.9939393939394" type="curve" smooth="yes"/>
      <point x="104.22424242424243" y="625.9939393939394"/>
      <point x="62.02727272727273" y="571.7818181818183"/>
      <point x="62.02727272727273" y="497.59393939393937" type="curve" smooth="yes"/>
      <point x="62.02727272727273" y="429.7"/>
      <point x="96.63030303030304" y="376.10909090909087"/>
    </contour>
    <contour>
      <point x="150.1727272727273" y="405.4121212121212" type="curve" smooth="yes"/>
      <point x="115.1909090909091" y="405.4121212121212"/>
      <point x="91.56666666666668" y="437.95757575757574"/>
      <point x="91.56666666666668" y="485.71818181818185" type="curve" smooth="yes"/>
      <point x="91.56666666666668" y="542.6818181818181"/>
      <point x="124.61212121212122" y="595.8666666666667"/>
      <point x="173.43636363636364" y="595.8666666666667" type="curve" smooth="yes"/>
      <point x="208.43636363636364" y="595.8666666666667"/>
      <point x="232.72424242424245" y="565.4272727272727"/>
      <point x="232.72424242424245" y="518.7878787878788" type="curve" smooth="yes"/>
      <point x="232.72424242424245" y="460.29393939393935"/>
      <point x="198.66060606060606" y="405.4121212121212"/>
    </contour>
    <contour>
      <point x="157.4090909090909" y="4.887878787878788" type="curve" smooth="yes"/>
      <point x="217.6878787878788" y="4.887878787878788"/>
      <point x="260.8848484848485" y="58.24848484848485"/>
      <point x="260.8848484848485" y="136.66666666666666" type="curve" smooth="yes"/>
      <point x="260.8848484848485" y="204.0515151515152"/>
      <point x="227.33333333333331" y="254.7090909090909"/>
      <point x="165.56060606060606" y="254.7090909090909" type="curve" smooth="yes"/>
      <point x="104.22424242424243" y="254.7090909090909"/>
      <point x="62.02727272727273" y="200.56060606060606"/>
      <point x="62.02727272727273" y="126.3090909090909" type="curve" smooth="yes"/>
      <point x="62.02727272727273" y="58.478787878787884"/>
      <point x="96.63030303030304" y="4.887878787878788"/>
    </contour>
    <contour>
      <point x="150.1727272727273" y="34.12727272727273" type="curve" smooth="yes"/>
      <point x="115.1909090909091" y="34.12727272727273"/>
      <point x="91.56666666666668" y="66.67272727272727"/>
      <point x="91.56666666666668" y="114.43333333333334" type="curve" smooth="yes"/>
      <point x="91.56666666666668" y="171.46060606060604"/>
      <point x="124.61212121212122" y="224.5818181818182"/>
      <point x="173.43636363636364" y="224.5818181818182" type="curve" smooth="yes"/>
      <point x="208.43636363636364" y="224.5818181818182"/>
      <point x="232.72424242424245" y="194.14242424242425"/>
      <point x="232.72424242424245" y="147.5666666666667" type="curve" smooth="yes"/>
      <point x="232.72424242424245" y="89.07272727272728"/>
      <point x="198.66060606060606" y="34.12727272727273"/>
    </contour>
  </outline>
</glyph>
<glyph name="a-beng" format="2">
  <advance width="615.1060606060606"/>
  <unicode hex="0985"/>
  <anchor x="534.5757575757576" y="-10.242424242424242" name="bottom"/>
  <anchor x="536.3878787878788" y="54.24242424242424" name="bottom.rakaar"/>
  <anchor x="536.3878787878788" y="7.272727272727273" name="bottom.rvocalic"/>
  <anchor x="526.2606060606062" y="1.2727272727272734" name="bottom.virama"/>
  <anchor x="536.3878787878788" y="595.2121212121212" name="top"/>
  <anchor x="536.3878787878788" y="595.2121212121212" name="topright"/>
  <anchor x="307.20303030303035" y="0.0" name="vedic"/>
  <outline>
    <contour>
      <point x="532.5181818181818" y="-5.121212121212121" type="line"/>
      <point x="536.0909090909091" y="-4.121212121212121" type="line"/>
      <point x="536.0909090909091" y="595.2121212121212" type="line"/>
      <point x="633.4272727272728" y="595.2121212121212" type="line"/>
      <point x="617.1787878787878" y="622.0" type="line"/>
      <point x="-18.32121212121212" y="622.0" type="line"/>
      <point x="-2.2848484848484847" y="595.2121212121212" type="line"/>
      <point x="507.51212121212126" y="595.2121212121212" type="line"/>
      <point x="507.51212121212126" y="55.49393939393939" type="line"/>
      <point x="517.2939393939394" y="51.50606060606061" type="line"/>
      <point x="495.6575757575757" y="123.31818181818181"/>
      <point x="453.58787878787876" y="183.94848484848484"/>
      <point x="402.5333333333333" y="232.62727272727273" type="curve"/>
      <point x="390.630303030303" y="201.39696969696968" type="line"/>
      <point x="443.9818181818182" y="152.8878787878788"/>
      <point x="485.0212121212121" y="90.12424242424244"/>
      <point x="512.7666666666667" y="12.166666666666668" type="curve"/>
    </contour>
    <contour>
      <point x="284.0727272727273" y="125.25757575757575" type="curve" smooth="yes"/>
      <point x="371.4454545454546" y="125.25757575757575"/>
      <point x="427.58787878787876" y="188.63333333333333"/>
      <point x="429.63636363636357" y="308.1212121212121" type="curve" smooth="yes"/>
      <point x="432.23636363636365" y="435.7818181818182"/>
      <point x="368.76363636363635" y="512.9939393939394"/>
      <point x="276.7030303030303" y="511.8121212121212" type="curve" smooth="yes"/>
      <point x="220.71212121212125" y="511.1030303030303"/>
      <point x="189.62727272727275" y="483.4939393939394"/>
      <point x="189.62727272727275" y="439.06666666666666" type="curve" smooth="yes"/>
      <point x="189.62727272727275" y="400.6545454545454"/>
      <point x="213.3909090909091" y="375.660606060606"/>
      <point x="247.38787878787878" y="375.660606060606" type="curve" smooth="yes"/>
      <point x="284.59696969696967" y="375.660606060606"/>
      <point x="303.9787878787879" y="406.99090909090904"/>
      <point x="303.9787878787879" y="446.95757575757574" type="curve" smooth="yes"/>
      <point x="303.9787878787879" y="521.3151515151516"/>
      <point x="264.0" y="572.7575757575758"/>
      <point x="234.35757575757575" y="599.060606060606" type="curve"/>
      <point x="182.1787878787879" y="598.6363636363636" type="line"/>
      <point x="244.16060606060606" y="566.1393939393939"/>
      <point x="271.1818181818182" y="520.6606060606061"/>
      <point x="277.8848484848485" y="468.8121212121212" type="curve"/>
      <point x="285.6666666666667" y="472.2969696969697"/>
      <point x="292.9787878787879" y="473.7212121212121"/>
      <point x="301.55151515151516" y="473.7212121212121" type="curve" smooth="yes"/>
      <point x="348.8515151515152" y="473.7212121212121"/>
      <point x="403.4363636363637" y="426.8575757575758"/>
      <point x="403.75454545454545" y="320.5151515151515" type="curve" smooth="yes"/>
      <point x="404.0727272727273" y="219.1818181818182"/>
      <point x="358.01212121212126" y="165.25757575757575"/>
      <point x="280.49696969696976" y="165.25757575757575" type="curve" smooth="yes"/>
      <point x="185.56363636363636" y="165.25757575757575"/>
      <point x="104.73939393939393" y="254.3757575757576"/>
      <point x="54.06666666666666" y="509.339393939394" type="curve"/>
      <point x="30.78181818181818" y="503.93636363636364" type="line"/>
      <point x="84.16666666666667" y="216.48181818181817"/>
      <point x="177.93636363636364" y="125.25757575757575"/>
    </contour>
  </outline>
</glyph>
<glyph name="aa-beng" format="2">
  <advance width="784.5787878787879"/>
  <unicode hex="0986"/>
  <anchor x="534.5757575757576" y="-10.242424242424242" name="bottom"/>
  <anchor x="536.3878787878788" y="54.24242424242424" name="bottom.rakaar"/>
  <anchor x="536.3878787878788" y="7.272727272727273" name="bottom.rvocalic"/>
  <anchor x="526.2606060606062" y="1.2727272727272734" name="bottom.virama"/>
  <anchor x="706.560606060606" y="595.2121212121212" name="top"/>
  <anchor x="706.560606060606" y="543.5757575757576" name="topright"/>
  <anchor x="392.1393939393939" y="0.0" name="vedic"/>
  <outline>
    <contour>
      <point x="532.5181818181818" y="-5.121212121212121" type="line"/>
      <point x="536.0909090909091" y="-4.121212121212121" type="line"/>
      <point x="536.0909090909091" y="595.2121212121212" type="line"/>
      <point x="621.2545454545455" y="595.2121212121212" type="line"/>
      <point x="605.0060606060605" y="622.0" type="line"/>
      <point x="-18.32121212121212" y="622.0" type="line"/>
      <point x="-2.2848484848484847" y="595.2121212121212" type="line"/>
      <point x="507.51212121212126" y="595.2121212121212" type="line"/>
      <point x="507.51212121212126" y="55.49393939393939" type="line"/>
      <point x="517.2939393939394" y="51.50606060606061" type="line"/>
      <point x="495.6575757575757" y="123.31818181818181"/>
      <point x="453.58787878787876" y="183.94848484848484"/>
      <point x="402.5333333333333" y="232.62727272727273" type="curve"/>
      <point x="390.630303030303" y="201.39696969696968" type="line"/>
      <point x="443.9818181818182" y="152.8878787878788"/>
      <point x="485.0212121212121" y="90.12424242424244"/>
      <point x="512.7666666666667" y="12.166666666666668" type="curve"/>
    </contour>
    <contour>
      <point x="284.0727272727273" y="125.25757575757575" type="curve" smooth="yes"/>
      <point x="371.4454545454546" y="125.25757575757575"/>
      <point x="427.58787878787876" y="188.63333333333333"/>
      <point x="429.63636363636357" y="308.1212121212121" type="curve" smooth="yes"/>
      <point x="432.23636363636365" y="435.7818181818182"/>
      <point x="368.76363636363635" y="512.9939393939394"/>
      <point x="276.7030303030303" y="511.8121212121212" type="curve" smooth="yes"/>
      <point x="220.71212121212125" y="511.1030303030303"/>
      <point x="189.62727272727275" y="483.4939393939394"/>
      <point x="189.62727272727275" y="439.06666666666666" type="curve" smooth="yes"/>
      <point x="189.62727272727275" y="400.6545454545454"/>
      <point x="213.3909090909091" y="375.660606060606"/>
      <point x="247.38787878787878" y="375.660606060606" type="curve" smooth="yes"/>
      <point x="284.59696969696967" y="375.660606060606"/>
      <point x="303.9787878787879" y="406.99090909090904"/>
      <point x="303.9787878787879" y="446.95757575757574" type="curve" smooth="yes"/>
      <point x="303.9787878787879" y="521.3151515151516"/>
      <point x="264.0" y="572.7575757575758"/>
      <point x="234.35757575757575" y="599.060606060606" type="curve"/>
      <point x="182.1787878787879" y="598.6363636363636" type="line"/>
      <point x="244.16060606060606" y="566.1393939393939"/>
      <point x="271.1818181818182" y="520.6606060606061"/>
      <point x="277.8848484848485" y="468.8121212121212" type="curve"/>
      <point x="285.6666666666667" y="472.2969696969697"/>
      <point x="292.9787878787879" y="473.7212121212121"/>
      <point x="301.55151515151516" y="473.7212121212121" type="curve" smooth="yes"/>
      <point x="348.8515151515152" y="473.7212121212121"/>
      <point x="403.75454545454545" y="426.8575757575758"/>
      <point x="403.75454545454545" y="320.5151515151515" type="curve" smooth="yes"/>
      <point x="403.75454545454545" y="219.1181818181818"/>
      <point x="357.94848484848484" y="165.25757575757575"/>
      <point x="280.49696969696976" y="165.25757575757575" type="curve" smooth="yes"/>
      <point x="185.56363636363636" y="165.25757575757575"/>
      <point x="104.73939393939393" y="254.3757575757576"/>
      <point x="54.06666666666666" y="509.339393939394" type="curve"/>
      <point x="30.78181818181818" y="503.93636363636364" type="line"/>
      <point x="84.16666666666667" y="216.48181818181817"/>
      <point x="177.93636363636364" y="125.25757575757575"/>
    </contour>
    <contour>
      <point x="702.4151515151515" y="-13.181818181818182" type="line"/>
      <point x="705.5636363636363" y="-12.181818181818182" type="line"/>
      <point x="705.5636363636363" y="595.2121212121212" type="line"/>
      <point x="802.9" y="595.2121212121212" type="line"/>
      <point x="786.5878787878788" y="622.0" type="line"/>
      <point x="705.1181818181818" y="622.0" type="line"/>
      <point x="702.3090909090909" y="661.8484848484849" type="line"/>
      <point x="680.4333333333334" y="679.0909090909091" type="line"/>
      <point x="676.9848484848485" y="678.0909090909091" type="line"/>
      <point x="676.9848484848485" y="620.969696969697" type="line" smooth="yes"/>
      <point x="676.9848484848485" y="604.5818181818182"/>
      <point x="678.4727272727274" y="575.7272727272729"/>
      <point x="680.4939393939394" y="542.3636363636363" type="curve"/>
      <point x="685.8818181818182" y="542.230303030303" type="line"/>
      <point x="676.7424242424242" y="608.1121212121212"/>
      <point x="644.0727272727273" y="622.0"/>
      <point x="618.6060606060606" y="622.0" type="curve" smooth="yes"/>
      <point x="578.3757575757576" y="622.0" type="line"/>
      <point x="594.5606060606061" y="595.2121212121212" type="line"/>
      <point x="616.0" y="595.2121212121212" type="line" smooth="yes"/>
      <point x="649.6909090909091" y="595.2121212121212"/>
      <point x="670.9818181818182" y="566.969696969697"/>
      <point x="676.9848484848485" y="505.09090909090907" type="curve"/>
      <point x="676.9848484848485" y="3.0" type="line"/>
    </contour>
  </outline>
</glyph>
<glyph name="i-beng" format="2">
  <advance width="379.77272727272725"/>
  <unicode hex="0987"/>
  <anchor x="261.28181818181815" y="77.24545454545454" name="bottom"/>
  <anchor x="370.22727272727275" y="-91.60000000000001" name="bottom.rakaar"/>
  <anchor x="300.42121212121214" y="97.87878787878788" name="bottom.rvocalic"/>
  <anchor x="231.37575757575758" y="90.0" name="bottom.virama"/>
  <anchor x="261.42121212121214" y="624.0909090909091" name="top"/>
  <anchor x="204.1151515151515" y="633.178787878788" name="topright"/>
  <anchor x="189.69393939393942" y="0.0" name="vedic"/>
  <outline>
    <contour>
      <point x="297.13030303030297" y="616.7272727272727" type="curve"/>
      <point x="320.7757575757576" y="616.7272727272727" type="line"/>
      <point x="315.2212121212121" y="727.190909090909"/>
      <point x="283.91212121212124" y="775.1939393939393"/>
      <point x="214.2878787878788" y="775.1939393939393" type="curve" smooth="yes"/>
      <point x="171.85151515151514" y="775.1939393939393"/>
      <point x="140.88484848484848" y="763.4666666666667"/>
      <point x="92.89696969696969" y="763.4666666666667" type="curve" smooth="yes"/>
      <point x="37.87878787878788" y="763.4666666666667"/>
      <point x="11.263636363636365" y="788.4939393939394"/>
      <point x="11.263636363636365" y="864.0121212121213" type="curve" smooth="yes"/>
      <point x="11.263636363636365" y="875.3939393939394"/>
      <point x="12.263636363636365" y="890.430303030303"/>
      <point x="13.648484848484852" y="901.0333333333332" type="curve"/>
      <point x="-8.551515151515149" y="903.4575757575757" type="line"/>
      <point x="-10.148484848484847" y="889.8090909090909"/>
      <point x="-11.384848484848485" y="871.4666666666666"/>
      <point x="-11.384848484848485" y="856.8272727272727" type="curve" smooth="yes"/>
      <point x="-11.384848484848485" y="766.5757575757576"/>
      <point x="26.257575757575758" y="729.3939393939394"/>
      <point x="92.8969696969697" y="729.3939393939394" type="curve" smooth="yes"/>
      <point x="145.04545454545456" y="729.3939393939394"/>
      <point x="170.19393939393942" y="741.3333333333334"/>
      <point x="218.5484848484848" y="741.3333333333334" type="curve" smooth="yes"/>
      <point x="275.8818181818182" y="741.3333333333334"/>
      <point x="292.8515151515152" y="694.0818181818182"/>
    </contour>
    <component base="ha-beng" xOffset="1.1030303030303028"/>
  </outline>
</glyph>
<glyph name="ii-beng" format="2">
  <advance width="491.70606060606065"/>
  <unicode hex="0988"/>
  <anchor x="426.8484848484849" y="-27.757575757575758" name="bottom"/>
  <anchor x="427.0606060606061" y="70.0" name="bottom.rakaar"/>
  <anchor x="414.9757575757576" y="13.848484848484848" name="bottom.rvocalic"/>
  <anchor x="419.79090909090905" y="0.0" name="bottom.virama"/>
  <anchor x="282.0030303030303" y="624.0909090909091" name="top"/>
  <anchor x="244.40303030303036" y="633.030303030303" name="topright"/>
  <anchor x="245.42727272727276" y="0.0" name="vedic"/>
  <outline>
    <contour>
      <point x="406.39090909090913" y="-0.5030303030303038" type="curve"/>
      <point x="428.4606060606061" y="7.9393939393939394" type="line"/>
      <point x="410.46363636363634" y="72.43030303030302"/>
      <point x="396.3727272727272" y="131.21515151515152"/>
      <point x="396.3727272727272" y="221.46969696969694" type="curve" smooth="yes"/>
      <point x="396.3727272727272" y="315.13939393939387"/>
      <point x="414.7878787878788" y="392.45454545454544"/>
      <point x="440.3151515151515" y="440.5333333333333" type="curve"/>
      <point x="401.6303030303031" y="478.95151515151514" type="line"/>
      <point x="355.40909090909093" y="448.8454545454545"/>
      <point x="295.8090909090909" y="377.57272727272726"/>
      <point x="255.96666666666664" y="285.89696969696973" type="curve"/>
      <point x="266.31818181818187" y="286.26363636363635" type="line"/>
      <point x="270.1212121212121" y="302.2878787878788"/>
      <point x="275.92727272727274" y="326.8121212121212"/>
      <point x="275.92727272727274" y="355.94242424242424" type="curve" smooth="yes"/>
      <point x="275.92727272727274" y="455.16363636363633"/>
      <point x="224.96363636363637" y="508.7878787878788"/>
      <point x="139.95151515151517" y="508.7878787878788" type="curve" smooth="yes"/>
      <point x="87.85454545454546" y="508.7878787878788"/>
      <point x="58.75757575757576" y="483.6666666666667"/>
      <point x="58.993939393939385" y="441.4848484848485" type="curve" smooth="yes"/>
      <point x="59.23030303030302" y="407.09090909090907"/>
      <point x="79.33939393939394" y="387.6969696969697"/>
      <point x="107.97575757575757" y="387.6969696969697" type="curve" smooth="yes"/>
      <point x="142.25757575757575" y="387.6969696969697"/>
      <point x="160.74242424242425" y="417.88484848484853"/>
      <point x="160.74242424242425" y="458.339393939394" type="curve" smooth="yes"/>
      <point x="160.74242424242425" y="501.339393939394"/>
      <point x="136.13939393939395" y="560.8606060606061"/>
      <point x="93.76666666666668" y="599.8484848484849" type="curve"/>
      <point x="44.512121212121215" y="599.8484848484849" type="line"/>
      <point x="88.10606060606061" y="573.969696969697"/>
      <point x="119.5212121212121" y="535.969696969697"/>
      <point x="132.63333333333333" y="482.1818181818182" type="curve"/>
      <point x="113.28484848484848" y="456.5090909090909" type="line"/>
      <point x="129.6" y="467.630303030303"/>
      <point x="144.3212121212121" y="473.6909090909091"/>
      <point x="163.8090909090909" y="473.6909090909091" type="curve" smooth="yes"/>
      <point x="215.8909090909091" y="473.6909090909091"/>
      <point x="250.47272727272724" y="429.1575757575758"/>
      <point x="250.47272727272724" y="353.6454545454545" type="curve" smooth="yes"/>
      <point x="250.47272727272724" y="311.7424242424242"/>
      <point x="244.34242424242427" y="273.7030303030303"/>
      <point x="228.24242424242425" y="240.7242424242424" type="curve" smooth="yes"/>
      <point x="210.31212121212124" y="204.4909090909091"/>
      <point x="185.7090909090909" y="178.03030303030303"/>
      <point x="155.25454545454545" y="178.03030303030303" type="curve" smooth="yes"/>
      <point x="117.4060606060606" y="178.03030303030303"/>
      <point x="89.0878787878788" y="228.46666666666667"/>
      <point x="71.95151515151515" y="267.3909090909091" type="curve"/>
      <point x="51.751515151515164" y="257.29090909090905" type="line"/>
      <point x="75.2" y="197.64848484848486"/>
      <point x="109.47272727272727" y="140.95757575757577"/>
      <point x="161.2060606060606" y="140.95757575757577" type="curve" smooth="yes"/>
      <point x="214.24848484848485" y="140.95757575757577"/>
      <point x="241.60303030303027" y="190.47878787878787"/>
      <point x="274.6060606060607" y="255.2" type="curve" smooth="yes"/>
      <point x="308.20303030303035" y="319.1242424242424"/>
      <point x="353.3454545454546" y="394.09393939393937"/>
      <point x="413.0060606060606" y="442.0090909090909" type="curve"/>
      <point x="405.8424242424242" y="446.78181818181815" type="line"/>
      <point x="384.3424242424242" y="409.9939393939394"/>
      <point x="367.00606060606066" y="321.6636363636364"/>
      <point x="367.00606060606066" y="235.7060606060606" type="curve" smooth="yes"/>
      <point x="367.00606060606066" y="150.21818181818182"/>
      <point x="382.33030303030307" y="75.50909090909092"/>
    </contour>
    <contour>
      <point x="-2.2848484848484847" y="595.2121212121212" type="line"/>
      <point x="510.0272727272728" y="595.2121212121212" type="line"/>
      <point x="493.9272727272728" y="622.0" type="line"/>
      <point x="-18.32121212121212" y="622.0" type="line"/>
    </contour>
    <contour>
      <point x="381.9121212121212" y="616.7272727272727" type="curve"/>
      <point x="405.47272727272724" y="616.7272727272727" type="line"/>
      <point x="397.57272727272726" y="726.7878787878788"/>
      <point x="363.1212121212121" y="776.6363636363636"/>
      <point x="287.36363636363643" y="776.6363636363636" type="curve" smooth="yes"/>
      <point x="237.41818181818184" y="776.6363636363636"/>
      <point x="209.66666666666669" y="763.6969696969697"/>
      <point x="156.78181818181818" y="763.6969696969697" type="curve" smooth="yes"/>
      <point x="94.36969696969699" y="763.6969696969697"/>
      <point x="64.4939393939394" y="788.5151515151515"/>
      <point x="64.4939393939394" y="866.7272727272727" type="curve" smooth="yes"/>
      <point x="64.4939393939394" y="876.5818181818182"/>
      <point x="65.28181818181818" y="890.3878787878788"/>
      <point x="66.66666666666667" y="901.1818181818181" type="curve"/>
      <point x="44.82727272727273" y="903.6060606060606" type="line"/>
      <point x="42.93030303030303" y="889.3090909090909"/>
      <point x="41.78181818181818" y="872.669696969697"/>
      <point x="41.78181818181818" y="858.3333333333334" type="curve" smooth="yes"/>
      <point x="41.78181818181818" y="766.7242424242426"/>
      <point x="82.0969696969697" y="728.4363636363637"/>
      <point x="155.71212121212122" y="728.4363636363637" type="curve" smooth="yes"/>
      <point x="212.3787878787879" y="728.4363636363637"/>
      <point x="239.96060606060607" y="741.5878787878788"/>
      <point x="296.07878787878786" y="741.5878787878788" type="curve" smooth="yes"/>
      <point x="354.83636363636367" y="741.5878787878788"/>
      <point x="375.6727272727273" y="693.9333333333334"/>
    </contour>
  </outline>
</glyph>
<glyph name="u-beng" format="2">
  <advance width="500.3424242424243"/>
  <unicode hex="0989"/>
  <anchor x="360.1939393939394" y="38.72727272727273" name="bottom"/>
  <anchor x="399.1363636363637" y="-21.906060606060606" name="bottom.rakaar"/>
  <anchor x="336.6545454545454" y="79.42121212121214" name="bottom.rvocalic"/>
  <anchor x="304.6969696969697" y="26.754545454545454" name="bottom.virama"/>
  <anchor x="263.23333333333335" y="616.7636363636364" name="top"/>
  <anchor x="234.4151515151515" y="624.039393939394" name="topright"/>
  <anchor x="250.0969696969697" y="0.0" name="vedic"/>
  <anchor x="264.0" y="-22.60606060606061" name="nukta"/>
  <outline>
    <contour>
      <point x="395.70909090909095" y="616.7272727272727" type="curve"/>
      <point x="419.269696969697" y="616.7272727272727" type="line"/>
      <point x="411.81515151515146" y="726.4909090909091"/>
      <point x="376.94545454545454" y="776.0424242424243"/>
      <point x="301.7545454545455" y="776.0424242424243" type="curve" smooth="yes"/>
      <point x="251.39696969696968" y="776.0424242424243"/>
      <point x="222.4363636363636" y="763.1030303030304"/>
      <point x="170.29393939393938" y="763.1030303030304" type="curve" smooth="yes"/>
      <point x="108.32727272727273" y="763.1030303030304"/>
      <point x="78.89696969696969" y="789.2575757575758"/>
      <point x="78.89696969696969" y="864.0545454545454" type="curve" smooth="yes"/>
      <point x="78.89696969696969" y="874.6515151515151"/>
      <point x="79.83333333333334" y="889.4969696969697"/>
      <point x="81.21818181818182" y="901.0333333333332" type="curve"/>
      <point x="58.78484848484848" y="903.4575757575757" type="line"/>
      <point x="56.88787878787879" y="888.7151515151515"/>
      <point x="55.88787878787879" y="872.0757575757576"/>
      <point x="55.88787878787879" y="856.8484848484849" type="curve" smooth="yes"/>
      <point x="55.88787878787879" y="766.5757575757576"/>
      <point x="96.05454545454546" y="728.7333333333333"/>
      <point x="169.52121212121213" y="728.7333333333333" type="curve" smooth="yes"/>
      <point x="225.59393939393942" y="728.7333333333333"/>
      <point x="252.90000000000003" y="741.8848484848485"/>
      <point x="309.43030303030304" y="741.8848484848485" type="curve" smooth="yes"/>
      <point x="368.6606060606061" y="741.8848484848485"/>
      <point x="389.32121212121217" y="693.9333333333334"/>
    </contour>
    <component base="dda-beng"/>
  </outline>
</glyph>
<glyph name="uu-beng" format="2">
  <advance width="547.0181818181818"/>
  <unicode hex="098A"/>
  <anchor x="410.22424242424245" y="38.72727272727273" name="bottom"/>
  <anchor x="449.1666666666667" y="-21.757575757575758" name="bottom.rakaar"/>
  <anchor x="386.1333333333333" y="79.27272727272728" name="bottom.rvocalic"/>
  <anchor x="353.8787878787879" y="26.606060606060606" name="bottom.virama"/>
  <anchor x="311.27878787878785" y="621.7272727272727" name="top"/>
  <anchor x="289.2636363636364" y="633.030303030303" name="topright"/>
  <anchor x="273.3909090909091" y="0.0" name="vedic"/>
  <outline>
    <contour>
      <point x="339.54848484848486" y="76.78787878787878" type="curve" smooth="yes"/>
      <point x="449.4727272727273" y="76.78787878787878"/>
      <point x="506.5030303030304" y="154.38484848484848"/>
      <point x="506.5030303030304" y="275.94545454545454" type="curve" smooth="yes"/>
      <point x="506.5030303030304" y="359.71818181818185"/>
      <point x="478.25454545454545" y="415.4606060606061"/>
      <point x="446.3727272727273" y="449.0242424242424" type="curve"/>
      <point x="412.51515151515156" y="384.77575757575755"/>
      <point x="361.63030303030297" y="328.639393939394"/>
      <point x="317.45151515151514" y="328.639393939394" type="curve" smooth="yes"/>
      <point x="292.9909090909091" y="328.639393939394"/>
      <point x="280.869696969697" y="344.39090909090913"/>
      <point x="280.869696969697" y="369.95454545454544" type="curve" smooth="yes"/>
      <point x="280.869696969697" y="595.2121212121212" type="line"/>
      <point x="565.339393939394" y="595.2121212121212" type="line"/>
      <point x="548.3909090909092" y="622.0" type="line"/>
      <point x="-18.32121212121212" y="622.0" type="line"/>
      <point x="-2.0727272727272736" y="595.2121212121212" type="line"/>
      <point x="252.29090909090914" y="595.2121212121212" type="line"/>
      <point x="252.29090909090914" y="368.3515151515152" type="line" smooth="yes"/>
      <point x="252.29090909090914" y="337.9484848484848"/>
      <point x="262.5545454545454" y="320.1242424242424"/>
      <point x="276.93939393939394" y="308.93939393939394" type="curve" smooth="yes"/>
      <point x="290.22121212121215" y="298.24242424242425"/>
      <point x="305.07272727272726" y="293.8636363636364"/>
      <point x="322.4363636363636" y="293.8636363636364" type="curve" smooth="yes"/>
      <point x="369.2212121212121" y="293.8636363636364"/>
      <point x="420.6090909090909" y="334.4909090909091"/>
      <point x="462.9848484848485" y="407.71515151515155" type="curve"/>
      <point x="442.8727272727273" y="404.6454545454545" type="line"/>
      <point x="461.68181818181813" y="383.8090909090909"/>
      <point x="479.0939393939393" y="346.55151515151516"/>
      <point x="479.0939393939393" y="283.8787878787878" type="curve" smooth="yes"/>
      <point x="479.0939393939393" y="170.9818181818182"/>
      <point x="426.3909090909091" y="115.26060606060607"/>
      <point x="342.2454545454546" y="115.06969696969696" type="curve" smooth="yes"/>
      <point x="222.88484848484848" y="114.75151515151516"/>
      <point x="170.97575757575757" y="284.1212121212121"/>
      <point x="129.8" y="499.08484848484846" type="curve"/>
      <point x="107.36363636363637" y="493.1515151515151" type="line"/>
      <point x="136.5090909090909" y="324.1757575757576"/>
      <point x="172.22121212121215" y="189.4212121212121"/>
      <point x="250.77575757575758" y="112.45454545454545" type="curve"/>
      <point x="268.30909090909086" y="119.12121212121212" type="line"/>
      <point x="163.66666666666666" y="146.1818181818182"/>
      <point x="93.62424242424242" y="277.660606060606"/>
      <point x="48.27575757575758" y="499.08484848484846" type="curve"/>
      <point x="25.83939393939394" y="493.1515151515151" type="line"/>
      <point x="77.48484848484848" y="220.87878787878788"/>
      <point x="168.72121212121212" y="76.78787878787878"/>
    </contour>
    <contour>
      <point x="449.4484848484848" y="616.7272727272727" type="curve"/>
      <point x="472.8606060606061" y="616.7272727272727" type="line"/>
      <point x="464.9606060606061" y="726.7878787878788"/>
      <point x="416.1969696969697" y="777.4848484848485"/>
      <point x="336.5030303030303" y="777.4848484848485" type="curve" smooth="yes"/>
      <point x="283.1424242424243" y="777.4848484848485"/>
      <point x="229.08787878787882" y="761.3030303030304"/>
      <point x="168.26969696969698" y="761.3030303030304" type="curve" smooth="yes"/>
      <point x="104.7121212121212" y="761.3030303030304"/>
      <point x="68.95151515151514" y="789.2575757575758"/>
      <point x="68.95151515151514" y="864.0545454545454" type="curve" smooth="yes"/>
      <point x="68.95151515151514" y="874.6515151515151"/>
      <point x="69.88787878787879" y="889.4969696969697"/>
      <point x="71.27272727272728" y="901.0333333333332" type="curve"/>
      <point x="48.775757575757574" y="903.4575757575757" type="line"/>
      <point x="46.942424242424245" y="888.7151515151515"/>
      <point x="45.942424242424245" y="872.0757575757576"/>
      <point x="45.942424242424245" y="856.8484848484849" type="curve" smooth="yes"/>
      <point x="45.942424242424245" y="766.1939393939394"/>
      <point x="92.43939393939394" y="726.9333333333334"/>
      <point x="167.4969696969697" y="726.9333333333334" type="curve" smooth="yes"/>
      <point x="232.0787878787879" y="726.9333333333334"/>
      <point x="282.6727272727273" y="743.3272727272728"/>
      <point x="342.9575757575758" y="743.3272727272728" type="curve" smooth="yes"/>
      <point x="407.47878787878784" y="743.3272727272728"/>
      <point x="442.9121212121212" y="693.9333333333334"/>
    </contour>
  </outline>
</glyph>
<glyph name="rVocalic-beng" format="2">
  <advance width="549.7515151515152"/>
  <unicode hex="098B"/>
  <anchor x="353.5272727272727" y="-10.242424242424242" name="bottom"/>
  <anchor x="355.3393939393939" y="54.24242424242424" name="bottom.rakaar"/>
  <anchor x="284.5090909090909" y="145.04545454545453" name="bottom.rvocalic"/>
  <anchor x="344.5121212121212" y="1.2727272727272734" name="bottom.virama"/>
  <anchor x="355.3393939393939" y="595.2121212121212" name="top"/>
  <anchor x="357.6393939393939" y="595.2121212121212" name="topright"/>
  <anchor x="274.8757575757576" y="0.0" name="vedic"/>
  <outline>
    <contour>
      <point x="352.869696969697" y="-5.121212121212121" type="line"/>
      <point x="356.44242424242424" y="-4.121212121212121" type="line"/>
      <point x="356.44242424242424" y="639.2727272727273" type="line"/>
      <point x="331.31212121212127" y="659.0909090909091" type="line"/>
      <point x="327.8636363636364" y="658.0909090909091" type="line"/>
      <point x="327.8636363636364" y="491.23030303030305" type="line"/>
      <point x="335.3606060606061" y="507.48181818181814" type="line"/>
      <point x="236.39090909090908" y="466.3787878787879"/>
      <point x="135.16363636363636" y="403.28484848484845"/>
      <point x="46.83030303030303" y="332.3575757575758" type="curve"/>
      <point x="70.14242424242424" y="286.6666666666667" type="line"/>
      <point x="182.01212121212123" y="241.6969696969697"/>
      <point x="281.60303030303027" y="145.74545454545452"/>
      <point x="333.1181818181818" y="12.166666666666668" type="curve"/>
    </contour>
    <contour>
      <point x="327.8636363636364" y="53.130303030303025" type="line"/>
      <point x="337.6454545454545" y="51.50606060606061" type="line"/>
      <point x="294.3757575757576" y="176.35757575757577"/>
      <point x="184.9212121212121" y="274.0181818181818"/>
      <point x="82.67575757575756" y="321.75757575757575" type="curve"/>
      <point x="83.22727272727273" y="310.5333333333333" type="line"/>
      <point x="165.61818181818182" y="382.26666666666665"/>
      <point x="266.9333333333333" y="437.81818181818187"/>
      <point x="334.46363636363634" y="465.95151515151514" type="curve"/>
      <point x="327.8636363636364" y="478.769696969697" type="line"/>
    </contour>
    <contour>
      <point x="76.7848484848485" y="470.5575757575757" type="curve" smooth="yes"/>
      <point x="137.91818181818184" y="470.5575757575757"/>
      <point x="205.5030303030303" y="513.1181818181818"/>
      <point x="237.72727272727272" y="588.0757575757575" type="curve"/>
      <point x="219.8939393939394" y="583.8181818181818" type="line"/>
      <point x="242.58787878787882" y="564.1212121212121"/>
      <point x="266.1666666666667" y="527.0363636363637"/>
      <point x="293.90606060606063" y="473.230303030303" type="curve"/>
      <point x="313.4909090909091" y="478.92121212121214" type="line"/>
      <point x="282.1848484848485" y="553.4212121212121"/>
      <point x="250.3909090909091" y="598.0484848484849"/>
      <point x="220.67575757575756" y="623.9151515151516" type="curve"/>
      <point x="185.3030303030303" y="545.4272727272728"/>
      <point x="128.59393939393942" y="505.8909090909091"/>
      <point x="79.39090909090909" y="505.8909090909091" type="curve" smooth="yes"/>
      <point x="73.11515151515152" y="505.8909090909091"/>
      <point x="64.6939393939394" y="507.3151515151515"/>
      <point x="60.354545454545466" y="509.61212121212117" type="curve"/>
      <point x="77.12727272727274" y="492.1575757575757" type="line"/>
      <point x="87.91515151515154" y="503.9818181818182"/>
      <point x="91.63939393939395" y="513.6393939393939"/>
      <point x="91.63939393939395" y="530.3515151515151" type="curve" smooth="yes"/>
      <point x="91.63939393939395" y="554.321212121212"/>
      <point x="78.0030303030303" y="572.5454545454545"/>
      <point x="51.606060606060616" y="572.5454545454545" type="curve" smooth="yes"/>
      <point x="25.915151515151514" y="572.5454545454545"/>
      <point x="9.00606060606061" y="554.5969696969697"/>
      <point x="9.00606060606061" y="526.3151515151516" type="curve" smooth="yes"/>
      <point x="9.00606060606061" y="489.09090909090907"/>
      <point x="39.38181818181818" y="470.5575757575757"/>
    </contour>
    <contour>
      <point x="467.2909090909091" y="95.39696969696969" type="line"/>
      <point x="470.73636363636365" y="96.39696969696969" type="line"/>
      <point x="470.73636363636365" y="595.2121212121212" type="line"/>
      <point x="568.0727272727273" y="595.2121212121212" type="line"/>
      <point x="551.7606060606062" y="622.0" type="line"/>
      <point x="470.2909090909091" y="622.0" type="line"/>
      <point x="467.48181818181814" y="661.8484848484849" type="line"/>
      <point x="445.60606060606057" y="679.0909090909091" type="line"/>
      <point x="442.1575757575757" y="678.0909090909091" type="line"/>
      <point x="442.1575757575757" y="153.64848484848486" type="line"/>
      <point x="451.93939393939394" y="152.02424242424243" type="line"/>
      <point x="429.839393939394" y="216.1727272727273"/>
      <point x="391.4878787878788" y="275.50000000000006"/>
      <point x="345.91818181818184" y="321.46969696969694" type="curve"/>
      <point x="342.269696969697" y="282.3272727272727" type="line"/>
      <point x="386.1212121212121" y="237.56363636363636"/>
      <point x="422.209090909091" y="178.9272727272727"/>
      <point x="447.4121212121212" y="112.68484848484849" type="curve"/>
    </contour>
  </outline>
</glyph>
<glyph name="lVocalic-beng" format="2">
  <advance width="403.29999999999995"/>
  <unicode hex="098C"/>
  <anchor x="282.5212121212121" y="595.2121212121212" name="top"/>
  <anchor x="201.1818181818182" y="0.0" name="vedic"/>
  <outline>
    <contour>
      <point x="239.1181818181818" y="45.57575757575758" type="line"/>
      <point x="303.68181818181824" y="64.42424242424242"/>
      <point x="373.7727272727273" y="139.74545454545452"/>
      <point x="373.7727272727273" y="268.47878787878784" type="curve" smooth="yes"/>
      <point x="373.7727272727273" y="396.9212121212121"/>
      <point x="308.89090909090913" y="433.1575757575758"/>
      <point x="219.98181818181817" y="460.90909090909093" type="curve" smooth="yes"/>
      <point x="149.96363636363637" y="482.7060606060606"/>
      <point x="92.86666666666666" y="502.77272727272725"/>
      <point x="92.86666666666666" y="592.5393939393939" type="curve" smooth="yes"/>
      <point x="92.86666666666666" y="631.6696969696969"/>
      <point x="103.4878787878788" y="659.3939393939394"/>
      <point x="113.72424242424243" y="684.6060606060606" type="curve"/>
      <point x="91.65454545454544" y="693.8787878787879" type="line"/>
      <point x="76.15757575757576" y="659.178787878788"/>
      <point x="67.01212121212122" y="622.3939393939394"/>
      <point x="67.01212121212122" y="587.1242424242424" type="curve" smooth="yes"/>
      <point x="67.01212121212122" y="478.73939393939395"/>
      <point x="127.70606060606059" y="451.6424242424242"/>
      <point x="208.6848484848485" y="427.56363636363636" type="curve" smooth="yes"/>
      <point x="289.0515151515152" y="402.9969696969697"/>
      <point x="347.6787878787879" y="378.7"/>
      <point x="347.6787878787879" y="260.6818181818182" type="curve" smooth="yes"/>
      <point x="347.6787878787879" y="167.04545454545453"/>
      <point x="300.660606060606" y="100.11212121212121"/>
      <point x="255.69696969696972" y="86.75151515151515" type="curve"/>
      <point x="270.0333333333333" y="78.9090909090909" type="line"/>
      <point x="275.6818181818182" y="200.57575757575756"/>
      <point x="245.01818181818183" y="287.42424242424244"/>
      <point x="158.66363636363636" y="287.42424242424244" type="curve" smooth="yes"/>
      <point x="93.02424242424242" y="287.42424242424244"/>
      <point x="59.43939393939393" y="231.85454545454547"/>
      <point x="59.43939393939393" y="172.3151515151515" type="curve" smooth="yes"/>
      <point x="59.43939393939393" y="103.56969696969698"/>
      <point x="93.71818181818182" y="65.15151515151516"/>
      <point x="131.73636363636365" y="65.15151515151516" type="curve" smooth="yes"/>
      <point x="161.9242424242424" y="65.15151515151516"/>
      <point x="175.37272727272727" y="87.0969696969697"/>
      <point x="175.37272727272727" y="112.87878787878788" type="curve" smooth="yes"/>
      <point x="175.37272727272727" y="139.84848484848484"/>
      <point x="157.5848484848485" y="157.75757575757575"/>
      <point x="134.9272727272727" y="157.75757575757575" type="curve" smooth="yes"/>
      <point x="113.52424242424243" y="157.75757575757575"/>
      <point x="96.69090909090909" y="140.27272727272728"/>
      <point x="97.65151515151516" y="114.32121212121211" type="curve"/>
      <point x="113.66666666666666" y="113.80909090909091" type="line"/>
      <point x="100.83636363636363" y="120.38181818181818"/>
      <point x="87.12424242424242" y="137.54545454545456"/>
      <point x="87.12424242424242" y="175.6969696969697" type="curve" smooth="yes"/>
      <point x="87.12424242424242" y="234.03333333333336"/>
      <point x="123.44545454545454" y="256.5151515151515"/>
      <point x="156.24848484848488" y="256.5151515151515" type="curve" smooth="yes"/>
      <point x="221.07575757575756" y="256.5151515151515"/>
      <point x="239.44242424242424" y="185.2757575757576"/>
      <point x="239.44242424242424" y="102.93939393939394" type="curve" smooth="yes"/>
      <point x="239.44242424242424" y="80.84242424242424"/>
      <point x="238.11818181818182" y="64.63030303030303"/>
      <point x="235.5666666666667" y="48.78787878787878" type="curve"/>
    </contour>
  </outline>
</glyph>
<glyph name="e-beng" format="2">
  <advance width="527.4333333333333"/>
  <unicode hex="098F"/>
  <anchor x="451.91515151515154" y="-14.969696969696969" name="bottom"/>
  <anchor x="451.91515151515154" y="2.212121212121212" name="bottom.rvocalic"/>
  <anchor x="441.23636363636365" y="1.2727272727272734" name="bottom.virama"/>
  <anchor x="380.1909090909091" y="595.2121212121212" name="top"/>
  <anchor x="382.6393939393939" y="595.2121212121212" name="topright"/>
  <anchor x="263.6848484848485" y="0.0" name="vedic"/>
  <outline>
    <contour>
      <point x="448.85151515151523" y="-8.272727272727273" type="line"/>
      <point x="452.42424242424244" y="-7.272727272727273" type="line"/>
      <point x="452.42424242424244" y="533.6696969696969" type="line" smooth="yes"/>
      <point x="452.42424242424244" y="598.3333333333334"/>
      <point x="427.91818181818184" y="630.6606060606061"/>
      <point x="378.8181818181818" y="630.6606060606061" type="curve" smooth="yes"/>
      <point x="289.07878787878786" y="630.6606060606061"/>
      <point x="195.3848484848485" y="494.9515151515152"/>
      <point x="195.3848484848485" y="381.4606060606061" type="curve" smooth="yes"/>
      <point x="195.3848484848485" y="318.1454545454545"/>
      <point x="228.15454545454546" y="294.3757575757576"/>
      <point x="259.3363636363636" y="293.9515151515152" type="curve" smooth="yes"/>
      <point x="296.8818181818182" y="293.52727272727276"/>
      <point x="316.9878787878788" y="319.51818181818186"/>
      <point x="316.9878787878788" y="352.57575757575756" type="curve" smooth="yes"/>
      <point x="316.9878787878788" y="387.06060606060606"/>
      <point x="296.58484848484846" y="409.01212121212126"/>
      <point x="266.6939393939394" y="409.01212121212126" type="curve" smooth="yes"/>
      <point x="248.44545454545457" y="409.01212121212126"/>
      <point x="230.8030303030303" y="399.5151515151515"/>
      <point x="224.52727272727276" y="378.3030303030303" type="curve"/>
      <point x="233.95151515151517" y="380.76969696969695" type="line"/>
      <point x="232.8" y="493.6060606060606"/>
      <point x="321.1666666666667" y="599.4484848484849"/>
      <point x="379.7090909090909" y="599.4484848484849" type="curve" smooth="yes"/>
      <point x="413.1939393939394" y="599.4484848484849"/>
      <point x="423.8454545454545" y="577.3212121212122"/>
      <point x="423.8454545454545" y="522.6969696969697" type="curve" smooth="yes"/>
      <point x="423.8454545454545" y="173.1818181818182" type="line" smooth="yes"/>
      <point x="423.8454545454545" y="139.07272727272726"/>
      <point x="424.2060606060606" y="94.76969696969697"/>
      <point x="426.56666666666666" y="61.50303030303031" type="curve"/>
      <point x="399.7121212121212" y="119.42424242424244"/>
      <point x="359.94545454545454" y="133.17575757575756"/>
      <point x="321.3727272727273" y="133.17575757575756" type="curve" smooth="yes"/>
      <point x="274.8484848484849" y="133.17575757575756"/>
      <point x="240.13939393939393" y="118.79696969696968"/>
      <point x="182.90303030303028" y="118.79696969696968" type="curve" smooth="yes"/>
      <point x="113.12121212121212" y="118.79696969696968"/>
      <point x="74.23636363636365" y="162.46363636363637"/>
      <point x="74.23636363636365" y="256.339393939394" type="curve" smooth="yes"/>
      <point x="74.23636363636365" y="295.3212121212121"/>
      <point x="80.19696969696969" y="325.77575757575755"/>
      <point x="86.04848484848486" y="348.07575757575756" type="curve"/>
      <point x="62.19090909090908" y="353.7787878787879" type="line"/>
      <point x="54.4030303030303" y="325.8454545454545"/>
      <point x="48.95454545454545" y="286.44848484848484"/>
      <point x="48.95454545454545" y="246.3" type="curve" smooth="yes"/>
      <point x="48.95454545454545" y="119.53030303030302"/>
      <point x="110.36969696969696" y="80.1969696969697"/>
      <point x="183.44848484848484" y="80.1969696969697" type="curve" smooth="yes"/>
      <point x="246.01212121212123" y="80.1969696969697"/>
      <point x="274.56666666666666" y="95.42424242424242"/>
      <point x="329.0151515151515" y="95.42424242424242" type="curve" smooth="yes"/>
      <point x="370.02121212121216" y="95.42424242424242"/>
      <point x="401.5030303030303" y="79.76363636363637"/>
      <point x="429.6151515151515" y="9.121212121212121" type="curve"/>
    </contour>
  </outline>
</glyph>
<glyph name="ai-beng" format="2">
  <advance width="605.8545454545455"/>
  <unicode hex="0990"/>
  <anchor x="399.0090909090909" y="601.5757575757576" name="top"/>
  <anchor x="373.3545454545455" y="613.030303030303" name="topright"/>
  <anchor x="302.8090909090909" y="0.0" name="vedic"/>
  <anchor x="451.91515151515154" y="-14.969696969696969" name="bottom"/>
  <anchor x="451.91515151515154" y="2.212121212121212" name="bottom.rvocalic"/>
  <anchor x="441.23636363636365" y="1.2727272727272734" name="bottom.virama"/>
  <outline>
    <contour>
      <point x="449.0636363636363" y="349.44242424242424" type="line"/>
      <point x="501.6" y="407.3212121212121"/>
      <point x="540.5212121212121" y="472.43636363636364"/>
      <point x="540.5212121212121" y="565.9545454545455" type="curve" smooth="yes"/>
      <point x="540.5212121212121" y="698.9333333333333"/>
      <point x="459.139393939394" y="735.3666666666666"/>
      <point x="347.04848484848486" y="749.278787878788" type="curve" smooth="yes"/>
      <point x="258.869696969697" y="760.1272727272727"/>
      <point x="185.38181818181818" y="770.7878787878788"/>
      <point x="185.38181818181818" y="868.0878787878788" type="curve" smooth="yes"/>
      <point x="185.38181818181818" y="901.1272727272727"/>
      <point x="193.97272727272727" y="928.0060606060606"/>
      <point x="203.1939393939394" y="949.6424242424242" type="curve"/>
      <point x="180.39696969696968" y="958.3636363636364" type="line"/>
      <point x="169.37272727272727" y="932.7757575757574"/>
      <point x="159.82424242424239" y="901.2606060606062"/>
      <point x="159.82424242424239" y="862.4181818181818" type="curve" smooth="yes"/>
      <point x="159.82424242424239" y="748.3848484848485"/>
      <point x="235.84545454545457" y="726.1151515151515"/>
      <point x="339.4757575757576" y="715.8424242424242" type="curve" smooth="yes"/>
      <point x="438.17575757575764" y="706.3333333333334"/>
      <point x="514.3636363636364" y="677.8121212121212"/>
      <point x="514.3636363636364" y="564.8787878787879" type="curve" smooth="yes"/>
      <point x="514.3636363636364" y="485.95757575757574"/>
      <point x="486.15757575757567" y="433.3151515151515"/>
      <point x="439.4818181818182" y="381.94545454545454" type="curve"/>
    </contour>
    <component base="e-beng"/>
  </outline>
</glyph>
<glyph name="o-beng" format="2">
  <advance width="569.5787878787878"/>
  <unicode hex="0993"/>
  <anchor x="419.7212121212121" y="40.57575757575758" name="bottom"/>
  <anchor x="458.66363636363633" y="-19.909090909090907" name="bottom.rakaar"/>
  <anchor x="395.77878787878797" y="81.12121212121212" name="bottom.rvocalic"/>
  <anchor x="363.67272727272734" y="28.454545454545453" name="bottom.virama"/>
  <anchor x="361.08484848484846" y="595.2121212121212" name="top"/>
  <anchor x="360.3121212121212" y="595.2121212121212" name="topright"/>
  <anchor x="284.48181818181814" y="0.0" name="vedic"/>
  <outline>
    <contour>
      <point x="357.24242424242425" y="78.63636363636364" type="curve" smooth="yes"/>
      <point x="456.67272727272723" y="78.63636363636364"/>
      <point x="514.1878787878788" y="143.64545454545453"/>
      <point x="514.1878787878788" y="250.0121212121212" type="curve" smooth="yes"/>
      <point x="514.1878787878788" y="357.32727272727277"/>
      <point x="442.4909090909091" y="409.6969696969697"/>
      <point x="397.1727272727273" y="409.6969696969697" type="curve" smooth="yes"/>
      <point x="370.2090909090909" y="409.6969696969697"/>
      <point x="350.9090909090909" y="391.89090909090913"/>
      <point x="350.9090909090909" y="360.68484848484843" type="curve" smooth="yes"/>
      <point x="350.9090909090909" y="329.7939393939394"/>
      <point x="370.16969696969693" y="310.3818181818182"/>
      <point x="398.0212121212121" y="310.3818181818182" type="curve" smooth="yes"/>
      <point x="443.2606060606061" y="310.3818181818182"/>
      <point x="498.3515151515151" y="385.3727272727273"/>
      <point x="498.3515151515151" y="486.0" type="curve" smooth="yes"/>
      <point x="498.3515151515151" y="570.6121212121211"/>
      <point x="452.369696969697" y="619.1818181818181"/>
      <point x="377.3363636363636" y="619.1818181818181" type="curve" smooth="yes"/>
      <point x="268.8515151515152" y="619.1818181818181"/>
      <point x="181.58787878787876" y="510.8787878787879"/>
      <point x="181.58787878787876" y="420.7878787878788" type="curve" smooth="yes"/>
      <point x="181.58787878787876" y="372.26969696969695"/>
      <point x="206.03636363636363" y="349.7242424242424"/>
      <point x="234.84545454545454" y="349.7242424242424" type="curve" smooth="yes"/>
      <point x="263.2090909090909" y="349.7242424242424"/>
      <point x="282.3575757575758" y="369.1454545454545"/>
      <point x="282.3575757575758" y="403.3878787878787" type="curve" smooth="yes"/>
      <point x="282.3575757575758" y="431.61515151515147"/>
      <point x="265.8848484848485" y="453.22727272727275"/>
      <point x="239.83939393939394" y="453.22727272727275" type="curve" smooth="yes"/>
      <point x="226.1090909090909" y="453.22727272727275"/>
      <point x="210.31818181818184" y="446.8878787878788"/>
      <point x="200.92727272727274" y="421.5151515151515" type="curve"/>
      <point x="220.14242424242423" y="413.45454545454544" type="line"/>
      <point x="224.88787878787878" y="527.7575757575758"/>
      <point x="310.3787878787879" y="590.6727272727272"/>
      <point x="382.6242424242424" y="590.6727272727272" type="curve" smooth="yes"/>
      <point x="439.7454545454546" y="590.6727272727272"/>
      <point x="469.0757575757576" y="551.6"/>
      <point x="469.0757575757576" y="491.969696969697" type="curve" smooth="yes"/>
      <point x="469.0757575757576" y="437.7909090909091"/>
      <point x="448.160606060606" y="395.660606060606"/>
      <point x="417.5363636363636" y="377.3939393939394" type="curve"/>
      <point x="426.7151515151515" y="359.96969696969694" type="line"/>
      <point x="455.33333333333337" y="359.1818181818182"/>
      <point x="486.50303030303024" y="316.6"/>
      <point x="486.50303030303024" y="255.17272727272726" type="curve" smooth="yes"/>
      <point x="486.50303030303024" y="160.57272727272726"/>
      <point x="433.07575757575756" y="116.98181818181817"/>
      <point x="358.9666666666667" y="116.98181818181817" type="curve" smooth="yes"/>
      <point x="224.43333333333337" y="116.98181818181817"/>
      <point x="121.74848484848485" y="246.72727272727272"/>
      <point x="58.04545454545454" y="523.5545454545454" type="curve"/>
      <point x="34.52727272727273" y="517.5151515151515" type="line"/>
      <point x="101.2" y="203.8181818181818"/>
      <point x="223.26666666666665" y="78.63636363636364"/>
    </contour>
  </outline>
</glyph>
<glyph name="au-beng" format="2">
  <advance width="616.7878787878789"/>
  <unicode hex="0994"/>
  <anchor x="510.0" y="40.57575757575758" name="bottom"/>
  <anchor x="558.0" y="-19.909090909090907" name="bottom.rakaar"/>
  <anchor x="478.90909090909093" y="81.12121212121212" name="bottom.rvocalic"/>
  <anchor x="440.969696969697" y="28.454545454545453" name="bottom.virama"/>
  <anchor x="518.969696969697" y="601.5757575757576" name="top"/>
  <anchor x="472.42424242424244" y="613.030303030303" name="topright"/>
  <anchor x="308.39393939393943" y="0.0" name="vedic"/>
  <outline>
    <contour>
      <point x="459.9969696969697" y="349.44242424242424" type="line"/>
      <point x="512.5333333333333" y="407.3212121212121"/>
      <point x="551.4545454545455" y="472.43636363636364"/>
      <point x="551.4545454545455" y="565.3090909090909" type="curve" smooth="yes"/>
      <point x="551.4545454545455" y="699.209090909091"/>
      <point x="469.75454545454545" y="735.4303030303031"/>
      <point x="357.9818181818182" y="749.278787878788" type="curve" smooth="yes"/>
      <point x="269.80303030303025" y="760.1272727272727"/>
      <point x="196.3151515151515" y="770.7878787878788"/>
      <point x="196.3151515151515" y="868.0878787878788" type="curve" smooth="yes"/>
      <point x="196.3151515151515" y="901.1272727272727"/>
      <point x="204.9060606060606" y="928.0060606060606"/>
      <point x="214.12727272727273" y="949.6424242424242" type="curve"/>
      <point x="191.33030303030304" y="958.3636363636364" type="line"/>
      <point x="180.3060606060606" y="932.7757575757574"/>
      <point x="170.75757575757575" y="901.2606060606062"/>
      <point x="170.75757575757575" y="862.4181818181818" type="curve" smooth="yes"/>
      <point x="170.75757575757575" y="748.3848484848485"/>
      <point x="246.77878787878785" y="726.1151515151515"/>
      <point x="350.3454545454546" y="715.8424242424242" type="curve" smooth="yes"/>
      <point x="449.1090909090909" y="706.269696969697"/>
      <point x="525.2969696969697" y="677.8121212121212"/>
      <point x="525.2969696969697" y="564.1696969696969" type="curve" smooth="yes"/>
      <point x="525.2969696969697" y="485.3212121212121"/>
      <point x="497.0272727272727" y="432.8060606060606"/>
      <point x="450.35151515151523" y="381.43636363636364" type="curve"/>
    </contour>
    <component base="o-beng"/>
  </outline>
</glyph>
<glyph name="ka-beng" format="2">
  <advance width="580.0424242424242"/>
  <unicode hex="0995"/>
  <anchor x="338.9121212121212" y="15.030303030303031" name="bottom"/>
  <anchor x="344.60606060606057" y="30.60606060606061" name="bottom.rakaar"/>
  <anchor x="346.6" y="6.67878787878788" name="bottom.rvocalic"/>
  <anchor x="341.78484848484845" y="26.484848484848484" name="bottom.virama"/>
  <anchor x="169.87878787878788" y="90.75757575757575" name="nukta"/>
  <anchor x="351.73333333333335" y="595.2121212121212" name="top"/>
  <anchor x="346.31212121212116" y="595.2121212121212" name="topright"/>
  <anchor x="289.9151515151515" y="0.0" name="vedic"/>
  <outline>
    <contour>
      <point x="343.0272727272727" y="-5.121212121212121" type="line"/>
      <point x="346.6" y="-4.121212121212121" type="line"/>
      <point x="346.6" y="487.1727272727273" type="line"/>
      <point x="334.26060606060605" y="473.7090909090909" type="line"/>
      <point x="336.9848484848485" y="475.0090909090909"/>
      <point x="341.41212121212124" y="476.0090909090909"/>
      <point x="346.3515151515151" y="476.0090909090909" type="curve" smooth="yes"/>
      <point x="425.27878787878785" y="476.0090909090909"/>
      <point x="514.1939393939394" y="404.1484848484848"/>
      <point x="514.1939393939394" y="299.8363636363636" type="curve" smooth="yes"/>
      <point x="514.1939393939394" y="279.0151515151515"/>
      <point x="509.71212121212125" y="269.30606060606056"/>
      <point x="502.81212121212127" y="259.8181818181818" type="curve"/>
      <point x="512.8151515151515" y="263.0787878787879" type="line"/>
      <point x="508.62424242424237" y="291.2606060606061"/>
      <point x="491.18181818181813" y="306.26060606060605"/>
      <point x="468.53939393939396" y="306.26060606060605" type="curve" smooth="yes"/>
      <point x="439.8151515151515" y="306.26060606060605"/>
      <point x="423.5575757575758" y="285.3515151515152"/>
      <point x="423.5575757575758" y="256.56969696969696" type="curve" smooth="yes"/>
      <point x="423.5575757575758" y="225.5090909090909"/>
      <point x="443.6060606060607" y="203.26666666666668"/>
      <point x="474.4454545454545" y="203.26666666666668" type="curve" smooth="yes"/>
      <point x="507.66969696969693" y="203.26666666666668"/>
      <point x="539.5878787878787" y="232.46363636363634"/>
      <point x="539.5878787878787" y="299.2181818181818" type="curve" smooth="yes"/>
      <point x="539.5878787878787" y="421.9090909090909"/>
      <point x="439.43636363636364" y="507.1848484848485"/>
      <point x="338.0090909090909" y="515.5454545454546" type="curve"/>
      <point x="346.6" y="500.07878787878786" type="line"/>
      <point x="346.6" y="595.2121212121212" type="line"/>
      <point x="598.3636363636364" y="595.2121212121212" type="line"/>
      <point x="581.5636363636363" y="622.0" type="line"/>
      <point x="-18.32121212121212" y="622.0" type="line"/>
      <point x="-2.0727272727272736" y="595.2121212121212" type="line"/>
      <point x="318.0212121212121" y="595.2121212121212" type="line"/>
      <point x="318.0212121212121" y="500.630303030303" type="line"/>
      <point x="325.51818181818186" y="516.3939393939395" type="line"/>
      <point x="226.3909090909091" y="474.90909090909093"/>
      <point x="126.2121212121212" y="409.0484848484848"/>
      <point x="36.987878787878785" y="335.44848484848484" type="curve"/>
      <point x="60.3" y="289.75757575757575" type="line"/>
      <point x="172.169696969697" y="244.15151515151513"/>
      <point x="271.05151515151516" y="146.6909090909091"/>
      <point x="323.2757575757576" y="12.166666666666668" type="curve"/>
    </contour>
    <contour>
      <point x="318.0212121212121" y="53.130303030303025" type="line"/>
      <point x="327.8030303030303" y="51.50606060606061" type="line"/>
      <point x="284.53333333333336" y="176.35757575757577"/>
      <point x="175.07878787878786" y="277.4090909090909"/>
      <point x="72.83333333333334" y="324.8484848484849" type="curve"/>
      <point x="73.38484848484849" y="313.68787878787884" type="line"/>
      <point x="156.3030303030303" y="388.02727272727276"/>
      <point x="256.7060606060606" y="445.9939393939394"/>
      <point x="324.6212121212122" y="474.6303030303031" type="curve"/>
      <point x="318.0212121212121" y="488.08484848484846" type="line"/>
    </contour>
  </outline>
</glyph>
<glyph name="kha-beng" format="2">
  <advance width="467.03030303030306"/>
  <unicode hex="0996"/>
  <anchor x="380.1787878787879" y="15.030303030303031" name="bottom"/>
  <anchor x="386.9121212121212" y="37.6969696969697" name="bottom.rakaar"/>
  <anchor x="388.0151515151515" y="7.272727272727273" name="bottom.rvocalic"/>
  <anchor x="380.0939393939394" y="18.92121212121212" name="bottom.virama"/>
  <anchor x="386.3818181818182" y="561.6545454545455" name="top"/>
  <anchor x="386.1848484848485" y="563.1090909090909" name="topright"/>
  <anchor x="217.49090909090913" y="0.0" name="vedic"/>
  <outline>
    <contour>
      <point x="384.5909090909091" y="-5.121212121212121" type="line"/>
      <point x="388.0151515151515" y="-4.121212121212121" type="line"/>
      <point x="388.0151515151515" y="595.2121212121212" type="line"/>
      <point x="485.35151515151523" y="595.2121212121212" type="line"/>
      <point x="469.03939393939396" y="622.0" type="line"/>
      <point x="387.5696969696969" y="622.0" type="line"/>
      <point x="384.76060606060605" y="661.8484848484849" type="line"/>
      <point x="362.8848484848485" y="679.0909090909091" type="line"/>
      <point x="359.43636363636364" y="678.0909090909091" type="line"/>
      <point x="359.43636363636364" y="53.57575757575758" type="line"/>
      <point x="368.77272727272725" y="53.43636363636364" type="line"/>
      <point x="326.90909090909093" y="175.08484848484846"/>
      <point x="220.74242424242422" y="276.1030303030303"/>
      <point x="119.51818181818183" y="315.74242424242425" type="curve"/>
      <point x="126.95151515151514" y="303.19090909090903" type="line"/>
      <point x="232.03939393939396" y="323.25454545454545"/>
      <point x="283.46363636363634" y="380.8757575757576"/>
      <point x="283.46363636363634" y="469.4454545454546" type="curve" smooth="yes"/>
      <point x="283.46363636363634" y="549.5151515151515"/>
      <point x="250.09090909090912" y="593.539393939394"/>
      <point x="221.3030303030303" y="623.9151515151516" type="curve"/>
      <point x="186.82121212121214" y="546.1363636363636"/>
      <point x="131.38484848484848" y="505.3272727272727"/>
      <point x="80.50909090909092" y="505.3272727272727" type="curve" smooth="yes"/>
      <point x="73.6969696969697" y="505.3272727272727"/>
      <point x="65.05757575757576" y="506.75151515151515"/>
      <point x="60.54545454545455" y="509.1757575757576" type="curve"/>
      <point x="77.83636363636364" y="491.75757575757575" type="line"/>
      <point x="88.86060606060605" y="503.8181818181818"/>
      <point x="92.5848484848485" y="513.4757575757576"/>
      <point x="92.5848484848485" y="530.4242424242424" type="curve" smooth="yes"/>
      <point x="92.5848484848485" y="554.630303030303"/>
      <point x="78.71212121212122" y="573.0909090909091"/>
      <point x="52.07878787878788" y="573.0909090909091" type="curve" smooth="yes"/>
      <point x="26.151515151515152" y="573.0909090909091"/>
      <point x="9.00606060606061" y="554.9060606060607"/>
      <point x="9.00606060606061" y="526.3878787878788" type="curve" smooth="yes"/>
      <point x="9.00606060606061" y="488.4212121212121"/>
      <point x="39.42727272727273" y="469.6969696969697"/>
      <point x="77.0030303030303" y="469.6969696969697" type="curve" smooth="yes"/>
      <point x="140.56363636363636" y="469.6969696969697"/>
      <point x="206.9606060606061" y="513.5909090909091"/>
      <point x="238.94848484848487" y="588.0757575757575" type="curve"/>
      <point x="218.7969696969697" y="581.5696969696969" type="line"/>
      <point x="236.73939393939398" y="562.9333333333333"/>
      <point x="255.03333333333333" y="529.7060606060605"/>
      <point x="255.03333333333333" y="477.0121212121212" type="curve" smooth="yes"/>
      <point x="255.03333333333333" y="381.8575757575757"/>
      <point x="174.41212121212124" y="344.0424242424242"/>
      <point x="82.84545454545456" y="334.6333333333333" type="curve"/>
      <point x="98.16969696969697" y="282.06060606060606" type="line"/>
      <point x="211.3" y="248.830303030303"/>
      <point x="312.8212121212121" y="148.73636363636365"/>
      <point x="364.39393939393943" y="13.206060606060607" type="curve"/>
    </contour>
  </outline>
</glyph>
<glyph name="ga-beng" format="2">
  <advance width="469.20606060606065"/>
  <unicode hex="0997"/>
  <anchor x="375.71515151515155" y="59.15151515151514" name="bottom"/>
  <anchor x="389.08787878787876" y="-14.03030303030303" name="bottom.rakaar"/>
  <anchor x="390.1909090909091" y="-2.0787878787878786" name="bottom.rvocalic"/>
  <anchor x="381.0545454545454" y="5.212121212121212" name="bottom.virama"/>
  <anchor x="388.55757575757576" y="548.1818181818181" name="top"/>
  <anchor x="388.360606060606" y="563.1090909090909" name="topright"/>
  <anchor x="234.22121212121212" y="0.0" name="vedic"/>
  <outline>
    <contour>
      <point x="387.04242424242426" y="-13.181818181818182" type="line"/>
      <point x="390.1909090909091" y="-12.181818181818182" type="line"/>
      <point x="390.1909090909091" y="595.2121212121212" type="line"/>
      <point x="487.52727272727276" y="595.2121212121212" type="line"/>
      <point x="471.2151515151515" y="622.0" type="line"/>
      <point x="389.74545454545455" y="622.0" type="line"/>
      <point x="386.93636363636364" y="661.8484848484849" type="line"/>
      <point x="365.06060606060606" y="679.0909090909091" type="line"/>
      <point x="361.6121212121212" y="678.0909090909091" type="line"/>
      <point x="361.6121212121212" y="562.9242424242424" type="line" smooth="yes"/>
      <point x="361.6121212121212" y="518.4060606060607"/>
      <point x="362.4" y="471.94848484848484"/>
      <point x="365.1454545454545" y="428.3818181818182" type="curve"/>
      <point x="372.7151515151515" y="420.8181818181818" type="line"/>
      <point x="330.33030303030307" y="548.1818181818181"/>
      <point x="265.53333333333336" y="630.5757575757576"/>
      <point x="181.71212121212122" y="630.5757575757576" type="curve" smooth="yes"/>
      <point x="106.7939393939394" y="630.5757575757576"/>
      <point x="50.0909090909091" y="564.690909090909"/>
      <point x="21.50909090909091" y="454.7" type="curve"/>
      <point x="59.193939393939395" y="430.03030303030306" type="line"/>
      <point x="85.25757575757576" y="454.93030303030304"/>
      <point x="113.94545454545455" y="471.55757575757576"/>
      <point x="149.94242424242427" y="471.55757575757576" type="curve" smooth="yes"/>
      <point x="190.73636363636365" y="471.55757575757576"/>
      <point x="210.86666666666667" y="441.369696969697"/>
      <point x="210.86666666666667" y="404.45757575757574" type="curve" smooth="yes"/>
      <point x="210.86666666666667" y="349.6757575757576"/>
      <point x="179.4909090909091" y="304.8242424242424"/>
      <point x="116.94545454545455" y="265.0484848484848" type="curve"/>
      <point x="143.4818181818182" y="228.04242424242423" type="line"/>
      <point x="201.26969696969698" y="271.8636363636364"/>
      <point x="241.80303030303028" y="324.1515151515151"/>
      <point x="241.80303030303028" y="397.3636363636364" type="curve" smooth="yes"/>
      <point x="241.80303030303028" y="460.330303030303"/>
      <point x="206.24848484848485" y="501.58484848484846"/>
      <point x="150.8818181818182" y="501.58484848484846" type="curve" smooth="yes"/>
      <point x="112.69393939393939" y="501.58484848484846"/>
      <point x="79.42121212121212" y="484.92727272727274"/>
      <point x="56.47575757575757" y="460.6212121212121" type="curve"/>
      <point x="65.4878787878788" y="454.6242424242424" type="line"/>
      <point x="87.75454545454546" y="553.5727272727273"/>
      <point x="136.54848484848486" y="596.7121212121212"/>
      <point x="189.1878787878788" y="596.7121212121212" type="curve" smooth="yes"/>
      <point x="258.20606060606065" y="596.7121212121212"/>
      <point x="319.6212121212121" y="518.5424242424242"/>
      <point x="367.4757575757576" y="370.7969696969697" type="curve"/>
      <point x="361.6121212121212" y="416.2969696969697" type="line"/>
      <point x="361.6121212121212" y="3.0" type="line"/>
    </contour>
  </outline>
</glyph>
<glyph name="gha-beng" format="2">
  <advance width="426.56969696969696"/>
  <unicode hex="0998"/>
  <anchor x="339.8666666666667" y="15.030303030303031" name="bottom"/>
  <anchor x="345.56060606060606" y="37.6969696969697" name="bottom.rakaar"/>
  <anchor x="347.55454545454546" y="6.67878787878788" name="bottom.rvocalic"/>
  <anchor x="340.3757575757576" y="18.92121212121212" name="bottom.virama"/>
  <anchor x="349.3787878787879" y="595.2121212121212" name="top"/>
  <anchor x="347.2666666666667" y="595.2121212121212" name="topright"/>
  <anchor x="213.16666666666669" y="0.0" name="vedic"/>
  <outline>
    <contour>
      <point x="343.98181818181814" y="-5.121212121212121" type="line"/>
      <point x="347.55454545454546" y="-4.121212121212121" type="line"/>
      <point x="347.55454545454546" y="595.2121212121212" type="line"/>
      <point x="444.8909090909091" y="595.2121212121212" type="line"/>
      <point x="428.6424242424242" y="622.0" type="line"/>
      <point x="-18.32121212121212" y="622.0" type="line"/>
      <point x="-2.0727272727272736" y="595.2121212121212" type="line"/>
      <point x="318.97575757575754" y="595.2121212121212" type="line"/>
      <point x="318.97575757575754" y="53.130303030303025" type="line"/>
      <point x="328.7575757575758" y="51.50606060606061" type="line"/>
      <point x="286.3333333333333" y="176.55757575757576"/>
      <point x="179.66060606060606" y="266.49393939393934"/>
      <point x="73.78787878787878" y="306.9575757575758" type="curve"/>
      <point x="75.80303030303031" y="294.2060606060606" type="line"/>
      <point x="139.7090909090909" y="353.1363636363636"/>
      <point x="208.13939393939393" y="395.3333333333333"/>
      <point x="260.6575757575758" y="427.6242424242424" type="curve"/>
      <point x="243.12121212121212" y="460.230303030303" type="line"/>
      <point x="218.48181818181817" y="439.0212121212121"/>
      <point x="191.03333333333336" y="425.1575757575758"/>
      <point x="160.2818181818182" y="425.1575757575758" type="curve" smooth="yes"/>
      <point x="119.6939393939394" y="425.1575757575758"/>
      <point x="77.24242424242424" y="450.94242424242424"/>
      <point x="77.24242424242424" y="506.5181818181818" type="curve" smooth="yes"/>
      <point x="77.24242424242424" y="570.1151515151515"/>
      <point x="129.10303030303032" y="593.6363636363636"/>
      <point x="169.04545454545456" y="599.6969696969697" type="curve"/>
      <point x="132.21212121212122" y="618.5757575757576" type="line"/>
      <point x="82.63030303030303" y="606.430303030303"/>
      <point x="41.1030303030303" y="573.021212121212"/>
      <point x="41.1030303030303" y="507.4030303030303" type="curve" smooth="yes"/>
      <point x="41.1030303030303" y="442.29090909090905"/>
      <point x="92.56969696969696" y="399.8424242424243"/>
      <point x="160.63333333333333" y="398.91515151515154" type="curve"/>
      <point x="158.83333333333334" y="407.6060606060606" type="line"/>
      <point x="114.4090909090909" y="378.25454545454545"/>
      <point x="77.11818181818182" y="348.91515151515154"/>
      <point x="40.78484848484849" y="316.96363636363634" type="curve"/>
      <point x="61.25454545454545" y="271.8666666666667" type="line"/>
      <point x="172.86969696969697" y="235.70000000000002"/>
      <point x="272.54242424242426" y="148.1090909090909"/>
      <point x="324.230303030303" y="12.166666666666668" type="curve"/>
    </contour>
  </outline>
</glyph>
<glyph name="nga-beng" format="2">
  <advance width="476.08484848484846"/>
  <unicode hex="0999"/>
  <anchor x="319.1393939393939" y="31.87878787878788" name="bottom"/>
  <anchor x="392.6515151515152" y="-48.36363636363636" name="bottom.rakaar"/>
  <anchor x="327.60303030303027" y="47.57575757575758" name="bottom.rvocalic"/>
  <anchor x="300.1212121212121" y="0.0" name="bottom.virama"/>
  <anchor x="251.34242424242422" y="595.2121212121212" name="top"/>
  <anchor x="249.25151515151512" y="595.2121212121212" name="topright"/>
  <anchor x="237.8181818181818" y="0.0" name="vedic"/>
  <outline>
    <contour>
      <point x="287.66666666666663" y="50.18181818181818" type="curve" smooth="yes"/>
      <point x="390.3909090909091" y="50.18181818181818"/>
      <point x="447.19090909090914" y="125.61515151515152"/>
      <point x="447.19090909090914" y="246.34848484848487" type="curve" smooth="yes"/>
      <point x="447.19090909090914" y="324.1181818181818"/>
      <point x="423.03636363636366" y="380.1363636363636"/>
      <point x="395.8424242424242" y="414.5909090909091" type="curve"/>
      <point x="360.0757575757575" y="347.9818181818182"/>
      <point x="305.3" y="285.8060606060606"/>
      <point x="255.91515151515156" y="285.8060606060606" type="curve" smooth="yes"/>
      <point x="232.76060606060608" y="285.8060606060606"/>
      <point x="220.38181818181818" y="301.17272727272723"/>
      <point x="220.38181818181818" y="327.8393939393939" type="curve" smooth="yes"/>
      <point x="220.38181818181818" y="489.7666666666666" type="line" smooth="yes"/>
      <point x="220.38181818181818" y="567.2787878787879"/>
      <point x="246.02424242424243" y="603.321212121212"/>
      <point x="284.5939393939394" y="603.321212121212" type="curve" smooth="yes"/>
      <point x="316.1030303030303" y="603.321212121212"/>
      <point x="338.8545454545455" y="578.230303030303"/>
      <point x="338.8545454545455" y="530.0848484848485" type="curve" smooth="yes"/>
      <point x="338.8545454545455" y="483.96363636363634"/>
      <point x="320.8727272727273" y="446.06060606060606"/>
      <point x="265.72424242424245" y="446.06060606060606" type="curve" smooth="yes"/>
      <point x="190.60606060606062" y="446.06060606060606"/>
      <point x="148.42424242424244" y="503.46969696969694"/>
      <point x="112.46363636363637" y="620.7666666666667" type="curve"/>
      <point x="91.0060606060606" y="611.4545454545455" type="line"/>
      <point x="117.53333333333333" y="520.0484848484848"/>
      <point x="163.830303030303" y="414.6363636363636"/>
      <point x="265.8484848484848" y="414.6363636363636" type="curve" smooth="yes"/>
      <point x="342.56363636363636" y="414.6363636363636"/>
      <point x="366.7969696969697" y="473.4939393939394"/>
      <point x="366.8606060606061" y="525.3878787878789" type="curve" smooth="yes"/>
      <point x="366.92424242424244" y="585.260606060606"/>
      <point x="338.52424242424246" y="632.7878787878788"/>
      <point x="283.8939393939394" y="632.7878787878788" type="curve" smooth="yes"/>
      <point x="225.33939393939397" y="632.7878787878788"/>
      <point x="191.6757575757576" y="581.7272727272727"/>
      <point x="191.6757575757576" y="499.0242424242424" type="curve" smooth="yes"/>
      <point x="191.6757575757576" y="326.0272727272727" type="line" smooth="yes"/>
      <point x="191.6757575757576" y="298.19090909090914"/>
      <point x="200.87575757575758" y="279.26363636363635"/>
      <point x="214.51818181818177" y="266.9303030303031" type="curve" smooth="yes"/>
      <point x="226.6090909090909" y="256.08484848484846"/>
      <point x="242.78181818181818" y="250.5818181818182"/>
      <point x="260.6969696969697" y="250.5818181818182" type="curve" smooth="yes"/>
      <point x="313.41212121212124" y="250.5818181818182"/>
      <point x="367.3181818181818" y="301.07575757575756"/>
      <point x="408.1484848484849" y="369.1242424242424" type="curve"/>
      <point x="390.6848484848485" y="369.4242424242424" type="line"/>
      <point x="405.6333333333333" y="347.5272727272727"/>
      <point x="419.8666666666667" y="308.56969696969696"/>
      <point x="419.8666666666667" y="250.65454545454548" type="curve" smooth="yes"/>
      <point x="419.8666666666667" y="140.93939393939394"/>
      <point x="366.4727272727273" y="89.0151515151515"/>
      <point x="287.54545454545456" y="89.0151515151515" type="curve" smooth="yes"/>
      <point x="148.46363636363637" y="89.0151515151515"/>
      <point x="90.80909090909093" y="243.88484848484848"/>
      <point x="46.3939393939394" y="496.96363636363634" type="curve"/>
      <point x="23.14848484848485" y="491.77272727272725" type="line"/>
      <point x="71.26060606060607" y="186.1848484848485"/>
      <point x="145.66363636363636" y="50.18181818181818"/>
    </contour>
  </outline>
</glyph>
<glyph name="ca-beng" format="2">
  <advance width="395.56666666666666"/>
  <unicode hex="099A"/>
  <anchor x="245.75151515151518" y="43.39393939393939" name="bottom"/>
  <anchor x="293.3454545454545" y="0.0" name="bottom.rakaar"/>
  <anchor x="235.6818181818182" y="49.63636363636364" name="bottom.rvocalic"/>
  <anchor x="197.19696969696972" y="35.21212121212121" name="bottom.virama"/>
  <anchor x="106.1090909090909" y="595.2121212121212" name="top"/>
  <anchor x="108.26060606060607" y="595.2121212121212" name="topright"/>
  <anchor x="197.7090909090909" y="0.0" name="vedic"/>
  <outline>
    <contour>
      <point x="165.36666666666667" y="45.96969696969697" type="curve" smooth="yes"/>
      <point x="267.9575757575758" y="45.96969696969697"/>
      <point x="345.1484848484848" y="216.37878787878785"/>
      <point x="344.6757575757576" y="347.76363636363635" type="curve" smooth="yes"/>
      <point x="344.6757575757576" y="371.769696969697"/>
      <point x="326.3030303030303" y="388.1636363636364"/>
      <point x="317.7969696969697" y="393.3090909090909" type="curve"/>
      <point x="231.84242424242424" y="403.96363636363634"/>
      <point x="148.11818181818182" y="465.1787878787879"/>
      <point x="101.57575757575758" y="568.2787878787879" type="curve"/>
      <point x="97.86666666666666" y="535.0181818181818" type="line"/>
      <point x="135.95757575757577" y="432.92121212121214"/>
      <point x="227.22727272727272" y="368.3515151515152"/>
      <point x="321.74848484848485" y="355.76666666666665" type="curve"/>
      <point x="310.0909090909091" y="368.8666666666667" type="line"/>
      <point x="311.76363636363635" y="222.11515151515152"/>
      <point x="235.98787878787877" y="78.9"/>
      <point x="161.61212121212122" y="78.9" type="curve" smooth="yes"/>
      <point x="129.78484848484848" y="78.9"/>
      <point x="107.59393939393938" y="103.61818181818181"/>
      <point x="107.59393939393938" y="142.34545454545454" type="curve" smooth="yes"/>
      <point x="107.59393939393938" y="595.2121212121212" type="line"/>
      <point x="413.8878787878788" y="595.2121212121212" type="line"/>
      <point x="397.08787878787876" y="622.0" type="line"/>
      <point x="-18.32121212121212" y="622.0" type="line"/>
      <point x="-1.2454545454545443" y="595.2121212121212" type="line"/>
      <point x="79.01515151515153" y="595.2121212121212" type="line"/>
      <point x="79.01515151515153" y="141.55757575757576" type="line" smooth="yes"/>
      <point x="79.01515151515153" y="83.52424242424243"/>
      <point x="115.28181818181818" y="45.96969696969697"/>
    </contour>
  </outline>
</glyph>
<glyph name="cha-beng" format="2">
  <advance width="424.6818181818182"/>
  <unicode hex="099B"/>
  <anchor x="248.2121212121212" y="94.33939393939394" name="bottom"/>
  <anchor x="345.25757575757575" y="-99.57575757575758" name="bottom.rakaar"/>
  <anchor x="288.68787878787884" y="92.36363636363635" name="bottom.rvocalic"/>
  <anchor x="230.1212121212121" y="81.72727272727272" name="bottom.virama"/>
  <anchor x="95.04545454545456" y="595.2121212121212" name="top"/>
  <anchor x="97.1969696969697" y="595.2121212121212" name="topright"/>
  <anchor x="212.19090909090912" y="0.0" name="vedic"/>
  <outline>
    <contour>
      <point x="401.0848484848485" y="-46.1030303030303" type="curve"/>
      <point x="417.01212121212126" y="-28.86060606060606" type="line"/>
      <point x="361.1818181818182" y="47.36969696969697"/>
      <point x="265.7454545454546" y="153.14545454545453"/>
      <point x="145.1969696969697" y="198.35454545454547" type="curve"/>
      <point x="140.97272727272727" y="186.95757575757577" type="line"/>
      <point x="162.230303030303" y="182.12727272727273"/>
      <point x="178.71212121212122" y="180.65454545454546"/>
      <point x="198.28484848484848" y="180.65454545454546" type="curve" smooth="yes"/>
      <point x="293.53333333333336" y="180.65454545454546"/>
      <point x="365.3787878787879" y="241.0878787878788"/>
      <point x="365.3787878787879" y="351.0848484848484" type="curve" smooth="yes"/>
      <point x="365.3787878787879" y="451.76060606060605"/>
      <point x="309.1848484848485" y="504.79696969696965"/>
      <point x="228.63939393939395" y="504.79696969696965" type="curve" smooth="yes"/>
      <point x="167.90606060606063" y="504.79696969696965"/>
      <point x="117.96060606060605" y="530.6969696969697"/>
      <point x="92.61212121212122" y="595.2121212121212" type="curve"/>
      <point x="88.35151515151514" y="573.2727272727273" type="line"/>
      <point x="110.36363636363636" y="508.969696969697"/>
      <point x="156.36363636363637" y="474.5515151515151"/>
      <point x="230.8151515151515" y="472.4" type="curve"/>
      <point x="219.67272727272726" y="487.57575757575756" type="line"/>
      <point x="220.1909090909091" y="389.6363636363636"/>
      <point x="180.4848484848485" y="312.49393939393934"/>
      <point x="134.5878787878788" y="312.49393939393934" type="curve" smooth="yes"/>
      <point x="110.30909090909091" y="312.49393939393934"/>
      <point x="97.12424242424242" y="328.860606060606"/>
      <point x="97.12424242424242" y="359.6545454545454" type="curve" smooth="yes"/>
      <point x="97.12424242424242" y="595.2121212121212" type="line"/>
      <point x="443.00303030303036" y="595.2121212121212" type="line"/>
      <point x="426.6060606060607" y="622.0" type="line"/>
      <point x="-18.32121212121212" y="622.0" type="line"/>
      <point x="-2.0727272727272736" y="595.2121212121212" type="line"/>
      <point x="68.54545454545455" y="595.2121212121212" type="line"/>
      <point x="68.54545454545455" y="359.01515151515156" type="line" smooth="yes"/>
      <point x="68.54545454545455" y="310.03939393939396"/>
      <point x="98.04242424242425" y="279.45454545454544"/>
      <point x="138.36969696969697" y="279.45454545454544" type="curve" smooth="yes"/>
      <point x="200.26969696969698" y="279.45454545454544"/>
      <point x="252.88787878787878" y="363.8969696969697"/>
      <point x="256.1484848484848" y="489.06060606060606" type="curve"/>
      <point x="242.12424242424242" y="475.45454545454544" type="line"/>
      <point x="292.69090909090903" y="471.3666666666667"/>
      <point x="336.10303030303027" y="442.3333333333333"/>
      <point x="336.10303030303027" y="358.4212121212121" type="curve" smooth="yes"/>
      <point x="336.10303030303027" y="257.3636363636363"/>
      <point x="271.45454545454544" y="215.24242424242425"/>
      <point x="191.1090909090909" y="215.24242424242425" type="curve" smooth="yes"/>
      <point x="145.29090909090908" y="215.24242424242425"/>
      <point x="112.54545454545455" y="224.6030303030303"/>
      <point x="85.16363636363636" y="239.94242424242424" type="curve"/>
      <point x="100.5939393939394" y="177.84242424242424" type="line"/>
      <point x="222.70909090909092" y="145.05757575757576"/>
      <point x="322.5181818181818" y="55.55454545454545"/>
    </contour>
  </outline>
</glyph>
<glyph name="ja-beng" format="2">
  <advance width="620.4939393939394"/>
  <unicode hex="099C"/>
  <anchor x="529.6121212121213" y="88.26060606060605" name="bottom"/>
  <anchor x="544.0333333333334" y="81.89696969696969" name="bottom.rakaar"/>
  <anchor x="544.560606060606" y="23.53333333333333" name="bottom.rvocalic"/>
  <anchor x="536.2121212121212" y="11.896969696969698" name="bottom.virama"/>
  <anchor x="337.94545454545454" y="595.2121212121212" name="top"/>
  <anchor x="340.6484848484849" y="595.2121212121212" name="topright"/>
  <anchor x="310.21515151515155" y="0.0" name="vedic"/>
  <outline>
    <contour>
      <point x="275.6545454545454" y="75.12121212121212" type="curve" smooth="yes"/>
      <point x="370.9121212121212" y="75.12121212121212"/>
      <point x="418.6969696969697" y="147.85757575757577"/>
      <point x="418.6969696969697" y="249.1060606060606" type="curve" smooth="yes"/>
      <point x="418.6969696969697" y="310.5909090909091"/>
      <point x="403.5333333333333" y="365.3939393939394"/>
      <point x="362.3424242424243" y="415.56363636363636" type="curve"/>
      <point x="327.2939393939394" y="343.5121212121212"/>
      <point x="293.1242424242424" y="317.20303030303035"/>
      <point x="254.93939393939394" y="317.20303030303035" type="curve" smooth="yes"/>
      <point x="217.89696969696968" y="317.20303030303035"/>
      <point x="192.23030303030305" y="347.569696969697"/>
      <point x="192.23030303030305" y="400.9636363636364" type="curve" smooth="yes"/>
      <point x="192.23030303030305" y="499.69090909090914"/>
      <point x="282.53333333333336" y="572.2121212121212"/>
      <point x="347.36666666666673" y="595.2121212121212" type="curve"/>
      <point x="638.8151515151515" y="595.2121212121212" type="line"/>
      <point x="622.8030303030304" y="622.0" type="line"/>
      <point x="-18.32121212121212" y="622.0" type="line"/>
      <point x="-2.0727272727272736" y="595.2121212121212" type="line"/>
      <point x="312.23333333333335" y="595.2121212121212" type="line"/>
      <point x="300.9818181818182" y="606.0060606060606" type="line"/>
      <point x="239.93636363636367" y="580.060606060606"/>
      <point x="161.5909090909091" y="506.96363636363634"/>
      <point x="161.5909090909091" y="405.2515151515152" type="curve" smooth="yes"/>
      <point x="161.5909090909091" y="325.83636363636367"/>
      <point x="206.16969696969696" y="281.53333333333336"/>
      <point x="259.8515151515152" y="281.53333333333336" type="curve" smooth="yes"/>
      <point x="315.869696969697" y="281.53333333333336"/>
      <point x="355.1181818181818" y="329.3030303030303"/>
      <point x="380.58484848484846" y="379.1515151515151" type="curve"/>
      <point x="359.1666666666667" y="375.03636363636366" type="line"/>
      <point x="379.40909090909093" y="342.5333333333333"/>
      <point x="391.9242424242425" y="311.830303030303"/>
      <point x="391.9242424242425" y="257.1030303030303" type="curve" smooth="yes"/>
      <point x="391.9242424242425" y="163.70000000000002"/>
      <point x="347.8060606060606" y="113.2969696969697"/>
      <point x="274.27878787878785" y="113.2969696969697" type="curve" smooth="yes"/>
      <point x="156.02121212121213" y="113.2969696969697"/>
      <point x="85.92424242424242" y="251.77272727272728"/>
      <point x="54.14545454545454" y="496.3090909090909" type="curve"/>
      <point x="30.83939393939394" y="491.8181818181818" type="line"/>
      <point x="68.0969696969697" y="188.49393939393943"/>
      <point x="155.74545454545455" y="75.12121212121212"/>
    </contour>
    <contour>
      <point x="522.490909090909" y="11.393939393939394" type="curve"/>
      <point x="544.560606060606" y="19.836363636363636" type="line"/>
      <point x="527.3545454545454" y="83.31818181818181"/>
      <point x="513.2181818181818" y="143.06666666666666"/>
      <point x="513.2181818181818" y="231.20909090909092" type="curve" smooth="yes"/>
      <point x="513.2181818181818" y="330.90909090909093"/>
      <point x="534.3454545454545" y="395.6424242424243"/>
      <point x="566.5484848484848" y="442.4848484848485" type="curve"/>
      <point x="546.1575757575757" y="477.3939393939394" type="line"/>
      <point x="457.71212121212125" y="481.3939393939394"/>
      <point x="402.26666666666665" y="514.0181818181818"/>
      <point x="358.73636363636365" y="611.0545454545455" type="curve"/>
      <point x="336.23636363636365" y="598.2424242424242" type="line"/>
      <point x="381.82727272727277" y="490.73333333333335"/>
      <point x="454.01818181818186" y="448.07272727272726"/>
      <point x="534.0333333333334" y="442.2909090909091" type="curve"/>
      <point x="529.9030303030303" y="455.2878787878788" type="line"/>
      <point x="505.6484848484849" y="414.70909090909095"/>
      <point x="483.9787878787878" y="340.5545454545454"/>
      <point x="483.9787878787878" y="245.86363636363637" type="curve" smooth="yes"/>
      <point x="483.9787878787878" y="158.76969696969695"/>
      <point x="499.28484848484845" y="86.16060606060606"/>
    </contour>
  </outline>
</glyph>
<glyph name="jha-beng" format="2">
  <advance width="539.9090909090909"/>
  <unicode hex="099D"/>
  <anchor x="338.9121212121212" y="15.030303030303031" name="bottom"/>
  <anchor x="344.60606060606057" y="37.6969696969697" name="bottom.rakaar"/>
  <anchor x="346.6" y="6.67878787878788" name="bottom.rvocalic"/>
  <anchor x="339.42121212121214" y="18.92121212121212" name="bottom.virama"/>
  <anchor x="347.1515151515151" y="595.2121212121212" name="top"/>
  <anchor x="388.769696969697" y="595.2121212121212" name="topleft"/>
  <anchor x="345.0393939393939" y="595.2121212121212" name="topright"/>
  <anchor x="269.560606060606" y="0.0" name="vedic"/>
  <outline>
    <contour>
      <point x="343.0272727272727" y="-5.121212121212121" type="line"/>
      <point x="346.6" y="-4.121212121212121" type="line"/>
      <point x="346.6" y="622.0" type="line"/>
      <point x="-18.32121212121212" y="622.0" type="line"/>
      <point x="-2.0727272727272736" y="595.2121212121212" type="line"/>
      <point x="318.0212121212121" y="595.2121212121212" type="line"/>
      <point x="318.0212121212121" y="500.8848484848485" type="line"/>
      <point x="325.51818181818186" y="516.3939393939395" type="line"/>
      <point x="225.83939393939394" y="474.90909090909093"/>
      <point x="126.2121212121212" y="409.0484848484848"/>
      <point x="36.987878787878785" y="335.44848484848484" type="curve"/>
      <point x="60.3" y="289.75757575757575" type="line"/>
      <point x="172.169696969697" y="244.15151515151513"/>
      <point x="271.05151515151516" y="146.6909090909091"/>
      <point x="323.2757575757576" y="12.166666666666668" type="curve"/>
    </contour>
    <contour>
      <point x="318.0212121212121" y="53.130303030303025" type="line"/>
      <point x="327.8030303030303" y="51.50606060606061" type="line"/>
      <point x="284.53333333333336" y="176.35757575757577"/>
      <point x="175.07878787878786" y="277.4090909090909"/>
      <point x="72.83333333333334" y="324.8484848484849" type="curve"/>
      <point x="73.38484848484849" y="313.6242424242424" type="line"/>
      <point x="156.53939393939393" y="387.6484848484849"/>
      <point x="256.7060606060606" y="445.93030303030304"/>
      <point x="324.6212121212122" y="474.56666666666666" type="curve"/>
      <point x="318.0212121212121" y="487.830303030303" type="line"/>
    </contour>
    <contour>
      <point x="457.4484848484848" y="95.39696969696969" type="line"/>
      <point x="460.8939393939394" y="96.39696969696969" type="line"/>
      <point x="460.8939393939394" y="595.2121212121212" type="line"/>
      <point x="558.230303030303" y="595.2121212121212" type="line"/>
      <point x="541.9181818181818" y="622.0" type="line"/>
      <point x="460.4484848484848" y="622.0" type="line"/>
      <point x="457.639393939394" y="661.8484848484849" type="line"/>
      <point x="435.7636363636364" y="679.0909090909091" type="line"/>
      <point x="432.31515151515157" y="678.0909090909091" type="line"/>
      <point x="432.31515151515157" y="153.64848484848486" type="line"/>
      <point x="442.0969696969697" y="152.02424242424243" type="line"/>
      <point x="419.9969696969697" y="216.1727272727273"/>
      <point x="381.6454545454545" y="275.50000000000006"/>
      <point x="336.07575757575756" y="321.46969696969694" type="curve"/>
      <point x="332.42727272727274" y="282.3272727272727" type="line"/>
      <point x="376.27878787878785" y="237.56363636363636"/>
      <point x="412.3666666666667" y="178.9272727272727"/>
      <point x="437.569696969697" y="112.68484848484849" type="curve"/>
    </contour>
  </outline>
</glyph>
<glyph name="nya-beng" format="2">
  <advance width="730.1696969696969"/>
  <unicode hex="099E"/>
  <anchor x="444.7363636363636" y="11.878787878787879" name="bottom"/>
  <anchor x="461.94848484848484" y="34.54545454545455" name="bottom.rakaar"/>
  <anchor x="452.42424242424244" y="3.2727272727272734" name="bottom.rvocalic"/>
  <anchor x="445.24545454545455" y="15.769696969696966" name="bottom.virama"/>
  <anchor x="393.71515151515155" y="595.2121212121212" name="top"/>
  <anchor x="400.97878787878795" y="595.2121212121212" name="topright"/>
  <anchor x="364.96666666666664" y="0.0" name="vedic"/>
  <outline>
    <contour>
      <point x="581.630303030303" y="85.38787878787878" type="curve" smooth="yes"/>
      <point x="641.9787878787879" y="85.38787878787878"/>
      <point x="672.2757575757576" y="139.54545454545456"/>
      <point x="672.2757575757576" y="214.9636363636364" type="curve" smooth="yes"/>
      <point x="672.2757575757576" y="277.0818181818182"/>
      <point x="647.6848484848484" y="321.4787878787879"/>
      <point x="621.9363636363637" y="346.0848484848485" type="curve"/>
      <point x="625.5696969696969" y="328.72121212121215" type="line"/>
      <point x="648.3939393939394" y="357.5060606060606"/>
      <point x="669.6515151515152" y="406.54242424242426"/>
      <point x="669.6515151515152" y="473.4484848484849" type="curve" smooth="yes"/>
      <point x="669.6515151515152" y="538.9666666666667"/>
      <point x="641.3727272727273" y="595.8727272727273"/>
      <point x="587.7030303030302" y="595.8727272727273" type="curve" smooth="yes"/>
      <point x="506.6484848484849" y="595.8727272727273"/>
      <point x="447.3969696969697" y="449.3575757575758"/>
      <point x="440.7969696969697" y="378.8727272727273" type="curve"/>
      <point x="440.7969696969697" y="299.72121212121215" type="line"/>
      <point x="453.20909090909095" y="188.08484848484852"/>
      <point x="509.83636363636367" y="85.38787878787878"/>
    </contour>
    <contour>
      <point x="579.8060606060606" y="123.05454545454545" type="curve" smooth="yes"/>
      <point x="511.97272727272724" y="123.05454545454545"/>
      <point x="457.10606060606057" y="244.3181818181818"/>
      <point x="457.10606060606057" y="333.6909090909091" type="curve" smooth="yes"/>
      <point x="457.10606060606057" y="409.04848484848486"/>
      <point x="514.3909090909091" y="559.0545454545454"/>
      <point x="587.8787878787879" y="559.0545454545454" type="curve" smooth="yes"/>
      <point x="623.2878787878789" y="559.0545454545454"/>
      <point x="643.3030303030303" y="524.2969696969697"/>
      <point x="643.3030303030303" y="478.7818181818182" type="curve" smooth="yes"/>
      <point x="643.3030303030303" y="421.6030303030303"/>
      <point x="623.1424242424242" y="376.0848484848485"/>
      <point x="591.8878787878788" y="352.7818181818182" type="curve"/>
      <point x="614.5545454545455" y="351.23636363636365" type="line"/>
      <point x="597.7303030303029" y="373.7818181818182"/>
      <point x="580.3484848484849" y="380.20606060606065"/>
      <point x="564.1272727272727" y="380.20606060606065" type="curve" smooth="yes"/>
      <point x="539.7242424242424" y="380.20606060606065"/>
      <point x="521.5090909090909" y="363.72424242424245"/>
      <point x="521.5090909090909" y="334.90303030303033" type="curve" smooth="yes"/>
      <point x="521.5090909090909" y="304.2969696969697"/>
      <point x="540.060606060606" y="289.75151515151515"/>
      <point x="565.6151515151515" y="289.75151515151515" type="curve" smooth="yes"/>
      <point x="587.2151515151517" y="289.75151515151515"/>
      <point x="604.6030303030303" y="300.6848484848485"/>
      <point x="620.6757575757575" y="322.93333333333334" type="curve"/>
      <point x="600.4030303030303" y="331.20606060606065" type="line"/>
      <point x="623.3181818181818" y="311.05454545454546"/>
      <point x="646.9454545454545" y="280.39393939393943"/>
      <point x="646.9454545454545" y="219.93333333333337" type="curve" smooth="yes"/>
      <point x="646.9454545454545" y="156.26666666666668"/>
      <point x="621.6" y="123.05454545454545"/>
    </contour>
    <component base="e-beng"/>
  </outline>
</glyph>
<glyph name="tta-beng" format="2">
  <advance width="397.6030303030303"/>
  <unicode hex="099F"/>
  <anchor x="247.23636363636365" y="54.66060606060606" name="bottom"/>
  <anchor x="294.830303030303" y="11.348484848484848" name="bottom.rakaar"/>
  <anchor x="237.35757575757577" y="61.55757575757576" name="bottom.rvocalic"/>
  <anchor x="198.6818181818182" y="46.56060606060606" name="bottom.virama"/>
  <anchor x="199.24848484848485" y="638.1272727272727" name="top"/>
  <anchor x="161.22424242424242" y="652.4575757575758" name="topright"/>
  <anchor x="198.769696969697" y="0.0" name="vedic"/>
  <anchor x="172.54242424242426" y="-40.484848484848484" name="nukta"/>
  <outline>
    <contour>
      <point x="304.93939393939394" y="616.7272727272727" type="curve"/>
      <point x="328.6484848484848" y="616.7272727272727" type="line"/>
      <point x="323.80303030303025" y="727.3818181818182"/>
      <point x="293.94848484848484" y="775.1939393939393"/>
      <point x="225.3969696969697" y="775.1939393939393" type="curve" smooth="yes"/>
      <point x="183.1787878787879" y="775.1939393939393"/>
      <point x="153.4848484848485" y="763.5939393939393"/>
      <point x="106.90606060606059" y="763.5939393939393" type="curve" smooth="yes"/>
      <point x="50.924242424242436" y="763.5939393939393"/>
      <point x="26.754545454545458" y="789.0666666666667"/>
      <point x="26.754545454545458" y="863.8212121212122" type="curve" smooth="yes"/>
      <point x="26.754545454545458" y="875.3303030303031"/>
      <point x="27.754545454545458" y="890.3030303030304"/>
      <point x="29.139393939393944" y="901.0333333333332" type="curve"/>
      <point x="7.003030303030311" y="903.4575757575757" type="line"/>
      <point x="5.40606060606061" y="889.9999999999999"/>
      <point x="4.106060606060609" y="871.530303030303"/>
      <point x="4.106060606060609" y="856.9545454545455" type="curve" smooth="yes"/>
      <point x="4.106060606060609" y="767.0212121212122"/>
      <point x="39.55757575757576" y="729.5212121212121"/>
      <point x="107.16060606060606" y="729.5212121212121" type="curve" smooth="yes"/>
      <point x="157.89999999999998" y="729.5212121212121"/>
      <point x="181.67575757575756" y="741.3333333333334"/>
      <point x="229.27575757575758" y="741.3333333333334" type="curve" smooth="yes"/>
      <point x="285.72727272727275" y="741.3333333333334"/>
      <point x="301.6060606060606" y="694.2727272727273"/>
    </contour>
    <component base="ddha-beng"/>
  </outline>
</glyph>
<glyph name="ttha-beng" format="2">
  <advance width="428.1272727272727"/>
  <unicode hex="09A0"/>
  <anchor x="250.56363636363636" y="3.9393939393939394" name="bottom"/>
  <anchor x="354.99090909090904" y="-23.60606060606061" name="bottom.rakaar"/>
  <anchor x="273.74545454545455" y="17.333333333333332" name="bottom.rvocalic"/>
  <anchor x="253.9090909090909" y="0.0" name="bottom.virama"/>
  <anchor x="330.7212121212121" y="555.8121212121212" name="top"/>
  <anchor x="337.8909090909091" y="616.5545454545454" name="topleft"/>
  <anchor x="241.29696969696968" y="595.2121212121212" name="topright"/>
  <anchor x="213.83939393939394" y="0.0" name="vedic"/>
  <outline>
    <contour>
      <point x="221.16060606060609" y="17.606060606060606" type="curve" smooth="yes"/>
      <point x="313.6969696969697" y="17.606060606060606"/>
      <point x="371.1121212121213" y="92.19393939393939"/>
      <point x="371.1121212121213" y="214.55454545454546" type="curve" smooth="yes"/>
      <point x="371.1121212121213" y="343.12121212121207"/>
      <point x="313.2181818181818" y="463.969696969697"/>
      <point x="223.27272727272728" y="595.2121212121212" type="curve"/>
      <point x="446.4484848484849" y="595.2121212121212" type="line"/>
      <point x="430.6484848484849" y="622.0" type="line"/>
      <point x="197.95151515151517" y="622.0" type="line"/>
      <point x="169.26666666666668" y="667.0909090909091"/>
      <point x="138.68181818181822" y="718.3090909090909"/>
      <point x="138.68181818181822" y="772.6333333333333" type="curve" smooth="yes"/>
      <point x="138.68181818181822" y="812.9333333333334"/>
      <point x="155.64848484848486" y="844.5030303030303"/>
      <point x="195.73030303030302" y="873.4545454545455" type="curve"/>
      <point x="171.95151515151514" y="901.7878787878788" type="line"/>
      <point x="130.84242424242424" y="872.8666666666667"/>
      <point x="108.0939393939394" y="836.3424242424243"/>
      <point x="108.0939393939394" y="784.0363636363636" type="curve" smooth="yes"/>
      <point x="108.0939393939394" y="728.0727272727273"/>
      <point x="135.23030303030305" y="677.8181818181819"/>
      <point x="169.70909090909092" y="622.0" type="curve"/>
      <point x="-18.32121212121212" y="622.0" type="line"/>
      <point x="-2.0727272727272736" y="595.2121212121212" type="line"/>
      <point x="179.71212121212122" y="595.2121212121212" type="line"/>
      <point x="194.72727272727272" y="564.939393939394"/>
      <point x="203.12424242424242" y="503.0727272727272"/>
      <point x="203.12424242424242" y="459.38787878787883" type="curve" smooth="yes"/>
      <point x="203.12424242424242" y="343.5030303030303"/>
      <point x="164.3060606060606" y="271.3727272727273"/>
      <point x="41.35757575757575" y="240.63333333333333" type="curve"/>
      <point x="61.724242424242426" y="90.33030303030304"/>
      <point x="128.25151515151515" y="17.606060606060606"/>
    </contour>
    <contour>
      <point x="218.6090909090909" y="50.06969696969697" type="curve" smooth="yes"/>
      <point x="137.44848484848487" y="50.06969696969697"/>
      <point x="87.81818181818183" y="129.12424242424242"/>
      <point x="78.61818181818181" y="229.15151515151513" type="curve"/>
      <point x="69.7181818181818" y="207.92121212121214" type="line"/>
      <point x="172.1151515151515" y="235.56363636363636"/>
      <point x="230.9333333333333" y="302.5242424242424"/>
      <point x="230.9333333333333" y="434.2969696969697" type="curve" smooth="yes"/>
      <point x="230.9333333333333" y="494.40606060606063"/>
      <point x="218.20606060606056" y="552.4242424242424"/>
      <point x="199.23939393939395" y="603.1212121212121" type="curve"/>
      <point x="195.5848484848485" y="599.969696969697" type="line"/>
      <point x="269.5757575757576" y="483.1515151515152"/>
      <point x="336.94848484848484" y="364.1272727272727"/>
      <point x="336.94848484848484" y="225.2969696969697" type="curve" smooth="yes"/>
      <point x="336.94848484848484" y="97.39696969696969"/>
      <point x="279.58484848484846" y="50.06969696969697"/>
    </contour>
  </outline>
</glyph>
<glyph name="dda-beng" format="2">
  <advance width="500.3424242424243"/>
  <unicode hex="09A1"/>
  <anchor x="323.8575757575758" y="58.42424242424242" name="bottom"/>
  <anchor x="403.6969696969697" y="-21.757575757575758" name="bottom.rakaar"/>
  <anchor x="337.71515151515155" y="76.93939393939394" name="bottom.rvocalic"/>
  <anchor x="308.96060606060604" y="26.606060606060606" name="bottom.virama"/>
  <anchor x="264.0" y="-22.60606060606061" name="nukta"/>
  <anchor x="232.7090909090909" y="595.2121212121212" name="top"/>
  <anchor x="235.0090909090909" y="595.2121212121212" name="topright"/>
  <anchor x="250.0969696969697" y="0.0" name="vedic"/>
  <outline>
    <contour>
      <point x="294.41212121212124" y="76.78787878787878" type="curve" smooth="yes"/>
      <point x="401.3787878787879" y="76.78787878787878"/>
      <point x="460.0636363636363" y="154.38484848484848"/>
      <point x="460.0636363636363" y="275.94545454545454" type="curve" smooth="yes"/>
      <point x="460.0636363636363" y="359.71818181818185"/>
      <point x="431.5787878787878" y="415.4606060606061"/>
      <point x="399.69696969696975" y="449.0242424242424" type="curve"/>
      <point x="365.839393939394" y="384.77575757575755"/>
      <point x="314.95454545454544" y="328.639393939394"/>
      <point x="270.77575757575755" y="328.639393939394" type="curve" smooth="yes"/>
      <point x="246.3151515151515" y="328.639393939394"/>
      <point x="234.1939393939394" y="344.39090909090913"/>
      <point x="234.1939393939394" y="369.95454545454544" type="curve" smooth="yes"/>
      <point x="234.1939393939394" y="595.2121212121212" type="line"/>
      <point x="518.6636363636363" y="595.2121212121212" type="line"/>
      <point x="501.7151515151515" y="622.0" type="line"/>
      <point x="-18.32121212121212" y="622.0" type="line"/>
      <point x="-2.0727272727272736" y="595.2121212121212" type="line"/>
      <point x="205.6151515151515" y="595.2121212121212" type="line"/>
      <point x="205.6151515151515" y="368.3515151515152" type="line" smooth="yes"/>
      <point x="205.6151515151515" y="337.9484848484848"/>
      <point x="215.87878787878788" y="320.1242424242424"/>
      <point x="230.26363636363638" y="308.93939393939394" type="curve" smooth="yes"/>
      <point x="243.54545454545453" y="298.24242424242425"/>
      <point x="258.39696969696973" y="293.8636363636364"/>
      <point x="275.76060606060605" y="293.8636363636364" type="curve" smooth="yes"/>
      <point x="322.54545454545456" y="293.8636363636364"/>
      <point x="373.93333333333334" y="334.4909090909091"/>
      <point x="416.30909090909086" y="407.71515151515155" type="curve"/>
      <point x="395.9606060606061" y="404.1727272727273" type="line"/>
      <point x="414.76969696969695" y="383.33636363636367"/>
      <point x="432.41818181818184" y="346.55151515151516"/>
      <point x="432.41818181818184" y="283.8787878787878" type="curve" smooth="yes"/>
      <point x="432.41818181818184" y="170.85454545454542"/>
      <point x="377.05757575757576" y="115.13333333333333"/>
      <point x="294.39696969696973" y="115.13333333333333" type="curve" smooth="yes"/>
      <point x="160.5121212121212" y="115.13333333333333"/>
      <point x="96.62424242424242" y="248.43636363636364"/>
      <point x="54.86060606060606" y="503.1787878787879" type="curve"/>
      <point x="31.339393939393936" y="498.75151515151515" type="line"/>
      <point x="73.12727272727273" y="212.0757575757576"/>
      <point x="151.68787878787882" y="76.78787878787878"/>
    </contour>
  </outline>
</glyph>
<glyph name="ddha-beng" format="2">
  <advance width="397.6030303030303"/>
  <unicode hex="09A2"/>
  <anchor x="250.3878787878788" y="54.42424242424242" name="bottom"/>
  <anchor x="298.6909090909091" y="11.348484848484848" name="bottom.rakaar"/>
  <anchor x="241.0909090909091" y="61.43030303030303" name="bottom.rvocalic"/>
  <anchor x="202.54242424242426" y="46.56060606060606" name="bottom.virama"/>
  <anchor x="172.54242424242426" y="-40.484848484848484" name="nukta"/>
  <anchor x="111.45454545454544" y="595.2121212121212" name="top"/>
  <anchor x="113.60606060606061" y="595.2121212121212" name="topright"/>
  <anchor x="198.769696969697" y="0.0" name="vedic"/>
  <outline>
    <contour>
      <point x="164.4030303030303" y="57.31818181818182" type="curve" smooth="yes"/>
      <point x="268.1575757575758" y="57.31818181818182"/>
      <point x="349.0121212121212" y="219.0060606060606"/>
      <point x="349.0121212121212" y="351.6969696969697" type="curve" smooth="yes"/>
      <point x="349.0121212121212" y="403.79393939393947"/>
      <point x="324.6606060606061" y="434.93939393939394"/>
      <point x="289.2090909090909" y="434.93939393939394" type="curve" smooth="yes"/>
      <point x="253.6848484848485" y="434.93939393939394"/>
      <point x="235.72727272727275" y="406.930303030303"/>
      <point x="235.72727272727275" y="377.66363636363633" type="curve" smooth="yes"/>
      <point x="235.72727272727275" y="345.09999999999997"/>
      <point x="255.10909090909087" y="322.04545454545456"/>
      <point x="285.9787878787879" y="322.04545454545456" type="curve" smooth="yes"/>
      <point x="304.8545454545454" y="322.04545454545456"/>
      <point x="317.24242424242425" y="331.74545454545455"/>
      <point x="325.7151515151515" y="351.6212121212121" type="curve"/>
      <point x="313.7878787878788" y="359.3939393939394" type="line"/>
      <point x="311.3" y="220.71818181818182"/>
      <point x="238.15151515151513" y="90.18484848484849"/>
      <point x="161.60303030303032" y="90.18484848484849" type="curve" smooth="yes"/>
      <point x="128.0787878787879" y="90.18484848484849"/>
      <point x="107.59393939393938" y="115.3909090909091"/>
      <point x="107.59393939393938" y="154.8181818181818" type="curve" smooth="yes"/>
      <point x="107.59393939393938" y="595.2121212121212" type="line"/>
      <point x="415.92424242424244" y="595.2121212121212" type="line"/>
      <point x="399.6757575757576" y="622.0" type="line"/>
      <point x="-18.32121212121212" y="622.0" type="line"/>
      <point x="-1.2454545454545443" y="595.2121212121212" type="line"/>
      <point x="79.01515151515153" y="595.2121212121212" type="line"/>
      <point x="79.01515151515153" y="153.05454545454546" type="line" smooth="yes"/>
      <point x="79.01515151515153" y="94.02424242424243"/>
      <point x="115.27272727272727" y="57.31818181818182"/>
    </contour>
  </outline>
</glyph>
<glyph name="nna-beng" format="2">
  <advance width="445.9030303030303"/>
  <unicode hex="09A3"/>
  <anchor x="352.41212121212124" y="59.15151515151514" name="bottom"/>
  <anchor x="365.78484848484845" y="-14.03030303030303" name="bottom.rakaar"/>
  <anchor x="366.8878787878788" y="-2.0787878787878786" name="bottom.rvocalic"/>
  <anchor x="357.75151515151515" y="5.212121212121212" name="bottom.virama"/>
  <anchor x="365.25454545454545" y="548.1818181818181" name="top"/>
  <anchor x="365.05757575757576" y="563.1090909090909" name="topright"/>
  <anchor x="222.56969696969693" y="0.0" name="vedic"/>
  <outline>
    <contour>
      <point x="363.73939393939395" y="-13.181818181818182" type="line"/>
      <point x="366.8878787878788" y="-12.181818181818182" type="line"/>
      <point x="366.8878787878788" y="595.2121212121212" type="line"/>
      <point x="464.22424242424245" y="595.2121212121212" type="line"/>
      <point x="447.9121212121212" y="622.0" type="line"/>
      <point x="366.4424242424243" y="622.0" type="line"/>
      <point x="363.6333333333333" y="661.8484848484849" type="line"/>
      <point x="341.7575757575758" y="679.0909090909091" type="line"/>
      <point x="338.3090909090909" y="678.0909090909091" type="line"/>
      <point x="338.3090909090909" y="541.3606060606061" type="line" smooth="yes"/>
      <point x="338.3090909090909" y="496.2696969696969"/>
      <point x="339.03333333333336" y="449.1848484848485"/>
      <point x="341.7151515151515" y="406.76363636363635" type="curve"/>
      <point x="347.90909090909093" y="404.73939393939395" type="line"/>
      <point x="294.1545454545454" y="571.3757575757576"/>
      <point x="237.67272727272726" y="627.0"/>
      <point x="164.3969696969697" y="627.0" type="curve" smooth="yes"/>
      <point x="96.82424242424244" y="627.0"/>
      <point x="42.648484848484856" y="571.6484848484849"/>
      <point x="42.648484848484856" y="477.6" type="curve" smooth="yes"/>
      <point x="42.648484848484856" y="383.22121212121215"/>
      <point x="97.55151515151516" y="320.9090909090909"/>
      <point x="166.6848484848485" y="320.9090909090909" type="curve" smooth="yes"/>
      <point x="206.53939393939393" y="320.9090909090909"/>
      <point x="230.02727272727273" y="344.6666666666667"/>
      <point x="230.02727272727273" y="381.5333333333333" type="curve" smooth="yes"/>
      <point x="230.02727272727273" y="413.5878787878788"/>
      <point x="210.79393939393938" y="437.44848484848484"/>
      <point x="180.3060606060606" y="437.44848484848484" type="curve" smooth="yes"/>
      <point x="152.03333333333333" y="437.44848484848484"/>
      <point x="132.24545454545455" y="416.0272727272727"/>
      <point x="132.24545454545455" y="385.8454545454545" type="curve" smooth="yes"/>
      <point x="132.24545454545455" y="367.1818181818182"/>
      <point x="140.1848484848485" y="351.75757575757575"/>
      <point x="149.9757575757576" y="345.60909090909087" type="curve"/>
      <point x="167.07272727272726" y="358.72727272727275" type="line"/>
      <point x="160.6878787878788" y="356.72727272727275"/>
      <point x="154.38787878787878" y="356.5151515151515"/>
      <point x="148.3878787878788" y="356.5151515151515" type="curve" smooth="yes"/>
      <point x="110.7151515151515" y="356.5151515151515"/>
      <point x="71.37575757575758" y="399.59696969696967"/>
      <point x="71.37575757575758" y="472.5121212121212" type="curve" smooth="yes"/>
      <point x="71.37575757575758" y="549.4909090909091"/>
      <point x="116.23030303030302" y="590.0181818181819"/>
      <point x="169.13333333333335" y="590.0181818181819" type="curve" smooth="yes"/>
      <point x="239.87878787878788" y="590.0181818181819"/>
      <point x="288.7181818181818" y="527.8151515151515"/>
      <point x="343.0818181818182" y="357.1757575757576" type="curve"/>
      <point x="338.3090909090909" y="394.74242424242425" type="line"/>
      <point x="338.3090909090909" y="3.0" type="line"/>
    </contour>
  </outline>
</glyph>
<glyph name="ta-beng" format="2">
  <advance width="506.3575757575758"/>
  <unicode hex="09A4"/>
  <anchor x="346.8090909090909" y="67.78787878787878" name="bottom"/>
  <anchor x="417.65151515151507" y="-13.969696969696969" name="bottom.rakaar"/>
  <anchor x="354.5121212121212" y="84.93939393939394" name="bottom.rvocalic"/>
  <anchor x="322.3636363636363" y="34.39393939393939" name="bottom.virama"/>
  <anchor x="306.96969696969694" y="595.2121212121212" name="top"/>
  <anchor x="309.26969696969695" y="595.2121212121212" name="topright"/>
  <anchor x="252.9030303030303" y="0.0" name="vedic"/>
  <outline>
    <contour>
      <point x="309.6606060606061" y="84.57575757575758" type="curve" smooth="yes"/>
      <point x="392.2606060606061" y="84.57575757575758"/>
      <point x="464.5454545454545" y="138.27878787878788"/>
      <point x="465.4909090909091" y="273.9727272727273" type="curve" smooth="yes"/>
      <point x="466.43636363636364" y="399.90606060606063"/>
      <point x="401.1848484848485" y="481.44848484848484"/>
      <point x="299.29393939393935" y="481.44848484848484" type="curve" smooth="yes"/>
      <point x="241.54242424242423" y="481.44848484848484"/>
      <point x="213.4060606060606" y="450.9666666666667"/>
      <point x="213.4060606060606" y="406.369696969697" type="curve" smooth="yes"/>
      <point x="213.4060606060606" y="368.9757575757576"/>
      <point x="236.7878787878788" y="341.90303030303033"/>
      <point x="273.71515151515155" y="341.90303030303033" type="curve" smooth="yes"/>
      <point x="310.139393939394" y="341.90303030303033"/>
      <point x="329.1363636363637" y="368.74545454545455"/>
      <point x="329.1363636363637" y="403.4848484848485" type="curve" smooth="yes"/>
      <point x="329.1363636363637" y="427.20303030303035"/>
      <point x="318.6030303030303" y="450.8363636363636"/>
      <point x="302.8666666666667" y="458.90303030303033" type="curve"/>
      <point x="277.530303030303" y="430.55757575757576" type="line"/>
      <point x="286.40606060606063" y="437.47272727272724"/>
      <point x="302.5909090909091" y="443.33333333333337"/>
      <point x="322.93333333333334" y="443.33333333333337" type="curve" smooth="yes"/>
      <point x="381.37575757575763" y="443.33333333333337"/>
      <point x="437.5090909090909" y="388.2121212121212"/>
      <point x="437.5090909090909" y="284.1181818181818" type="curve" smooth="yes"/>
      <point x="437.5090909090909" y="171.9878787878788"/>
      <point x="382.22121212121215" y="122.98484848484848"/>
      <point x="307.1454545454545" y="122.98484848484848" type="curve" smooth="yes"/>
      <point x="199.95757575757577" y="122.98484848484848"/>
      <point x="112.04848484848485" y="223.33333333333331"/>
      <point x="51.875757575757575" y="506.8575757575758" type="curve"/>
      <point x="28.65454545454545" y="501.45454545454544" type="line"/>
      <point x="90.58484848484848" y="185.30303030303028"/>
      <point x="189.38181818181818" y="84.57575757575758"/>
    </contour>
    <contour>
      <point x="-2.2848484848484847" y="595.2121212121212" type="line"/>
      <point x="524.678787878788" y="595.2121212121212" type="line"/>
      <point x="507.8787878787879" y="622.0" type="line"/>
      <point x="-18.32121212121212" y="622.0" type="line"/>
    </contour>
  </outline>
</glyph>
<glyph name="tha-beng" format="2">
  <advance width="441.3424242424243"/>
  <unicode hex="09A5"/>
  <anchor x="354.4909090909091" y="15.030303030303031" name="bottom"/>
  <anchor x="361.2242424242425" y="37.6969696969697" name="bottom.rakaar"/>
  <anchor x="362.32727272727277" y="7.272727272727273" name="bottom.rvocalic"/>
  <anchor x="354.40606060606063" y="18.92121212121212" name="bottom.virama"/>
  <anchor x="360.6939393939394" y="548.1818181818181" name="top"/>
  <anchor x="360.4969696969697" y="563.1090909090909" name="topright"/>
  <anchor x="220.32121212121214" y="0.0" name="vedic"/>
  <outline>
    <contour>
      <point x="358.9030303030303" y="-5.121212121212121" type="line"/>
      <point x="362.32727272727277" y="-4.121212121212121" type="line"/>
      <point x="362.32727272727277" y="595.2121212121212" type="line"/>
      <point x="459.6636363636364" y="595.2121212121212" type="line"/>
      <point x="443.3515151515151" y="622.0" type="line"/>
      <point x="361.88181818181823" y="622.0" type="line"/>
      <point x="359.07272727272726" y="661.8484848484849" type="line"/>
      <point x="337.1969696969697" y="679.0909090909091" type="line"/>
      <point x="333.74848484848485" y="678.0909090909091" type="line"/>
      <point x="333.74848484848485" y="53.57575757575758" type="line"/>
      <point x="343.0848484848485" y="53.43636363636364" type="line"/>
      <point x="300.4848484848485" y="175.39393939393938"/>
      <point x="194.86363636363635" y="274.8575757575758"/>
      <point x="91.30303030303031" y="315.9787878787879" type="curve"/>
      <point x="98.73636363636365" y="303.4272727272727" type="line"/>
      <point x="205.26969696969698" y="323.36363636363643"/>
      <point x="256.4303030303031" y="381.02121212121216"/>
      <point x="256.4303030303031" y="471.5333333333333" type="curve" smooth="yes"/>
      <point x="256.4303030303031" y="577.178787878788"/>
      <point x="199.4909090909091" y="623.4242424242424"/>
      <point x="132.65757575757576" y="623.4242424242424" type="curve" smooth="yes"/>
      <point x="66.45151515151514" y="623.4242424242424"/>
      <point x="25.92121212121212" y="573.6484848484849"/>
      <point x="25.92121212121212" y="527.5666666666667" type="curve" smooth="yes"/>
      <point x="25.92121212121212" y="490.96363636363634"/>
      <point x="47.06363636363636" y="468.60606060606057"/>
      <point x="75.36060606060606" y="468.60606060606057" type="curve" smooth="yes"/>
      <point x="100.57272727272726" y="468.60606060606057"/>
      <point x="117.80909090909091" y="485.5393939393939"/>
      <point x="117.80909090909091" y="514.2363636363636" type="curve" smooth="yes"/>
      <point x="117.80909090909091" y="537.1939393939394"/>
      <point x="104.86363636363636" y="559.1333333333334"/>
      <point x="75.4151515151515" y="560.1181818181817" type="curve"/>
      <point x="77.5060606060606" y="546.1212121212121" type="line"/>
      <point x="83.22727272727272" y="567.8545454545454"/>
      <point x="103.07878787878786" y="591.6848484848484"/>
      <point x="142.83636363636364" y="591.6848484848484" type="curve" smooth="yes"/>
      <point x="200.01515151515153" y="591.6848484848484"/>
      <point x="227.93636363636364" y="541.8606060606061"/>
      <point x="227.93636363636364" y="478.8" type="curve" smooth="yes"/>
      <point x="227.93636363636364" y="381.6424242424242"/>
      <point x="147.3878787878788" y="344.0424242424242"/>
      <point x="54.630303030303025" y="335.25151515151515" type="curve"/>
      <point x="70.9" y="283.24242424242425" type="line"/>
      <point x="184.91212121212124" y="247.64848484848486"/>
      <point x="285.8878787878788" y="149.6818181818182"/>
      <point x="338.7060606060606" y="13.206060606060607" type="curve"/>
    </contour>
  </outline>
</glyph>
<glyph name="da-beng" format="2">
  <advance width="417.4030303030303"/>
  <unicode hex="09A6"/>
  <anchor x="334.90606060606063" y="77.54545454545455" name="bottom"/>
  <anchor x="348.7909090909091" y="70.0" name="bottom.rakaar"/>
  <anchor x="346.71818181818185" y="12.10909090909091" name="bottom.rvocalic"/>
  <anchor x="340.969696969697" y="0.0" name="bottom.virama"/>
  <anchor x="103.36060606060606" y="595.2121212121212" name="top"/>
  <anchor x="106.2121212121212" y="595.2121212121212" name="topright"/>
  <anchor x="208.55151515151516" y="0.0" name="vedic"/>
  <outline>
    <contour>
      <point x="327.01212121212126" y="-0.5030303030303038" type="curve"/>
      <point x="349.5545454545455" y="7.9393939393939394" type="line"/>
      <point x="332.6303030303031" y="70.77575757575757"/>
      <point x="317.46666666666664" y="130.5060606060606"/>
      <point x="317.46666666666664" y="221.46969696969694" type="curve" smooth="yes"/>
      <point x="317.46666666666664" y="313.95757575757574"/>
      <point x="335.8818181818182" y="391.27272727272725"/>
      <point x="360.8575757575758" y="437.6969696969697" type="curve"/>
      <point x="323.6363636363636" y="476.17878787878783" type="line"/>
      <point x="249.4090909090909" y="431.7242424242424"/>
      <point x="141.30909090909094" y="321.5060606060606"/>
      <point x="90.9969696969697" y="245.07878787878786" type="curve"/>
      <point x="104.84545454545454" y="236.33939393939394" type="line"/>
      <point x="104.84545454545454" y="595.2121212121212" type="line"/>
      <point x="435.72424242424245" y="595.2121212121212" type="line"/>
      <point x="420.2636363636364" y="622.0" type="line"/>
      <point x="-18.32121212121212" y="622.0" type="line"/>
      <point x="-1.2848484848484851" y="595.2121212121212" type="line"/>
      <point x="76.26666666666668" y="595.2121212121212" type="line"/>
      <point x="76.26666666666668" y="221.98787878787877" type="line"/>
      <point x="103.75757575757576" y="205.42727272727274" type="line"/>
      <point x="173.9818181818182" y="302.4727272727273"/>
      <point x="268.52121212121216" y="397.55757575757576"/>
      <point x="334.03636363636366" y="437.6878787878788" type="curve"/>
      <point x="326.87272727272733" y="445.59999999999997" type="line"/>
      <point x="305.43636363636364" y="408.8121212121212"/>
      <point x="288.1" y="320.4818181818182"/>
      <point x="288.1" y="235.38787878787878" type="curve" smooth="yes"/>
      <point x="288.1" y="149.5090909090909"/>
      <point x="303.8969696969697" y="73.91818181818182"/>
    </contour>
  </outline>
</glyph>
<glyph name="dha-beng" format="2">
  <advance width="418.76363636363635"/>
  <unicode hex="09A7"/>
  <anchor x="332.06060606060606" y="15.030303030303031" name="bottom"/>
  <anchor x="337.7545454545455" y="37.6969696969697" name="bottom.rakaar"/>
  <anchor x="339.7484848484849" y="6.67878787878788" name="bottom.rvocalic"/>
  <anchor x="332.56969696969696" y="18.92121212121212" name="bottom.virama"/>
  <anchor x="341.5727272727273" y="595.2121212121212" name="top"/>
  <anchor x="339.4606060606061" y="595.2121212121212" name="topright"/>
  <anchor x="208.98787878787877" y="0.0" name="vedic"/>
  <outline>
    <contour>
      <point x="336.17575757575753" y="-5.121212121212121" type="line"/>
      <point x="339.7484848484849" y="-4.121212121212121" type="line"/>
      <point x="339.7484848484849" y="595.2121212121212" type="line"/>
      <point x="437.08484848484846" y="595.2121212121212" type="line"/>
      <point x="420.8363636363636" y="622.0" type="line"/>
      <point x="311.169696969697" y="622.0" type="line"/>
      <point x="311.169696969697" y="502.2939393939394" type="line"/>
      <point x="318.66666666666663" y="517.8030303030304" type="line"/>
      <point x="221.35151515151517" y="473.95454545454544"/>
      <point x="120.54242424242423" y="410.45757575757574"/>
      <point x="30.136363636363633" y="336.8575757575758" type="curve"/>
      <point x="53.44848484848485" y="291.1666666666667" type="line"/>
      <point x="164.55454545454546" y="245.3060606060606"/>
      <point x="264.90909090909093" y="148.60909090909092"/>
      <point x="316.42424242424244" y="12.166666666666668" type="curve"/>
    </contour>
    <contour>
      <point x="311.169696969697" y="53.130303030303025" type="line"/>
      <point x="320.95151515151514" y="51.50606060606061" type="line"/>
      <point x="277.93636363636364" y="178.5848484848485"/>
      <point x="168.2909090909091" y="278.0727272727273"/>
      <point x="65.98181818181818" y="326.25757575757575" type="curve"/>
      <point x="66.53333333333333" y="315.0333333333333" type="line"/>
      <point x="150.86969696969697" y="389.05757575757576"/>
      <point x="252.21818181818185" y="444.9757575757576"/>
      <point x="317.769696969697" y="475.97575757575754" type="curve"/>
      <point x="311.169696969697" y="489.23939393939395" type="line"/>
    </contour>
    <contour>
      <point x="166.1848484848485" y="419.4787878787879" type="curve"/>
      <point x="180.8909090909091" y="438.08484848484846" type="line"/>
      <point x="137.82727272727274" y="443.0"/>
      <point x="93.02424242424243" y="470.8636363636364"/>
      <point x="93.02424242424243" y="524.1757575757576" type="curve" smooth="yes"/>
      <point x="93.02424242424243" y="576.769696969697"/>
      <point x="126.15454545454544" y="595.6424242424242"/>
      <point x="154.49393939393937" y="595.6424242424242" type="curve" smooth="yes"/>
      <point x="162.35454545454544" y="595.6424242424242"/>
      <point x="170.04242424242423" y="593.5393939393939"/>
      <point x="176.85454545454544" y="590.5393939393939" type="curve"/>
      <point x="166.03636363636366" y="606.5454545454545" type="line"/>
      <point x="153.13333333333335" y="599.8000000000001"/>
      <point x="147.83939393939394" y="585.6515151515151"/>
      <point x="147.83939393939394" y="571.9090909090909" type="curve" smooth="yes"/>
      <point x="147.83939393939394" y="544.5757575757576"/>
      <point x="164.10000000000002" y="530.4515151515152"/>
      <point x="185.5636363636364" y="530.4515151515152" type="curve" smooth="yes"/>
      <point x="206.0757575757576" y="530.4515151515152"/>
      <point x="222.26363636363638" y="546.2121212121212"/>
      <point x="222.26363636363638" y="572.7575757575758" type="curve" smooth="yes"/>
      <point x="222.26363636363638" y="601.939393939394"/>
      <point x="203.87878787878788" y="630.2121212121212"/>
      <point x="157.6848484848485" y="630.2121212121212" type="curve" smooth="yes"/>
      <point x="107.71818181818182" y="630.2121212121212"/>
      <point x="62.04242424242425" y="594.6424242424242"/>
      <point x="62.04242424242425" y="529.1454545454546" type="curve" smooth="yes"/>
      <point x="62.04242424242425" y="455.27878787878785"/>
      <point x="124.65151515151516" y="421.8424242424242"/>
    </contour>
  </outline>
</glyph>
